<?xml version="1.0" standalone="no"?>
<!DOCTYPE svg PUBLIC "-//W3C//DTD SVG 1.1//EN" "http://www.w3.org/Graphics/SVG/1.1/DTD/svg11.dtd" >
<svg xmlns="http://www.w3.org/2000/svg">
<metadata>
This is a custom SVG webfont generated by Font Squirrel.
Copyright   : Copyright c The Font Bureau Inc 2006 All rights reserved
Designer    : Cyrus Highsmith
Foundry     : Cyrus Highsmith
Foundry URL : httpwwwfontbureaucom
</metadata>
<defs>
<font id="webfontUhH2nUHw" horiz-adv-x="1270" >
<font-face units-per-em="2048" ascent="1638" descent="-410" />
<missing-glyph horiz-adv-x="481" />
<glyph unicode="&#xfb00;" horiz-adv-x="1436" d="M926 1235q0 78 15 143.5t53 112.5t102.5 72.5t165.5 25.5h124v-137h-108q-59 0 -97 -16.5t-60.5 -45t-31 -68.5t-8.5 -87v-105h305v-141h-305v-989h-155v989h-496v-989h-154v989h-213v141h213v105q0 78 15.5 143.5t53.5 112.5t102.5 72.5t164.5 25.5h123v-137h-106 q-60 0 -98.5 -16.5t-61.5 -45t-31 -68.5t-8 -87v-105h496v105z" />
<glyph unicode="&#xfb01;" horiz-adv-x="1247" d="M63 1130h213v105q0 78 15.5 143.5t53.5 112.5t102.5 72.5t164.5 25.5h123v-137h-106q-60 0 -98.5 -16.5t-61.5 -45t-31 -68.5t-8 -87v-105h305v-141h-305v-989h-154v989h-213v141zM926 1130h155v-1130h-155v1130zM926 1501h155v-221h-155v221z" />
<glyph unicode="&#xfb02;" horiz-adv-x="1358" d="M63 1130h213v119q0 78 15.5 143.5t53.5 112.5t102.5 73t164.5 26h123v-138h-106q-60 0 -98.5 -16t-61.5 -45t-31 -69t-8 -87v-119h305v-141h-305v-989h-154v989h-213v141zM1161 -2q-69 0 -114.5 15.5t-72 48t-37.5 85t-11 123.5v1319h155v-1302q0 -41 4.5 -70t17.5 -46 t38.5 -25.5t68.5 -8.5h50v-135q-13 -2 -38.5 -3t-60.5 -1z" />
<glyph unicode="&#xfb03;" horiz-adv-x="1896" d="M926 1235q0 78 15 143.5t53 112.5t102.5 72.5t165.5 25.5h124v-137h-108q-59 0 -97 -16.5t-60.5 -45t-31 -68.5t-8.5 -87v-105h305v-141h-305v-989h-155v989h-496v-989h-154v989h-213v141h213v105q0 78 15.5 143.5t53.5 112.5t102.5 72.5t164.5 25.5h123v-137h-106 q-60 0 -98.5 -16.5t-61.5 -45t-31 -68.5t-8 -87v-105h496v105zM1577 1130h154v-1130h-154v1130zM1575 1501h158v-221h-158v221z" />
<glyph unicode="&#xfb04;" horiz-adv-x="2009" d="M926 1235q0 78 15 143.5t53 112.5t102.5 72.5t165.5 25.5h124v-137h-108q-59 0 -97 -16.5t-60.5 -45t-31 -68.5t-8.5 -87v-105h305v-141h-305v-989h-155v989h-496v-989h-154v989h-213v141h213v105q0 78 15.5 143.5t53.5 112.5t102.5 72.5t164.5 25.5h123v-137h-106 q-60 0 -98.5 -16.5t-61.5 -45t-31 -68.5t-8 -87v-105h496v105zM1810 -2q-67 0 -112 15.5t-72 48t-38 85t-11 123.5v1319h154v-1302q0 -41 4 -70t17 -46t39 -25.5t69 -8.5h49v-135q-11 -2 -38.5 -3t-60.5 -1z" />
<glyph unicode="fj" horiz-adv-x="1247" d="M63 1130h213v105q0 78 15.5 143.5t53.5 112.5t102.5 72.5t164.5 25.5h123v-137h-106q-60 0 -98.5 -16.5t-61.5 -45t-31 -68.5t-8 -87v-105h305v-141h-305v-989h-154v989h-213v141zM764 -213h14q49 0 78 9t44 28.5t20.5 53.5t5.5 85v1167h155v-1167q0 -86 -12 -144.5 t-44 -94t-89 -51t-145 -15.5h-27v129zM926 1501h155v-221h-155v221z" />
<glyph unicode="ft" horiz-adv-x="1489" d="M1225 -2q-97 0 -155 19.5t-91 56.5t-44 91t-11 126v698h-494v-989h-154v989h-213v141h213v105q0 78 15.5 143.5t53.5 112.5t102.5 72.5t164.5 25.5h123v-137h-106q-60 0 -98.5 -16.5t-61.5 -45t-31 -68.5t-8 -87v-105h498l26 340l123 23v-363h312v-141h-312v-680 q0 -39 5 -70.5t22.5 -54t51.5 -35t93 -12.5h140v-137q-7 0 -30.5 -1t-50.5 -1h-83z" />
<glyph unicode=" "  horiz-adv-x="481" />
<glyph unicode="&#x09;" horiz-adv-x="481" />
<glyph unicode="&#xa0;" horiz-adv-x="481" />
<glyph unicode="!" horiz-adv-x="733" d="M264 225h205v-225h-205v225zM281 1518h172l-19 -1100h-135z" />
<glyph unicode="&#x22;" horiz-adv-x="981" d="M201 1518h159l-12 -586h-133zM621 1518h159l-12 -586h-135z" />
<glyph unicode="#" horiz-adv-x="1507" d="M381 455h-246v141h273l61 322h-334v143h363l88 457h149l-90 -457h330l90 457h147l-86 -457h248v-143h-276l-62 -322h338v-141h-364l-88 -455h-150l88 455h-328l-88 -455h-151zM895 590l66 336h-349l-65 -336h348z" />
<glyph unicode="$" horiz-adv-x="1360" d="M402 28q-138 29 -269 119l76 117q61 -41 119.5 -66.5t116 -40t115.5 -19.5q31 -3 63 -4v600q-66 15 -129 31q-86 23 -152 66t-104.5 113t-38.5 180q0 205 116 300q101 83 301 94v133h144v-134q91 -6 173 -26q116 -29 197 -84l-75 -121q-68 47 -169 70q-65 16 -132 21 v-527q81 -18 157 -40q88 -26 155 -71t105.5 -117.5t38.5 -187.5q0 -213 -127 -324q-108 -94 -323 -108v-195h-144v194q-108 5 -214 27zM973 206q88 73 88 220q0 76 -25.5 125t-76 82t-123.5 53q-38 11 -82 21v-572q148 12 219 71zM524 1364q-63 -16 -102 -47t-55.5 -78 t-16.5 -109q0 -69 25.5 -113t75 -74t118.5 -50l54 -14v499q-56 -4 -99 -14z" />
<glyph unicode="%" horiz-adv-x="2271" d="M500 582q-111 0 -189 34.5t-127 98t-71.5 151.5t-22.5 195q0 104 22.5 193t71.5 152.5t127 99.5t189 36q108 0 185 -36t126 -99.5t71.5 -152.5t22.5 -193q0 -107 -22.5 -195t-71.5 -151.5t-126 -98t-185 -34.5zM500 709q75 0 125.5 26.5t81 73.5t44 111.5t13.5 140.5 t-13.5 139.5t-44 110.5t-81 73.5t-125.5 26.5q-76 0 -127 -26.5t-82 -72.5t-44.5 -110.5t-13.5 -140.5t12.5 -140.5t43 -111.5t82 -73.5t129.5 -26.5zM1772 -20q-109 0 -186 34.5t-126 98t-71.5 151.5t-22.5 195q0 104 22.5 193t71.5 152.5t126 99.5t186 36q108 0 186 -36 t127 -99.5t71.5 -152.5t22.5 -193q0 -107 -22.5 -195t-71.5 -151.5t-127 -98t-186 -34.5zM1772 106q75 0 126.5 27t82 74t43 111.5t12.5 140.5q0 73 -12.5 138t-43 112t-82 73.5t-126.5 26.5q-76 0 -126.5 -26.5t-81 -73.5t-44 -110.5t-13.5 -139.5t13.5 -140.5t44 -111.5 t81 -74t126.5 -27zM1483 1520h147l-846 -1520h-147z" />
<glyph unicode="&#x26;" horiz-adv-x="1614" d="M600 -20q-139 0 -235.5 25.5t-155.5 77.5t-86 132t-27 188q0 93 31 165.5t81 130t115 102.5q47 32 95 60q-29 70 -48 139q-32 118 -32 223q0 166 87 242.5t237 76.5q153 0 227 -75.5t74 -243.5q0 -84 -34 -148.5t-89.5 -116t-125.5 -93.5l-102 -62q53 -101 124 -199 q75 -102 161 -184q70 -66 130 -114q72 95 123 236q52 144 101 337l135 -33q-53 -213 -115 -375q-54 -142 -129 -243q50 -29 94 -47q69 -27 125 -33.5t107 -6.5h23v-141h-27q-78 0 -152.5 10t-154.5 44q-57 24 -119 63q-60 -49 -132 -81q-126 -56 -306 -56zM780 328 q-96 94 -177 205q-73 101 -129 207q-35 -23 -67 -47q-47 -36 -81.5 -79t-56 -95t-21.5 -113q0 -68 13 -123.5t51 -93t107.5 -58t180.5 -20.5q150 0 251 48q37 17 70 42q-66 53 -141 127zM634 966q54 35 96 74t67.5 83t25.5 100q0 92 -34.5 137t-126.5 45q-175 0 -175 -182 q0 -90 32 -196q16 -54 38 -108z" />
<glyph unicode="'" horiz-adv-x="563" d="M201 1520h159l-12 -588h-133z" />
<glyph unicode="(" horiz-adv-x="977" d="M672 -377q-74 62 -152 156t-141.5 219t-104.5 279.5t-41 336.5q0 174 41 330t104.5 284t141.5 226t152 160l110 -84q-67 -62 -135.5 -149t-126 -201.5t-93.5 -256t-36 -309.5q0 -170 37 -311t94.5 -255t127 -199t132.5 -142z" />
<glyph unicode=")" horiz-adv-x="977" d="M195 -293q65 62 134.5 148t126 197.5t92.5 251.5t36 310q0 168 -37 311.5t-94.5 259t-126 203t-131.5 142.5l108 84q74 -62 151.5 -157t141 -221t104.5 -282.5t41 -339.5q0 -176 -41 -329.5t-104.5 -279.5t-141 -223t-151.5 -159z" />
<glyph unicode="*" horiz-adv-x="1178" d="M541 940l-338 -205l-64 113l348 184l-348 189l64 112l338 -209l-15 396h125l-14 -396l338 209l63 -112l-348 -189l348 -184l-63 -113l-338 207l14 -393h-125z" />
<glyph unicode="+" horiz-adv-x="1425" d="M635 649h-418v148h418v415h153v-415h418v-148h-418v-418h-153v418z" />
<glyph unicode="," horiz-adv-x="489" d="M131 -160q68 37 90.5 68t22.5 92h-103v227h205v-172q0 -63 -7 -108t-25.5 -79t-52.5 -59.5t-85 -52.5z" />
<glyph unicode="-" horiz-adv-x="926" d="M106 702h711v-145h-711v145z" />
<glyph unicode="." horiz-adv-x="489" d="M141 227h205v-227h-205v227z" />
<glyph unicode="/" horiz-adv-x="1012" d="M850 1518h162l-850 -1518h-162z" />
<glyph unicode="0" horiz-adv-x="1493" d="M748 -23q-179 0 -292.5 58.5t-178 162t-89 247t-24.5 315.5t24.5 316.5t89 247.5t178 160.5t292.5 57.5q176 0 289.5 -57.5t178 -160.5t89 -247.5t24.5 -316.5t-24.5 -315.5t-89 -247t-178 -162t-289.5 -58.5zM748 121q135 0 219 49t129 135t60 203t15 252 q0 137 -15 253.5t-60 200.5t-129 132.5t-219 48.5q-138 0 -221 -48.5t-128 -132.5t-60 -200.5t-15 -253.5q0 -135 15 -252t60 -203t128 -135t221 -49z" />
<glyph unicode="1" horiz-adv-x="764" d="M365 1370h-289v148h442v-1518h-153v1370z" />
<glyph unicode="2" horiz-adv-x="1206" d="M78 131l510 512l144 149q60 64 99 122.5t57.5 115.5t18.5 129q0 125 -73.5 182.5t-249.5 57.5q-129 0 -233.5 -25.5t-176.5 -64.5l-70 127q95 49 210.5 77.5t281.5 28.5q231 0 348 -87t117 -284q0 -86 -20.5 -157.5t-62.5 -141t-107.5 -143.5t-155.5 -164l-426 -428h796 v-137h-1007v131z" />
<glyph unicode="3" horiz-adv-x="1251" d="M596 -25q-158 0 -287 32t-264 110l78 123q123 -66 232.5 -95.5t234.5 -29.5q98 0 167.5 16t116 54t68 100.5t21.5 156.5q0 78 -16.5 137.5t-61.5 99.5t-125 59.5t-207 19.5h-209v139h205q104 0 176 14.5t115 46t61.5 83t18.5 122.5q0 133 -77 185.5t-255 52.5 q-105 0 -217.5 -26.5t-202.5 -80.5l-84 119q111 68 245 98.5t269 30.5q238 0 355.5 -79t117.5 -275q0 -154 -54 -240t-140 -110q129 -29 183 -128.5t54 -277.5q0 -131 -33.5 -219t-100.5 -140.5t-163 -75t-221 -22.5z" />
<glyph unicode="4" horiz-adv-x="1366" d="M109 510l679 1008h170l-677 -1000h584l32 502h115v-502h282v-135h-282v-383h-148v383h-755v127z" />
<glyph unicode="5" horiz-adv-x="1303" d="M641 -23q-174 0 -299 41t-225 99l80 125q92 -49 196.5 -88t243.5 -39q86 0 160.5 15t131 56t88.5 113t32 184q0 111 -29 182.5t-81 114.5t-123 59.5t-157 16.5q-118 0 -199 -18.5t-159 -57.5l-131 39l39 699h887v-142h-748l-24 -450q53 28 146 49.5t222 21.5 q109 0 203 -22.5t162.5 -79.5t107.5 -155.5t39 -252.5q0 -157 -43 -255.5t-117.5 -156t-178 -78t-224.5 -20.5z" />
<glyph unicode="6" horiz-adv-x="1411" d="M743 -23q-147 0 -257.5 35t-183.5 111t-109.5 196.5t-36.5 294.5q0 240 38.5 411t136 280.5t263.5 161t422 51.5h63v-142h-67q-207 0 -337 -38t-206 -105.5t-108.5 -159.5t-45.5 -203q62 78 180.5 114t288.5 36q146 0 242 -36t154.5 -102.5t82 -162.5t23.5 -215 q0 -123 -26.5 -220.5t-90 -165t-168 -104.5t-258.5 -37zM745 113q115 0 190 27.5t119 77.5t61.5 122t17.5 160t-18.5 159.5t-63.5 121.5t-119 78t-187 28q-94 0 -173.5 -20.5t-137 -63.5t-89.5 -106.5t-32 -149.5q0 -123 30 -206t86 -134t136 -72.5t180 -21.5z" />
<glyph unicode="7" horiz-adv-x="1094" d="M893 1376h-848v142h1016v-125l-612 -1393h-162z" />
<glyph unicode="8" horiz-adv-x="1423" d="M713 -27q-154 0 -262.5 31t-178 89.5t-101.5 142t-32 188.5q0 160 63.5 267.5t190.5 142.5q-104 32 -153.5 121t-49.5 212q0 84 26 154t86 119t160.5 75.5t250.5 26.5q149 0 249.5 -26.5t160 -75.5t85 -119t25.5 -154q0 -123 -49 -214t-154 -119q135 -37 195.5 -143.5 t60.5 -266.5q0 -105 -32.5 -188.5t-102.5 -142t-178.5 -89.5t-259.5 -31zM713 109q217 0 316 80.5t99 244.5t-99 246t-316 82q-219 0 -318.5 -82t-99.5 -246t99.5 -244.5t318.5 -80.5zM713 893q205 0 287.5 65.5t82.5 192.5t-82.5 192.5t-287.5 65.5q-103 0 -174.5 -16.5 t-115.5 -49t-63.5 -81t-19.5 -111.5q0 -64 19.5 -112t63.5 -80.5t115.5 -49t174.5 -16.5z" />
<glyph unicode="9" horiz-adv-x="1411" d="M336 137h67q209 0 340 39t206 107.5t106.5 162t44.5 201.5q-62 -78 -179.5 -113.5t-287.5 -35.5q-146 0 -242 36.5t-154.5 104.5t-82 163t-23.5 212q0 121 26.5 219t90 166.5t168 105.5t258.5 37q147 0 256.5 -34.5t183.5 -110.5t111 -197t37 -295q0 -239 -39 -410 t-136.5 -282t-264.5 -162t-421 -51h-65v137zM670 627q94 0 174 21.5t137 63.5t89 105.5t32 149.5q0 123 -30 205.5t-85 134t-134 73t-179 21.5q-115 0 -190.5 -27.5t-121 -78t-62.5 -122t-17 -159.5t18 -160t63.5 -122t120 -77.5t185.5 -27.5z" />
<glyph unicode=":" horiz-adv-x="530" d="M162 223h205v-223h-205v223zM162 1130h205v-223h-205v223z" />
<glyph unicode=";" horiz-adv-x="530" d="M152 -160q67 37 89.5 68t22.5 92h-102v223h205v-168q0 -63 -7.5 -108t-26 -79t-52 -59.5t-84.5 -52.5zM162 1130h205v-223h-205v223z" />
<glyph unicode="&#x3c;" horiz-adv-x="1425" d="M213 649v119l917 459v-146l-759 -372l759 -373v-150z" />
<glyph unicode="=" horiz-adv-x="1425" d="M229 573h967v-145h-967v145zM229 1014h967v-144h-967v144z" />
<glyph unicode="&#x3e;" horiz-adv-x="1425" d="M295 336l760 371l-760 372v148l917 -461v-119l-917 -461v150z" />
<glyph unicode="?" horiz-adv-x="1360" d="M561 403q-10 101 -5 171.5t29.5 125t74 96.5t126.5 87q70 39 118 69.5t76 61t40 67.5t12 88q0 52 -12 95t-49 71.5t-104.5 45t-180.5 16.5q-123 0 -236.5 -29t-207.5 -78l-68 135q100 56 241.5 86.5t280.5 30.5q146 0 241 -22.5t151.5 -68.5t79 -113.5t22.5 -155.5 q0 -78 -18.5 -133.5t-55.5 -99.5t-90 -81t-121 -75q-69 -39 -110 -72t-60.5 -74t-22.5 -98t3 -146h-154zM535 209h204v-209h-204v209z" />
<glyph unicode="@" horiz-adv-x="2222" d="M1124 -338q-479 0 -708.5 236.5t-229.5 699.5q0 471 232.5 708.5t691.5 237.5q463 0 696.5 -237.5t233.5 -708.5q0 -149 -15.5 -250.5t-53.5 -164t-104.5 -89t-168.5 -26.5q-86 0 -137.5 16t-78 41t-35.5 55.5t-11 59.5q-50 -86 -144 -125t-260 -39q-121 0 -205 38 t-136 107.5t-75.5 167.5t-23.5 219q0 119 24.5 217.5t78 168t138.5 107.5t205 38q164 0 252 -36t129 -120l33 147l100 -6v-780q0 -35 5.5 -66.5t22.5 -58t51 -42t93 -15.5q70 0 112 22.5t64.5 74.5t30.5 135t8 204q0 420 -204.5 634t-624.5 214q-416 0 -619.5 -213 t-203.5 -635q0 -410 204.5 -624t632.5 -214q172 0 315.5 33t252.5 86l43 -86q-119 -59 -271.5 -95t-339.5 -36zM1059 201q88 0 153.5 20.5t109.5 67.5t66.5 126t22.5 193q0 113 -21.5 189.5t-65.5 122t-110.5 65t-154.5 19.5q-176 0 -250 -104.5t-74 -291.5 q0 -190 74 -298.5t250 -108.5z" />
<glyph unicode="A" horiz-adv-x="1481" d="M659 1528h162l609 -1528h-164l-140 350h-778l-137 -350h-160zM1069 498l-332 835l-334 -835h666z" />
<glyph unicode="B" horiz-adv-x="1440" d="M178 1518h660q252 0 367.5 -91.5t115.5 -277.5q0 -131 -53.5 -225.5t-155.5 -124.5q246 -62 246 -379q0 -115 -34 -195t-101.5 -130t-168 -72.5t-233.5 -22.5h-643v1518zM838 145q186 0 272 68t86 221q0 146 -86 212.5t-276 66.5h-498v-568h502zM842 860q94 0 154.5 20.5 t96 56.5t50 85t14.5 106q0 119 -72.5 180.5t-242.5 61.5h-506v-510h506z" />
<glyph unicode="C" horiz-adv-x="1477" d="M838 -23q-383 0 -565.5 199t-182.5 584q0 397 197.5 589.5t558.5 192.5q162 0 296 -47t234 -143l-114 -115q-82 74 -187.5 113t-230.5 39q-592 0 -592 -631q0 -312 144.5 -470.5t449.5 -158.5q86 0 150.5 12.5t114.5 34t89 50t74 59.5l112 -109q-38 -39 -87.5 -74.5 t-115 -63.5t-150.5 -44.5t-195 -16.5z" />
<glyph unicode="D" horiz-adv-x="1540" d="M178 1518h496q213 0 361.5 -36t240.5 -123t134 -233.5t42 -365.5q0 -215 -45 -360.5t-142.5 -234.5t-250 -127t-367.5 -38h-469v1518zM653 147q181 0 302.5 33t196.5 104.5t106.5 188.5t31.5 287q0 172 -28.5 287.5t-98 186.5t-188.5 101.5t-299 30.5h-336v-1219h313z " />
<glyph unicode="E" horiz-adv-x="1309" d="M178 1518h1004v-154h-842v-502h821v-151h-821v-564h850v-147h-1012v1518z" />
<glyph unicode="F" horiz-adv-x="1229" d="M178 1518h977v-154h-815v-514h797v-152h-797v-698h-162v1518z" />
<glyph unicode="G" horiz-adv-x="1591" d="M836 -23q-203 0 -344.5 49.5t-230.5 147.5t-130 244.5t-41 341.5q0 205 50 353.5t145.5 243.5t236 140t322.5 45q108 0 194 -16.5t154 -43t118 -60t87 -68.5l-115 -117q-72 63 -174 107.5t-264 44.5q-299 0 -446.5 -154t-147.5 -477q0 -162 32.5 -282t103.5 -198.5 t183.5 -117.5t272.5 -39q153 0 249.5 32.5t151.5 96t75.5 159t20.5 222.5v49h-512v149h672v-172q0 -153 -25.5 -279t-97 -215t-202 -137.5t-338.5 -48.5z" />
<glyph unicode="H" horiz-adv-x="1591" d="M178 1518h162v-648h911v648h160v-1518h-160v713h-911v-713h-162v1518z" />
<glyph unicode="I" horiz-adv-x="547" d="M195 1518h157v-1518h-157v1518z" />
<glyph unicode="J" horiz-adv-x="819" d="M215 -2h-82q-29 0 -72 2v147h138q161 0 227 69t66 218v1084h157v-1090q0 -233 -109.5 -331.5t-324.5 -98.5z" />
<glyph unicode="K" horiz-adv-x="1442" d="M178 1518h158v-838l768 838h186l-545 -597l619 -921h-182l-543 805l-303 -332v-473h-158v1518z" />
<glyph unicode="L" horiz-adv-x="1202" d="M178 1518h162v-1371h807v-147h-969v1518z" />
<glyph unicode="M" horiz-adv-x="1872" d="M178 1518h209l549 -1295l553 1295h205v-1518h-158v1249l-535 -1249h-135l-534 1249v-1249h-154v1518z" />
<glyph unicode="N" horiz-adv-x="1595" d="M178 1518h176l908 -1252v1252h155v-1518h-147l-936 1288v-1288h-156v1518z" />
<glyph unicode="O" horiz-adv-x="1708" d="M852 -25q-182 0 -323.5 46.5t-238.5 142.5t-148.5 244.5t-51.5 351.5q0 405 198.5 593.5t563.5 188.5q182 0 324.5 -46t241 -142.5t149.5 -243.5t51 -350t-51 -351.5t-149.5 -244.5t-241 -142.5t-324.5 -46.5zM852 125q311 0 457.5 160.5t146.5 472.5q0 309 -146.5 470 t-457.5 161q-309 0 -454.5 -162t-145.5 -469q0 -309 145.5 -471t454.5 -162z" />
<glyph unicode="P" horiz-adv-x="1446" d="M178 1518h666q266 0 389 -109t123 -344q0 -238 -123 -359.5t-391 -121.5h-506v-584h-158v1518zM846 733q170 0 260 73t90 253q0 88 -22.5 148.5t-67.5 95t-111.5 50t-154.5 15.5h-504v-635h510z" />
<glyph unicode="Q" horiz-adv-x="1708" d="M1104 -373q-119 0 -196 19.5t-120 65.5t-56 121q-8 42 -8 94q0 31 3 65q-113 9 -207 39q-143 45 -238.5 139t-143.5 240.5t-48 349.5q0 405 191.5 593.5t570.5 188.5t572.5 -188.5t193.5 -593.5q0 -203 -48 -349.5t-144.5 -240.5t-240.5 -139q-131 -41 -300 -44 q-1 -24 -1 -45q0 -28 2 -50q5 -48 28.5 -75.5t69.5 -37.5t120 -10h158v-140h-28q-20 0 -44.5 -1t-49.5 -1h-36zM852 125q322 0 463 162t141 471q0 153 -33.5 271t-106.5 198t-187.5 121t-276.5 41q-160 0 -274.5 -41t-186.5 -121t-105.5 -198t-33.5 -271q0 -154 33.5 -272.5 t105.5 -198.5t186.5 -121t274.5 -41z" />
<glyph unicode="R" horiz-adv-x="1470" d="M178 1518h656q266 0 389 -109t123 -336q0 -225 -125 -340q-93 -86 -264 -108l366 -625h-172l-362 618h-453v-618h-158v1518zM836 766q79 0 143.5 14.5t110 48t70 92t24.5 146.5t-23.5 146.5t-68.5 92t-112 48t-151 14.5h-493v-602h500z" />
<glyph unicode="S" horiz-adv-x="1440" d="M713 -20q-174 0 -329 38.5t-300 135.5l82 122q137 -86 271 -119.5t272 -33.5q235 0 343.5 69.5t108.5 227.5q0 80 -32.5 129t-92 79.5t-142.5 49t-185 37.5q-123 20 -224.5 45.5t-173 69.5t-111.5 117t-40 188q0 219 139 313t410 94q180 0 308 -37t220 -98l-86 -131 q-82 53 -197.5 86t-244.5 33q-205 0 -297.5 -60.5t-92.5 -195.5q0 -72 29 -118t84 -76t134 -48t182 -37q124 -22 228.5 -47t180.5 -70t119 -119.5t43 -197.5q0 -227 -147.5 -336.5t-458.5 -109.5z" />
<glyph unicode="T" horiz-adv-x="1409" d="M625 1364h-570v154h1301v-154h-570v-1364h-161v1364z" />
<glyph unicode="U" horiz-adv-x="1593" d="M795 -25q-203 0 -326 47.5t-189.5 126t-89 182t-22.5 216.5v971h162v-953q0 -96 18.5 -177t69.5 -139.5t142 -91t235 -32.5q145 0 237 31.5t145.5 90t73 139.5t19.5 179v953h155v-971q0 -113 -23.5 -216.5t-91 -182t-191.5 -126t-324 -47.5z" />
<glyph unicode="V" horiz-adv-x="1481" d="M55 1518h166l522 -1325l519 1325h165l-606 -1528h-162z" />
<glyph unicode="W" horiz-adv-x="2218" d="M72 1518h166l399 -1256l407 1256h140l405 -1256l402 1256h155l-487 -1528h-139l-410 1263l-408 -1263h-141z" />
<glyph unicode="X" horiz-adv-x="1452" d="M131 1518h176l424 -605l416 605h178l-510 -725l557 -793h-180l-472 675l-462 -675h-176l555 794z" />
<glyph unicode="Y" horiz-adv-x="1434" d="M27 1518h176l516 -783l520 783h166l-608 -924v-594h-160v589z" />
<glyph unicode="Z" horiz-adv-x="1362" d="M92 129l950 1235h-915v154h1114v-140l-946 -1231h969v-147h-1172v129z" />
<glyph unicode="[" horiz-adv-x="946" d="M252 1589h487v-141h-329v-1649h335v-137h-493v1927z" />
<glyph unicode="\" horiz-adv-x="1012" d="M0 1518h162l850 -1518h-162z" />
<glyph unicode="]" horiz-adv-x="946" d="M205 -201h332v1649h-336v141h491v-1927h-487v137z" />
<glyph unicode="^" horiz-adv-x="1208" d="M516 1552h174l311 -320h-155l-246 219l-242 -219h-153z" />
<glyph unicode="_" horiz-adv-x="928" d="M-76 -121h1080v-127h-1080v127z" />
<glyph unicode="`" horiz-adv-x="1208" d="M262 1569h191l309 -320h-148z" />
<glyph unicode="a" d="M487 -20q-118 0 -195 25.5t-122 70.5t-62.5 106.5t-17.5 132.5q0 121 37 201t125 128t232.5 68.5t359.5 20.5h67q-2 61 -9 107q-9 59 -41 97t-92 56.5t-163 18.5q-108 0 -196 -32t-142 -67l-82 121q27 19 72 40.5t101.5 40t122 30.5t136.5 12q144 0 231 -25.5t134 -81 t62.5 -142.5t15.5 -208v-426q0 -45 3 -72.5t14.5 -42t35 -18.5t64.5 -4v-135q-11 -4 -62 -4q-49 0 -82 8t-53 24.5t-31.5 44t-17.5 64.5q-27 -41 -64 -70.5t-90 -49t-124.5 -29.5t-166.5 -10zM549 580q-119 -11 -187.5 -41.5t-95 -81.5t-26.5 -131q0 -52 13 -90.5t44 -66.5 t83 -42t130 -14q215 0 308 95t93 302v82h-59q-184 0 -303 -12z" />
<glyph unicode="b" horiz-adv-x="1325" d="M733 -20q-94 0 -163.5 9t-122 27.5t-89 47t-63.5 69.5l-29 -139l-110 10v1585h155v-588q47 82 148.5 119t281.5 37q142 0 235 -42t148.5 -119.5t78 -186.5t22.5 -242t-23.5 -241.5t-80 -185.5t-150.5 -118.5t-238 -41.5zM711 119q104 0 172.5 30.5t109.5 88t57.5 139.5 t16.5 184q0 105 -16.5 187.5t-56.5 141t-108.5 89.5t-174.5 31q-107 0 -182.5 -22.5t-124 -76t-71 -139.5t-22.5 -211t21.5 -210t70 -136t124 -73.5t184.5 -22.5z" />
<glyph unicode="c" horiz-adv-x="1153" d="M641 -20q-158 0 -262.5 40.5t-165.5 117.5t-87 185.5t-26 243.5t26 244t87 185.5t166.5 118.5t265.5 42q152 0 249 -48t159 -114l-113 -106q-41 41 -110.5 80t-184.5 39q-110 0 -185 -30t-120 -87t-64.5 -139t-19.5 -189q0 -104 18.5 -187t63.5 -139.5t119.5 -87 t187.5 -30.5q98 0 168 29.5t135 89.5l105 -99q-84 -78 -177.5 -118.5t-234.5 -40.5z" />
<glyph unicode="d" horiz-adv-x="1325" d="M586 -20q-142 0 -235 41.5t-149.5 119.5t-79 187.5t-22.5 242.5q0 131 23.5 240t80 184.5t151 117.5t235.5 42q184 0 281.5 -37t142.5 -114v585h155v-1583l-120 -10l-19 145q-53 -84 -155.5 -122.5t-288.5 -38.5zM614 123q107 0 182.5 22.5t124 75.5t71 138t22.5 212 q0 125 -21.5 209t-70 135.5t-124 73t-184.5 21.5q-104 0 -173.5 -30t-109.5 -86t-56.5 -138t-16.5 -185q0 -104 16.5 -187t56.5 -141.5t109.5 -89t173.5 -30.5z" />
<glyph unicode="e" horiz-adv-x="1214" d="M643 -23q-170 0 -276.5 46.5t-166 126t-80 187t-20.5 230.5t22.5 230.5t82 187.5t164 126t268.5 46q170 0 265 -54t139 -143.5t53 -205.5q8 -97 8 -197v-43h-852q3 -70 14 -132q15 -83 56.5 -142.5t118.5 -93t204 -33.5q70 0 123 8t95 23.5t77 37t70 45.5l84 -108 q-84 -66 -188.5 -104t-260.5 -38zM954 655q-4 76 -13 141.5t-40 115t-94.5 78t-173.5 28.5q-121 0 -197 -34t-116.5 -94.5t-55.5 -143.5q-7 -43 -11 -91h701z" />
<glyph unicode="f" horiz-adv-x="786" d="M63 1130h213v105q0 78 15.5 143.5t53.5 112.5t102.5 72.5t164.5 25.5h123v-137h-106q-60 0 -98.5 -16.5t-61.5 -45t-31 -68.5t-8 -87v-105h305v-141h-305v-989h-154v989h-213v141z" />
<glyph unicode="g" horiz-adv-x="1223" d="M590 414q-112 0 -196 18q-11 -13 -20 -28q-16 -27 -16 -56q0 -26 11.5 -43.5t38 -27t72.5 -12.5t116 -3q154 0 257 -12t167.5 -45t92.5 -89.5t28 -142.5t-29 -150.5t-94.5 -106.5t-172 -62.5t-261.5 -20.5q-135 0 -234.5 12.5t-163 44t-94.5 86t-31 140.5q0 49 10.5 94 t36 82t68.5 64.5t109 40.5q-35 16 -53.5 51t-18.5 82q0 57 25 107q13 24 29 44q-16 10 -30 21q-110 88 -110 276q0 193 109.5 286t353.5 93q55 0 110 -5l394 46v-129h-189q63 -34 100 -87q52 -73 52 -204q0 -188 -113 -276t-354 -88zM590 549q170 0 241.5 54t71.5 175 q0 123 -80 178.5t-233 55.5q-168 0 -239.5 -55.5t-71.5 -178.5q0 -121 71.5 -175t239.5 -54zM588 -238q121 0 197.5 13.5t120.5 38t60.5 62.5t16.5 87q0 51 -20.5 83t-66.5 50.5t-122 24.5t-186 6q-123 0 -196 -15.5t-111.5 -41t-51 -59.5t-12.5 -72q0 -103 89 -140t282 -37 z" />
<glyph unicode="h" d="M156 1589h155v-571q17 29 45.5 54.5t76.5 44t116.5 29.5t163.5 11q137 0 218 -33.5t123 -95t54 -147.5t12 -191v-690h-155v664q0 75 -7.5 137.5t-37 107.5t-89 70t-163.5 25q-113 0 -182.5 -28t-108.5 -77t-52.5 -116.5t-13.5 -147.5v-635h-155v1589z" />
<glyph unicode="i" horiz-adv-x="487" d="M166 1130h153v-1130h-153v1130zM166 1501h156v-221h-156v221z" />
<glyph unicode="j" horiz-adv-x="487" d="M4 -213h12q50 0 78.5 9t45 28.5t21.5 53.5t5 85v1167h153v-1167q0 -86 -11 -144.5t-44 -94t-89 -51t-144 -15.5h-27v129zM166 1501h156v-221h-156v221z" />
<glyph unicode="k" horiz-adv-x="1110" d="M156 1589h153v-1081l545 622h172l-409 -473l452 -657h-172l-382 546l-206 -233v-313h-153v1589z" />
<glyph unicode="l" horiz-adv-x="598" d="M401 -2q-69 0 -114 15.5t-72 48t-38 85t-11 123.5v1319h153v-1302q0 -41 4.5 -70t17.5 -46t40 -25.5t70 -8.5h49v-135q-13 -2 -39.5 -3t-59.5 -1z" />
<glyph unicode="m" horiz-adv-x="2034" d="M156 1122l123 8l14 -118q16 28 46 55t79 46.5t117.5 31.5t164.5 12q95 0 157.5 -11t101 -31.5t60 -49.5t32.5 -61q39 65 141 109t297 44q137 0 216 -33.5t119 -95t51 -147.5t11 -191v-690h-155v664q0 75 -6.5 137.5t-34 107.5t-85 70t-161.5 25q-113 0 -181.5 -28 t-105.5 -77t-48 -116.5t-11 -147.5v-635h-154v664q0 75 -6 137.5t-33.5 107.5t-85 70t-162.5 25q-112 0 -180.5 -28t-105.5 -77t-48.5 -116.5t-11.5 -147.5v-635h-155v1122z" />
<glyph unicode="n" d="M156 1122l123 8l14 -118q18 28 49 55t81 46.5t120.5 31.5t169.5 12q137 0 218 -33.5t123 -95t54 -147.5t12 -191v-690h-155v664q0 75 -7.5 137.5t-37 107.5t-89 70t-163.5 25q-113 0 -182.5 -28t-108.5 -77t-52.5 -116.5t-13.5 -147.5v-635h-155v1122z" />
<glyph unicode="o" horiz-adv-x="1292" d="M645 -23q-293 0 -419 148.5t-126 441.5q0 146 30 256.5t95.5 184t169 111.5t250.5 38q293 0 420 -149.5t127 -440.5q0 -293 -127 -441.5t-420 -148.5zM645 119q213 0 301 113.5t88 330.5t-88 332t-301 115t-301 -115t-88 -332t88 -330.5t301 -113.5z" />
<glyph unicode="p" horiz-adv-x="1325" d="M156 1122l123 8l14 -135q47 82 150.5 122t297.5 40q142 0 235 -42t148.5 -118.5t78 -186.5t22.5 -243t-22.5 -240.5t-79 -184t-150.5 -118.5t-238 -42q-184 0 -281.5 36.5t-142.5 114.5v-471h-155v1460zM711 123q104 0 172.5 29.5t109.5 87t57.5 138.5t16.5 185 q0 105 -16.5 186.5t-56.5 140t-108.5 89.5t-174.5 31q-107 0 -182.5 -22.5t-124 -75t-71 -138.5t-22.5 -211t21.5 -210t70 -136t124 -72.5t184.5 -21.5z" />
<glyph unicode="q" horiz-adv-x="1325" d="M1014 131q-29 -41 -67 -69.5t-88 -47t-117.5 -26.5t-155.5 -8q-142 0 -235 41.5t-149.5 119.5t-79 186.5t-22.5 241.5t23.5 242t80 185.5t151 118.5t235.5 42q94 0 164.5 -9t123 -27.5t89.5 -47.5t63 -67l29 143l110 -10v-1477h-155v469zM614 123q107 0 182.5 22.5 t124 74.5t71 138t22.5 211t-21.5 210t-70 136.5t-124 73t-184.5 21.5q-104 0 -173.5 -30t-109.5 -87t-56.5 -138t-16.5 -186q0 -104 16.5 -186t56.5 -140.5t109.5 -89t173.5 -30.5z" />
<glyph unicode="r" horiz-adv-x="735" d="M156 1122l123 8l16 -151q33 65 133 114.5t258 51.5v-156q-104 0 -175 -27.5t-116 -79t-64.5 -121t-19.5 -151.5v-610h-155v1122z" />
<glyph unicode="s" horiz-adv-x="1069" d="M532 -20q-112 0 -233 25.5t-238 100.5l82 121q101 -65 204.5 -88.5t193.5 -23.5q75 0 131.5 8t93.5 30.5t55.5 61.5t18.5 98q0 47 -16.5 78t-52.5 51.5t-92 35t-138 30.5q-99 18 -177.5 39.5t-134 57.5t-85 93.5t-29.5 149.5q0 74 22.5 131t73.5 97t132 60.5t198 20.5 q129 0 232.5 -25.5t180.5 -72.5l-73 -127q-66 35 -150 58.5t-188 23.5q-80 0 -133.5 -11.5t-84 -33t-44 -52t-13.5 -69.5q0 -47 16.5 -78t50.5 -52.5t87 -35.5t127 -29q102 -20 184 -40.5t138.5 -55.5t87 -91t30.5 -147q0 -96 -27.5 -161.5t-84 -105.5t-142.5 -56t-203 -16z " />
<glyph unicode="t" horiz-adv-x="831" d="M63 1130h207l27 340l123 23v-363h311v-141h-311v-680q0 -39 5 -70.5t22.5 -54t51 -35t93.5 -12.5h139v-137q-6 0 -29.5 -1t-50.5 -1h-84q-96 0 -154.5 19.5t-91 56.5t-44 91t-11.5 126v698h-203v141z" />
<glyph unicode="u" horiz-adv-x="1257" d="M633 -20q-164 0 -260.5 33.5t-145.5 96t-63 152.5t-14 203v665h153v-669q0 -70 5 -132.5t36 -108.5t98.5 -72.5t190.5 -26.5t188.5 26.5t96 73.5t34.5 110.5t4 137.5v661h152v-659q0 -115 -13.5 -206t-61.5 -154.5t-142 -97t-258 -33.5z" />
<glyph unicode="v" horiz-adv-x="1112" d="M23 1130h163l371 -956l373 956h160l-451 -1140h-166z" />
<glyph unicode="w" horiz-adv-x="1794" d="M31 1130h162l325 -915l305 915h154l303 -913l326 913h157l-407 -1140h-154l-305 907l-305 -907h-154z" />
<glyph unicode="x" horiz-adv-x="1108" d="M78 1130h170l311 -430l305 430h168l-392 -542l427 -588h-174l-346 479l-338 -479h-168l426 591z" />
<glyph unicode="y" horiz-adv-x="1085" d="M23 1130h163l361 -939l356 939h160l-488 -1243q-22 -61 -49.5 -104t-65.5 -70.5t-87 -41t-115 -13.5h-48q-15 0 -28.5 1t-21.5 1v127h88q78 0 115.5 25.5t60.5 91.5l40 104z" />
<glyph unicode="z" horiz-adv-x="1028" d="M68 117l675 872h-641v141h840v-118l-676 -879h699v-133h-897v117z" />
<glyph unicode="{" horiz-adv-x="1022" d="M664 -338q-193 0 -270 65.5t-77 200.5q0 49 17.5 121t39 146.5t39 143.5t17.5 110q0 67 -59.5 87.5t-202.5 20.5v135q135 0 198.5 18.5t63.5 94.5q0 39 -17.5 107.5t-39 143t-39 146.5t-17.5 121q0 135 77 200.5t270 65.5h157v-141h-129q-65 0 -107 -9t-66.5 -29.5 t-34 -50.5t-9.5 -73q-1 -38 17 -104l38 -140l36 -145q18 -72 18 -117q0 -121 -115 -153q61 -21 88 -59t27 -97q0 -47 -18 -117l-36 -145l-38 -141q-18 -68 -17 -105q0 -43 9.5 -73.5t34 -51t66.5 -30t107 -9.5h129v-137h-157z" />
<glyph unicode="|" horiz-adv-x="664" d="M252 1589h158v-1927h-158v1927z" />
<glyph unicode="}" horiz-adv-x="1022" d="M201 -201h131q65 0 107 9.5t65.5 30t33 51t9.5 73.5q1 37 -17 105l-38 141l-36 145q-18 70 -18 117q0 119 115 156q-61 18 -88 57t-27 96q0 45 18 117l36 145l38 140q18 66 17 104q0 43 -9.5 73t-33 50.5t-65.5 29.5t-107 9h-131v141h157q193 0 271 -66.5t78 -199.5 q0 -49 -18.5 -121t-40 -146.5t-39 -143t-17.5 -107.5q0 -70 60.5 -90.5t201.5 -20.5v-135q-135 0 -198.5 -18.5t-63.5 -91.5q0 -41 17.5 -110t39 -143.5t40 -146.5t18.5 -121q0 -133 -78 -199.5t-271 -66.5h-157v137z" />
<glyph unicode="~" horiz-adv-x="1208" d="M211 945q51 64 116.5 108t133.5 44q51 0 88 -15.5t67.5 -34t60.5 -34t68 -15.5q41 0 81 33t79 78l94 -76q-53 -65 -116.5 -115.5t-134.5 -50.5q-48 0 -83.5 15.5t-67.5 35t-64.5 35t-69.5 15.5t-78 -27t-76 -72z" />
<glyph unicode="&#xa1;" horiz-adv-x="733" d="M299 1100h137l17 -1100h-172zM264 1518h207v-226h-207v226z" />
<glyph unicode="&#xa2;" horiz-adv-x="1143" d="M565 1278h148v-128q108 -8 180 -43q94 -46 156 -112l-111 -104q-20 20 -47 41.5t-61.5 38t-81.5 27.5q-22 6 -46 9v-890q63 7 112 28q69 31 134 91l101 -97q-41 -37 -84 -66.5t-91.5 -49t-105.5 -29.5q-26 -4 -55 -7v-180h-148v180q-108 8 -186 38q-103 41 -164 116.5 t-87 184t-26 241.5t26 242t87 185.5t165 117.5q77 30 185 38v128zM459 980q-76 -30 -121 -87t-64.5 -140t-19.5 -190q0 -104 18.5 -187t63.5 -141.5t120 -89.5q50 -20 117 -27v888q-64 -7 -114 -26z" />
<glyph unicode="&#xa3;" horiz-adv-x="1251" d="M72 852h199q-14 56 -26 111q-22 104 -22 188q0 88 22.5 160.5t75 124t137.5 80t208 28.5q118 0 212.5 -19.5t186.5 -58.5l-61 -135q-76 35 -162 50.5t-178 15.5q-84 0 -138.5 -18.5t-88.5 -53.5t-47 -84t-13 -108q0 -74 21 -172l25 -109h470v-131h-439q19 -82 36 -163 q22 -101 22 -183q0 -90 -17 -161l-2 -10q48 -22 104 -40.5t118.5 -29.5t128.5 -11q59 0 95 12t55.5 37t25.5 63.5t6 94.5v49h139v-53q0 -93 -15 -157.5t-52 -105t-98.5 -60t-153.5 -19.5q-78 0 -153 14t-140.5 36.5t-120.5 51.5l-6 3q-45 -42 -122 -65q-83 -24 -216 -24v135 q98 0 153.5 13.5t84 42t36 73.5t7.5 109q0 76 -23 176q-19 84 -41 172h-233v131z" />
<glyph unicode="&#xa5;" horiz-adv-x="1280" d="M135 309h428v172h-428v137h428v35l-530 865h164l444 -730l442 730h164l-530 -862v-38h430v-137h-430v-172h430v-137h-430v-172h-154v172h-428v137z" />
<glyph unicode="&#xa6;" horiz-adv-x="664" d="M252 465h158v-803h-158v803zM252 1589h158v-803h-158v803z" />
<glyph unicode="&#xa7;" horiz-adv-x="1114" d="M459 1180q0 73 10 137.5t45 113t101.5 76t179.5 27.5h68q20 0 35 -1t22 -1v-135h-109q-68 0 -107.5 -16.5t-60 -46t-26 -68.5t-5.5 -84v-122q179 -9 278 -70q114 -70 114 -228t-114 -227q-90 -53 -245 -65v-134q0 -74 -10 -138.5t-45 -112.5t-102.5 -75.5t-180.5 -27.5 h-31q-18 0 -36.5 1t-34.5 1h-21v131h109q67 0 106 16t59.5 46t25.5 69t5 86v136q-171 9 -266 67q-112 69 -112 227t112 228q87 54 236 67v123zM555 578q160 0 238.5 42t78.5 140t-78.5 138t-238.5 40q-158 0 -235.5 -40t-77.5 -138t77.5 -140t235.5 -42z" />
<glyph unicode="&#xa8;" horiz-adv-x="1208" d="M317 1462h144v-209h-144v209zM750 1462h141v-209h-141v209z" />
<glyph unicode="&#xa9;" horiz-adv-x="1704" d="M864 240q-248 0 -376 133t-128 395q0 133 36 232.5t102.5 164t160 96t209.5 31.5q105 0 197 -31.5t160 -95.5l-78 -80q-53 48 -127 74.5t-154 26.5q-186 0 -289.5 -104.5t-103.5 -313.5t101.5 -314.5t293.5 -105.5q111 0 177.5 31t111.5 72l74 -76q-53 -53 -139 -94 t-228 -41zM848 -25q-191 0 -333 57.5t-236.5 162t-141.5 249t-47 316.5t47 316.5t141.5 249t236.5 161.5t333 57q190 0 333.5 -57t239 -161.5t142.5 -249t47 -316.5t-47 -316.5t-142.5 -249t-239 -162t-333.5 -57.5zM848 51q176 0 305 52.5t214 145.5t126 223t41 288 q0 155 -41 286.5t-126 224.5t-214 145t-305 52t-304 -52t-212 -145t-124 -224.5t-40 -286.5q0 -158 40 -288t124 -223t212 -145.5t304 -52.5z" />
<glyph unicode="&#xaa;" horiz-adv-x="1206" d="M453 584q-88 0 -148.5 20.5t-98.5 57t-55.5 88t-17.5 112.5q0 99 37 162t111.5 102t190.5 54.5t276 15.5h47q-2 52 -9 90q-8 47 -32.5 77t-71.5 43t-125 13q-84 0 -155.5 -25.5t-112.5 -52.5l-72 103q47 31 141.5 63.5t208.5 32.5q115 0 185.5 -20.5t108.5 -65.5 t50.5 -114.5t12.5 -168.5v-340q0 -36 3 -58.5t12 -35t28.5 -15.5t52.5 -3v-119q-8 0 -18.5 -1t-28.5 -1q-45 0 -75 5t-49.5 22.5t-29.5 47t-12 79.5q-41 -86 -122 -127t-232 -41zM522 1079q-94 -10 -152.5 -34.5t-84 -67.5t-25.5 -107q0 -82 51 -127t168 -45q160 0 238 77 t78 245v70h-39q-140 0 -234 -11zM219 428h709v-121h-709v121z" />
<glyph unicode="&#xab;" horiz-adv-x="1386" d="M195 563l309 567h139l-299 -567l299 -563h-139zM692 563l309 567h142l-301 -567l301 -563h-142z" />
<glyph unicode="&#xac;" horiz-adv-x="1425" d="M1206 797v-566h-155v418h-834v148h989z" />
<glyph unicode="&#xad;" horiz-adv-x="926" d="M106 702h711v-145h-711v145z" />
<glyph unicode="&#xae;" horiz-adv-x="1704" d="M848 -25q-191 0 -333 57.5t-236.5 162t-141.5 249t-47 316.5t47 316.5t141.5 249t236.5 161.5t333 57q190 0 333.5 -57t239 -161.5t142.5 -249t47 -316.5t-47 -316.5t-142.5 -249t-239 -162t-333.5 -57.5zM848 51q176 0 305 52.5t214 145.5t126 223t41 288 q0 155 -41 286.5t-126 224.5t-214 145t-305 52t-304 -52t-212 -145t-124 -224.5t-40 -286.5q0 -158 40 -288t124 -223t212 -145.5t304 -52.5zM487 1260h435q186 0 260.5 -72t74.5 -221q0 -150 -77 -224q-57 -55 -174 -69l249 -424h-114l-244 420h-303v-420h-107v1010z M922 766q114 0 171.5 42t57.5 157q0 112 -56.5 154t-174.5 42h-326v-395h328z" />
<glyph unicode="&#xaf;" horiz-adv-x="1208" d="M236 1374h737v-133h-737v133z" />
<glyph unicode="&#x304;" horiz-adv-x="1208" d="M236 1374h737v-133h-737v133z" />
<glyph unicode="&#xb0;" horiz-adv-x="1165" d="M582 571q-119 0 -203 36t-138.5 100.5t-79 153.5t-24.5 196q0 106 24.5 195t79 153.5t138.5 100.5t203 36q118 0 202 -36t138.5 -100.5t80 -153.5t25.5 -195q0 -107 -25.5 -196t-80 -153.5t-138.5 -100.5t-202 -36zM582 696q86 0 146 26t97 74t54.5 113.5t17.5 145.5 t-17.5 145.5t-54.5 112.5t-97 72.5t-146 25.5t-145.5 -25.5t-97.5 -72.5t-54.5 -112.5t-16.5 -145.5t16.5 -145.5t54.5 -113.5t97.5 -74t145.5 -26z" />
<glyph unicode="&#xb1;" horiz-adv-x="1425" d="M635 649h-418v148h418v415h153v-415h418v-148h-418v-418h-153v418zM217 180h989v-145h-989v145z" />
<glyph unicode="&#xb2;" horiz-adv-x="903" d="M131 686l293 291q57 55 93 94t57.5 72t29.5 64.5t8 74.5q0 72 -43 105.5t-147 33.5q-76 0 -137.5 -14t-104.5 -37l-55 96q57 29 129 46.5t180 17.5q154 0 228.5 -54.5t74.5 -183.5q0 -55 -12 -99t-40 -86t-70 -87l-99 -102l-219 -222h451v-104h-617v94z" />
<glyph unicode="&#xb3;" horiz-adv-x="944" d="M457 580q-105 0 -183.5 19t-164.5 67l63 94q70 -41 135.5 -57.5t138.5 -16.5q115 0 168.5 38t53.5 146q0 45 -10.5 78t-37 54.5t-73.5 33t-121 11.5h-131v100h127q123 0 170 29.5t47 113.5q0 74 -45 102.5t-150 28.5q-67 0 -133.5 -16t-120.5 -47l-61 94q66 41 154 60.5 t176 19.5q164 0 235.5 -51t71.5 -168q0 -86 -30.5 -136.5t-100.5 -72.5q86 -21 122 -82t36 -164q0 -78 -20.5 -131t-61.5 -86t-104.5 -47t-149.5 -14z" />
<glyph unicode="&#xb4;" horiz-adv-x="1208" d="M756 1569h190l-352 -320h-148z" />
<glyph unicode="&#xb5;" horiz-adv-x="1274" d="M156 471l145 -260v-549h-145v809zM565 -23q-135 0 -216 35t-124 98.5t-56 151.5t-13 193v675h153v-653q0 -78 8 -143.5t38 -112.5t89.5 -73.5t161.5 -26.5q113 0 182.5 29.5t107.5 81t51 121t13 149.5v628h156v-1124l-119 -10l-18 133q-41 -61 -137.5 -106.5 t-276.5 -45.5z" />
<glyph unicode="&#x3bc;" horiz-adv-x="1274" d="M156 471l145 -260v-549h-145v809zM565 -23q-135 0 -216 35t-124 98.5t-56 151.5t-13 193v675h153v-653q0 -78 8 -143.5t38 -112.5t89.5 -73.5t161.5 -26.5q113 0 182.5 29.5t107.5 81t51 121t13 149.5v628h156v-1124l-119 -10l-18 133q-41 -61 -137.5 -106.5 t-276.5 -45.5z" />
<glyph unicode="&#xb6;" horiz-adv-x="1268" d="M928 596h-254v-596h-148v599q-82 7 -145 25q-98 29 -157.5 87.5t-86 146.5t-26.5 207q0 117 26.5 202t87 141t157.5 83t241 27h452v-1518h-147v596zM928 729v645h-307q-97 0 -164.5 -15.5t-109.5 -52t-61.5 -97t-19.5 -150.5t19.5 -153.5t62.5 -102.5t108.5 -56.5 t157.5 -17.5h314z" />
<glyph unicode="&#xb7;" horiz-adv-x="489" d="M141 793h205v-232h-205v232z" />
<glyph unicode="&#x2219;" horiz-adv-x="489" d="M141 793h205v-232h-205v232z" />
<glyph unicode="&#xb8;" horiz-adv-x="1208" d="M621 -461q-78 0 -134.5 16.5t-103.5 43.5l47 86q41 -23 87 -35t97 -12q52 0 83.5 9t49 23.5t23.5 34t6 41.5q0 55 -40 76.5t-152 15.5l-45 33l28 143h101l-19 -106q45 2 89 -1t77 -21.5t53.5 -53.5t20.5 -96q0 -86 -58.5 -141.5t-209.5 -55.5z" />
<glyph unicode="&#xb9;" horiz-adv-x="672" d="M311 1405h-184v113h309v-926h-125v813z" />
<glyph unicode="&#xba;" horiz-adv-x="1212" d="M606 590q-225 0 -332.5 120.5t-107.5 356.5t107.5 355.5t332.5 119.5q441 0 441 -475q0 -236 -109 -356.5t-332 -120.5zM606 711q156 0 231.5 90t75.5 264t-75.5 262t-231.5 88q-157 0 -232 -88t-75 -262t75 -264t232 -90zM221 428h770v-123h-770v123z" />
<glyph unicode="&#xbb;" horiz-adv-x="1386" d="M547 565l-299 565h137l309 -565l-309 -565h-137zM1042 565l-299 565h142l309 -565l-309 -565h-142z" />
<glyph unicode="&#xbc;" horiz-adv-x="1786" d="M1423 217h-454v98l413 615h140l-410 -606h311l23 251h100v-251h154v-107h-154v-217h-123v217zM299 1401h-184v117h313v-930h-129v813zM1208 1518h142l-846 -1518h-142z" />
<glyph unicode="&#xbd;" horiz-adv-x="1925" d="M1151 98l293 289l94 96q37 39 58.5 71t29.5 62.5t8 71.5q0 72 -43 105.5t-147 33.5q-76 0 -137.5 -15t-104.5 -38l-57 103q59 28 131 45.5t180 17.5q154 0 227.5 -55.5t73.5 -184.5q0 -55 -12 -98t-38 -85t-68 -87l-101 -104l-215 -217h432v-109h-604v98zM299 1401h-184 v117h313v-930h-129v813zM1208 1518h142l-846 -1518h-142z" />
<glyph unicode="&#xbe;" horiz-adv-x="1978" d="M426 586q-104 0 -183 20.5t-165 67.5l67 98q72 -41 134.5 -57.5t136.5 -16.5q114 0 166.5 36t52.5 145q0 45 -10.5 76.5t-36 53t-72.5 32t-121 10.5h-129v108h125q125 0 172 29t47 110q0 74 -46 101.5t-150 27.5q-68 0 -133.5 -16t-118.5 -49l-64 98q66 41 153 61.5 t177 20.5q164 0 235.5 -52t71.5 -169q0 -86 -32.5 -135t-100.5 -74q160 -39 160 -246q0 -157 -82 -218.5t-254 -61.5zM1616 217h-453v98l412 615h141l-411 -606h313l22 251h101v-251h151v-107h-151v-217h-125v217zM1403 1518h141l-848 -1518h-139z" />
<glyph unicode="&#xbf;" horiz-adv-x="1360" d="M662 -14q-146 0 -241 23.5t-151.5 68.5t-79 112.5t-22.5 157.5q0 76 18.5 132.5t55.5 100.5t90 80.5t121 73.5q69 39 110 72t61.5 75t22.5 98t-4 144h154q10 -100 6 -170.5t-28.5 -125t-74 -96.5t-129.5 -87q-69 -39 -116 -69.5t-75 -61.5t-40 -67.5t-12 -88.5 q0 -51 11 -93t48 -70.5t104.5 -45t180.5 -16.5q123 0 237.5 27.5t206.5 77.5l68 -136q-49 -26 -111.5 -47.5t-130.5 -37t-139.5 -23.5t-140.5 -8zM618 1528h205v-209h-205v209z" />
<glyph unicode="&#xc0;" horiz-adv-x="1487" d="M659 1528h162l609 -1528h-164l-140 350h-778l-137 -350h-160zM1069 498l-332 835l-334 -835h666zM397 1927h191l309 -320h-148z" />
<glyph unicode="&#xc1;" horiz-adv-x="1487" d="M659 1528h162l609 -1528h-164l-140 350h-778l-137 -350h-160zM1069 498l-332 835l-334 -835h666zM891 1927h190l-352 -320h-148z" />
<glyph unicode="&#xc2;" horiz-adv-x="1487" d="M659 1528h162l609 -1528h-164l-140 350h-778l-137 -350h-160zM1069 498l-332 835l-334 -835h666zM651 1927h174l311 -320h-155l-246 219l-242 -219h-153z" />
<glyph unicode="&#xc3;" horiz-adv-x="1487" d="M659 1528h162l609 -1528h-164l-140 350h-778l-137 -350h-160zM1069 498l-332 835l-334 -835h666zM346 1689q51 64 116.5 108t133.5 44q51 0 88 -15.5t67.5 -34t60.5 -34t68 -15.5q41 0 81 33t79 78l94 -76q-53 -65 -116.5 -115.5t-134.5 -50.5q-48 0 -83.5 15.5t-67.5 35 t-64.5 35t-69.5 15.5t-78 -27t-76 -72z" />
<glyph unicode="&#xc4;" horiz-adv-x="1487" d="M659 1528h162l609 -1528h-164l-140 350h-778l-137 -350h-160zM1069 498l-332 835l-334 -835h666zM452 1820h144v-209h-144v209zM885 1820h141v-209h-141v209z" />
<glyph unicode="&#xc5;" horiz-adv-x="1487" d="M627 1442q-68 28 -98.5 88.5t-30.5 140.5q0 105 57 177.5t186 72.5q125 0 185.5 -72.5t60.5 -177.5q0 -78 -32.5 -139.5t-98.5 -89.5l576 -1442h-162l-140 348h-782l-135 -348h-160zM1073 496l-334 837l-333 -837h667zM741 1511q82 0 118 45.5t36 114.5q0 68 -36 114 t-118 46t-117.5 -46t-35.5 -114q0 -69 35.5 -114.5t117.5 -45.5z" />
<glyph unicode="&#xc6;" horiz-adv-x="2191" d="M995 1518h1071v-154h-843v-502h823v-147h-823v-568h852v-147h-1006v344h-649l-219 -344h-160zM1069 483v889l-567 -889h567z" />
<glyph unicode="&#xc7;" horiz-adv-x="1477" d="M754 -461q-78 0 -134.5 16.5t-103.5 43.5l47 86q41 -23 87 -35t98 -12q51 0 82.5 9t49 23.5t23.5 34t6 41.5q0 55 -40 76.5t-152 15.5l-45 33l22 115q-309 34 -456.5 230t-147.5 544q0 397 197.5 589.5t558.5 192.5q162 0 296 -47t234 -143l-114 -115q-82 74 -187.5 113 t-230.5 39q-592 0 -592 -631q0 -312 144.5 -470.5t449.5 -158.5q86 0 150.5 12.5t114.5 34t89 50t74 59.5l112 -109q-38 -39 -87.5 -74.5t-115 -63.5t-150.5 -44.5t-195 -16.5h-43l-13 -69q45 2 89 -1t77 -21.5t53.5 -53.5t20.5 -96q0 -86 -58.5 -141.5t-209.5 -55.5z" />
<glyph unicode="&#xc8;" horiz-adv-x="1309" d="M178 1518h1004v-154h-842v-502h821v-151h-821v-564h850v-147h-1012v1518zM309 1927h191l309 -320h-148z" />
<glyph unicode="&#xc9;" horiz-adv-x="1309" d="M178 1518h1004v-154h-842v-502h821v-151h-821v-564h850v-147h-1012v1518zM803 1927h190l-352 -320h-148z" />
<glyph unicode="&#xca;" horiz-adv-x="1309" d="M178 1518h1004v-154h-842v-502h821v-151h-821v-564h850v-147h-1012v1518zM563 1927h174l311 -320h-155l-246 219l-242 -219h-153z" />
<glyph unicode="&#xcb;" horiz-adv-x="1309" d="M178 1518h1004v-154h-842v-502h821v-151h-821v-564h850v-147h-1012v1518zM364 1820h144v-209h-144v209zM797 1820h141v-209h-141v209z" />
<glyph unicode="&#xcc;" horiz-adv-x="547" d="M-111 1927h195l268 -319h-149zM195 1518h157v-1518h-157v1518z" />
<glyph unicode="&#xcd;" horiz-adv-x="547" d="M461 1927h194l-311 -319h-149zM195 1518h157v-1518h-157v1518z" />
<glyph unicode="&#xce;" horiz-adv-x="547" d="M188 1927h168l262 -319h-153l-195 223l-194 -223h-152zM195 1518h157v-1518h-157v1518z" />
<glyph unicode="&#xcf;" horiz-adv-x="547" d="M195 1518h157v-1518h-157v1518zM-12 1820h144v-209h-144v209zM421 1820h141v-209h-141v209z" />
<glyph unicode="&#xd0;" horiz-adv-x="1540" d="M0 854h178v664h496q213 0 361.5 -36t240.5 -123t134 -233.5t42 -365.5q0 -215 -46 -360.5t-144.5 -234.5t-251 -127t-363.5 -38h-469v719h-178v135zM653 147q181 0 302.5 33t196.5 104.5t106.5 188.5t31.5 287q0 172 -28.5 287.5t-98 186.5t-188.5 101.5t-299 30.5h-336 v-512h344v-135h-344v-572h313z" />
<glyph unicode="&#xd1;" horiz-adv-x="1595" d="M178 1518h176l908 -1252v1252h155v-1518h-147l-936 1288v-1288h-156v1518zM401 1689q51 64 116.5 108t133.5 44q51 0 88 -15.5t67.5 -34t60.5 -34t68 -15.5q41 0 81 33t79 78l94 -76q-53 -65 -116.5 -115.5t-134.5 -50.5q-48 0 -83.5 15.5t-67.5 35t-64.5 35t-69.5 15.5 t-78 -27t-76 -72z" />
<glyph unicode="&#xd2;" horiz-adv-x="1708" d="M852 -25q-182 0 -323.5 46.5t-238.5 142.5t-148.5 244.5t-51.5 351.5q0 405 198.5 593.5t563.5 188.5q182 0 324.5 -46t241 -142.5t149.5 -243.5t51 -350t-51 -351.5t-149.5 -244.5t-241 -142.5t-324.5 -46.5zM852 125q311 0 457.5 160.5t146.5 472.5q0 309 -146.5 470 t-457.5 161q-309 0 -454.5 -162t-145.5 -469q0 -309 145.5 -471t454.5 -162zM510 1927h191l309 -320h-148z" />
<glyph unicode="&#xd3;" horiz-adv-x="1708" d="M852 -25q-182 0 -323.5 46.5t-238.5 142.5t-148.5 244.5t-51.5 351.5q0 405 198.5 593.5t563.5 188.5q182 0 324.5 -46t241 -142.5t149.5 -243.5t51 -350t-51 -351.5t-149.5 -244.5t-241 -142.5t-324.5 -46.5zM852 125q311 0 457.5 160.5t146.5 472.5q0 309 -146.5 470 t-457.5 161q-309 0 -454.5 -162t-145.5 -469q0 -309 145.5 -471t454.5 -162zM1004 1927h190l-352 -320h-148z" />
<glyph unicode="&#xd4;" horiz-adv-x="1708" d="M852 -25q-182 0 -323.5 46.5t-238.5 142.5t-148.5 244.5t-51.5 351.5q0 405 198.5 593.5t563.5 188.5q182 0 324.5 -46t241 -142.5t149.5 -243.5t51 -350t-51 -351.5t-149.5 -244.5t-241 -142.5t-324.5 -46.5zM852 125q311 0 457.5 160.5t146.5 472.5q0 309 -146.5 470 t-457.5 161q-309 0 -454.5 -162t-145.5 -469q0 -309 145.5 -471t454.5 -162zM764 1927h174l311 -320h-155l-246 219l-242 -219h-153z" />
<glyph unicode="&#xd5;" horiz-adv-x="1708" d="M852 -25q-182 0 -323.5 46.5t-238.5 142.5t-148.5 244.5t-51.5 351.5q0 405 198.5 593.5t563.5 188.5q182 0 324.5 -46t241 -142.5t149.5 -243.5t51 -350t-51 -351.5t-149.5 -244.5t-241 -142.5t-324.5 -46.5zM852 125q311 0 457.5 160.5t146.5 472.5q0 309 -146.5 470 t-457.5 161q-309 0 -454.5 -162t-145.5 -469q0 -309 145.5 -471t454.5 -162zM459 1689q51 64 116.5 108t133.5 44q51 0 88 -15.5t67.5 -34t60.5 -34t68 -15.5q41 0 81 33t79 78l94 -76q-53 -65 -116.5 -115.5t-134.5 -50.5q-48 0 -83.5 15.5t-67.5 35t-64.5 35t-69.5 15.5 t-78 -27t-76 -72z" />
<glyph unicode="&#xd6;" horiz-adv-x="1708" d="M852 -25q-182 0 -323.5 46.5t-238.5 142.5t-148.5 244.5t-51.5 351.5q0 405 198.5 593.5t563.5 188.5q182 0 324.5 -46t241 -142.5t149.5 -243.5t51 -350t-51 -351.5t-149.5 -244.5t-241 -142.5t-324.5 -46.5zM852 125q311 0 457.5 160.5t146.5 472.5q0 309 -146.5 470 t-457.5 161q-309 0 -454.5 -162t-145.5 -469q0 -309 145.5 -471t454.5 -162zM565 1820h144v-209h-144v209zM998 1820h141v-209h-141v209z" />
<glyph unicode="&#xd7;" horiz-adv-x="1425" d="M291 397l325 324l-325 326l96 100l326 -326l323 326l97 -100l-324 -326l324 -324l-97 -98l-323 326l-328 -326z" />
<glyph unicode="&#xd8;" horiz-adv-x="1708" d="M852 -25q-198 0 -345 51l-63 -110h-155l94 168q-56 34 -102 79q-191 189 -191 597q0 405 191.5 593.5t570.5 188.5q183 0 323 -44l60 106h156l-91 -159q70 -39 124 -92q194 -188 194 -593q0 -408 -193.5 -596.5t-572.5 -188.5zM852 121q162 0 277.5 41t189.5 122 t107.5 199.5t33.5 274.5q0 155 -33.5 274t-107.5 199q-43 46 -101 80l-642 -1150q115 -40 276 -40zM852 1393q-162 0 -276.5 -41t-187.5 -121t-106.5 -199t-33.5 -274q0 -312 140 -475q33 -38 77 -68l640 1145q-108 33 -253 33z" />
<glyph unicode="&#xd9;" horiz-adv-x="1593" d="M795 -25q-203 0 -326 47.5t-189.5 126t-89 182t-22.5 216.5v971h162v-953q0 -96 18.5 -177t69.5 -139.5t142 -91t235 -32.5q145 0 237 31.5t145.5 90t73 139.5t19.5 179v953h155v-971q0 -113 -23.5 -216.5t-91 -182t-191.5 -126t-324 -47.5zM452 1927h191l309 -320h-148z " />
<glyph unicode="&#xda;" horiz-adv-x="1593" d="M795 -25q-203 0 -326 47.5t-189.5 126t-89 182t-22.5 216.5v971h162v-953q0 -96 18.5 -177t69.5 -139.5t142 -91t235 -32.5q145 0 237 31.5t145.5 90t73 139.5t19.5 179v953h155v-971q0 -113 -23.5 -216.5t-91 -182t-191.5 -126t-324 -47.5zM946 1927h190l-352 -320h-148 z" />
<glyph unicode="&#xdb;" horiz-adv-x="1593" d="M795 -25q-203 0 -326 47.5t-189.5 126t-89 182t-22.5 216.5v971h162v-953q0 -96 18.5 -177t69.5 -139.5t142 -91t235 -32.5q145 0 237 31.5t145.5 90t73 139.5t19.5 179v953h155v-971q0 -113 -23.5 -216.5t-91 -182t-191.5 -126t-324 -47.5zM706 1927h174l311 -320h-155 l-246 219l-242 -219h-153z" />
<glyph unicode="&#xdc;" horiz-adv-x="1593" d="M795 -25q-203 0 -326 47.5t-189.5 126t-89 182t-22.5 216.5v971h162v-953q0 -96 18.5 -177t69.5 -139.5t142 -91t235 -32.5q145 0 237 31.5t145.5 90t73 139.5t19.5 179v953h155v-971q0 -113 -23.5 -216.5t-91 -182t-191.5 -126t-324 -47.5zM507 1820h144v-209h-144v209z M940 1820h141v-209h-141v209z" />
<glyph unicode="&#xdd;" horiz-adv-x="1434" d="M27 1518h176l516 -783l520 783h166l-608 -924v-594h-160v589zM867 1927h190l-352 -320h-148z" />
<glyph unicode="&#xde;" horiz-adv-x="1446" d="M178 1518h158v-250h508q143 0 240.5 -27t158 -83t87 -142t26.5 -203t-26.5 -207t-86 -149.5t-159 -90t-242.5 -30.5h-506v-336h-158v1518zM846 483q186 0 268 74t82 252q0 90 -19.5 150.5t-62.5 96.5t-110.5 51t-163.5 15h-504v-639h510z" />
<glyph unicode="&#xdf;" horiz-adv-x="1327" d="M156 1112q0 100 25.5 188.5t84 154t155.5 103t243 37.5q245 0 358 -97t113 -296q0 -153 -58.5 -240.5t-163.5 -121.5q172 -31 255 -125t83 -277q0 -102 -21.5 -183t-85 -137.5t-176 -87t-292.5 -30.5h-133v141h129q139 0 223 23.5t129 64.5t59.5 96.5t14.5 120.5 q0 76 -21.5 133.5t-73 95.5t-138.5 56.5t-216 18.5v131q164 0 248 69.5t84 216.5q0 140 -73.5 206.5t-245.5 66.5q-187 0 -270 -90t-83 -244v-1106h-153v1112z" />
<glyph unicode="&#xe0;" d="M487 -20q-118 0 -195 25.5t-122 70.5t-62.5 106.5t-17.5 132.5q0 121 37 201t125 128t232.5 68.5t359.5 20.5h67q-2 61 -9 107q-9 59 -41 97t-92 56.5t-163 18.5q-108 0 -196 -32t-142 -67l-82 121q27 19 72 40.5t101.5 40t122 30.5t136.5 12q144 0 231 -25.5t134 -81 t62.5 -142.5t15.5 -208v-426q0 -45 3 -72.5t14.5 -42t35 -18.5t64.5 -4v-135q-11 -4 -62 -4q-49 0 -82 8t-53 24.5t-31.5 44t-17.5 64.5q-27 -41 -64 -70.5t-90 -49t-124.5 -29.5t-166.5 -10zM549 580q-119 -11 -187.5 -41.5t-95 -81.5t-26.5 -131q0 -52 13 -90.5t44 -66.5 t83 -42t130 -14q215 0 308 95t93 302v82h-59q-184 0 -303 -12zM295 1569h191l309 -320h-148z" />
<glyph unicode="&#xe1;" d="M487 -20q-118 0 -195 25.5t-122 70.5t-62.5 106.5t-17.5 132.5q0 121 37 201t125 128t232.5 68.5t359.5 20.5h67q-2 61 -9 107q-9 59 -41 97t-92 56.5t-163 18.5q-108 0 -196 -32t-142 -67l-82 121q27 19 72 40.5t101.5 40t122 30.5t136.5 12q144 0 231 -25.5t134 -81 t62.5 -142.5t15.5 -208v-426q0 -45 3 -72.5t14.5 -42t35 -18.5t64.5 -4v-135q-11 -4 -62 -4q-49 0 -82 8t-53 24.5t-31.5 44t-17.5 64.5q-27 -41 -64 -70.5t-90 -49t-124.5 -29.5t-166.5 -10zM549 580q-119 -11 -187.5 -41.5t-95 -81.5t-26.5 -131q0 -52 13 -90.5t44 -66.5 t83 -42t130 -14q215 0 308 95t93 302v82h-59q-184 0 -303 -12zM789 1569h190l-352 -320h-148z" />
<glyph unicode="&#xe2;" d="M487 -20q-118 0 -195 25.5t-122 70.5t-62.5 106.5t-17.5 132.5q0 121 37 201t125 128t232.5 68.5t359.5 20.5h67q-2 61 -9 107q-9 59 -41 97t-92 56.5t-163 18.5q-108 0 -196 -32t-142 -67l-82 121q27 19 72 40.5t101.5 40t122 30.5t136.5 12q144 0 231 -25.5t134 -81 t62.5 -142.5t15.5 -208v-426q0 -45 3 -72.5t14.5 -42t35 -18.5t64.5 -4v-135q-11 -4 -62 -4q-49 0 -82 8t-53 24.5t-31.5 44t-17.5 64.5q-27 -41 -64 -70.5t-90 -49t-124.5 -29.5t-166.5 -10zM549 580q-119 -11 -187.5 -41.5t-95 -81.5t-26.5 -131q0 -52 13 -90.5t44 -66.5 t83 -42t130 -14q215 0 308 95t93 302v82h-59q-184 0 -303 -12zM549 1569h174l311 -320h-155l-246 219l-242 -219h-153z" />
<glyph unicode="&#xe3;" d="M487 -20q-118 0 -195 25.5t-122 70.5t-62.5 106.5t-17.5 132.5q0 121 37 201t125 128t232.5 68.5t359.5 20.5h67q-2 61 -9 107q-9 59 -41 97t-92 56.5t-163 18.5q-108 0 -196 -32t-142 -67l-82 121q27 19 72 40.5t101.5 40t122 30.5t136.5 12q144 0 231 -25.5t134 -81 t62.5 -142.5t15.5 -208v-426q0 -45 3 -72.5t14.5 -42t35 -18.5t64.5 -4v-135q-11 -4 -62 -4q-49 0 -82 8t-53 24.5t-31.5 44t-17.5 64.5q-27 -41 -64 -70.5t-90 -49t-124.5 -29.5t-166.5 -10zM549 580q-119 -11 -187.5 -41.5t-95 -81.5t-26.5 -131q0 -52 13 -90.5t44 -66.5 t83 -42t130 -14q215 0 308 95t93 302v82h-59q-184 0 -303 -12zM244 1331q51 64 116.5 108t133.5 44q51 0 88 -15.5t67.5 -34t60.5 -34t68 -15.5q41 0 81 33t79 78l94 -76q-53 -65 -116.5 -115.5t-134.5 -50.5q-48 0 -83.5 15.5t-67.5 35t-64.5 35t-69.5 15.5t-78 -27 t-76 -72z" />
<glyph unicode="&#xe4;" d="M487 -20q-118 0 -195 25.5t-122 70.5t-62.5 106.5t-17.5 132.5q0 121 37 201t125 128t232.5 68.5t359.5 20.5h67q-2 61 -9 107q-9 59 -41 97t-92 56.5t-163 18.5q-108 0 -196 -32t-142 -67l-82 121q27 19 72 40.5t101.5 40t122 30.5t136.5 12q144 0 231 -25.5t134 -81 t62.5 -142.5t15.5 -208v-426q0 -45 3 -72.5t14.5 -42t35 -18.5t64.5 -4v-135q-11 -4 -62 -4q-49 0 -82 8t-53 24.5t-31.5 44t-17.5 64.5q-27 -41 -64 -70.5t-90 -49t-124.5 -29.5t-166.5 -10zM549 580q-119 -11 -187.5 -41.5t-95 -81.5t-26.5 -131q0 -52 13 -90.5t44 -66.5 t83 -42t130 -14q215 0 308 95t93 302v82h-59q-184 0 -303 -12zM350 1462h144v-209h-144v209zM783 1462h141v-209h-141v209z" />
<glyph unicode="&#xe5;" d="M487 -20q-118 0 -195 25.5t-122 70.5t-62.5 106.5t-17.5 132.5q0 121 37 201t125 128t232.5 68.5t359.5 20.5h67q-2 61 -9 107q-9 59 -41 97t-92 56.5t-163 18.5q-108 0 -196 -32t-142 -67l-82 121q27 19 72 40.5t101.5 40t122 30.5t136.5 12q144 0 231 -25.5t134 -81 t62.5 -142.5t15.5 -208v-426q0 -45 3 -72.5t14.5 -42t35 -18.5t64.5 -4v-135q-11 -4 -62 -4q-49 0 -82 8t-53 24.5t-31.5 44t-17.5 64.5q-27 -41 -64 -70.5t-90 -49t-124.5 -29.5t-166.5 -10zM549 580q-119 -11 -187.5 -41.5t-95 -81.5t-26.5 -131q0 -52 13 -90.5t44 -66.5 t83 -42t130 -14q215 0 308 95t93 302v82h-59q-184 0 -303 -12zM637 1227q-129 0 -187.5 71.5t-58.5 180.5q0 108 58.5 181t187.5 73q123 0 183.5 -73t60.5 -181q0 -109 -60.5 -180.5t-183.5 -71.5zM637 1319q80 0 116 46t36 114q0 67 -36 113t-116 46q-84 0 -118.5 -46 t-34.5 -113q0 -68 34.5 -114t118.5 -46z" />
<glyph unicode="&#xe6;" horiz-adv-x="2017" d="M1448 -23q-174 0 -278.5 47.5t-160.5 126.5q-17 25 -30 52q-14 -28 -30 -51q-46 -66 -112.5 -105t-152.5 -53t-195 -14q-200 0 -299.5 77.5t-99.5 257.5q0 121 37 201t125 128t232.5 68.5t359.5 20.5h67q-2 61 -9 107q-9 59 -41 97t-92 56.5t-163 18.5q-108 0 -198.5 -31 t-143.5 -66l-78 119q27 19 72 40.5t101.5 40t122 30.5t136.5 12q144 0 228 -28.5t127 -85.5q21 -28 35 -64l3 4q56 80 158.5 127t270.5 47q174 0 269 -54t139 -143.5t51.5 -206t5.5 -239.5h-852q3 -70 14 -132q14 -83 56 -142.5t120 -93t205 -33.5q70 0 122 8t94 23.5t77 37 t69 45.5l84 -108q-86 -66 -187 -104t-259 -38zM549 580q-119 -11 -187.5 -41.5t-95 -81.5t-26.5 -131q0 -103 57 -158t215 -55q213 0 306 95t93 302v82h-59q-184 0 -303 -12zM1757 655q-4 76 -12 141.5t-40 115t-94.5 78t-172.5 28.5q-121 0 -197 -34t-118 -94.5t-56 -143.5 q-8 -43 -11 -91h701z" />
<glyph unicode="&#xe7;" horiz-adv-x="1153" d="M594 -461q-78 0 -134.5 16.5t-103.5 43.5l47 86q41 -23 87.5 -35t97.5 -12t82.5 9t49 23.5t24 34t6.5 41.5q0 55 -40 76.5t-153 15.5l-45 33l23 115q-127 14 -210 60t-133.5 121t-71 176t-20.5 224q0 135 26 244t87 185.5t166.5 118.5t265.5 42q152 0 249 -48t159 -114 l-113 -106q-41 41 -110.5 80t-184.5 39q-110 0 -185 -30t-120 -87t-64.5 -139t-19.5 -189q0 -104 18.5 -187t63.5 -139.5t119.5 -87t187.5 -30.5q98 0 168 29.5t135 89.5l105 -99q-84 -78 -177.5 -118.5t-234.5 -40.5h-6l-12 -72q45 2 89 -1t76.5 -21.5t53 -53.5t20.5 -96 q0 -86 -58.5 -141.5t-209.5 -55.5z" />
<glyph unicode="&#xe8;" horiz-adv-x="1214" d="M643 -23q-170 0 -276.5 46.5t-166 126t-80 187t-20.5 230.5t22.5 230.5t82 187.5t164 126t268.5 46q170 0 265 -54t139 -143.5t53 -205.5q8 -97 8 -197v-43h-852q3 -70 14 -132q15 -83 56.5 -142.5t118.5 -93t204 -33.5q70 0 123 8t95 23.5t77 37t70 45.5l84 -108 q-84 -66 -188.5 -104t-260.5 -38zM954 655q-4 76 -13 141.5t-40 115t-94.5 78t-173.5 28.5q-121 0 -197 -34t-116.5 -94.5t-55.5 -143.5q-7 -43 -11 -91h701zM262 1569h191l309 -320h-148z" />
<glyph unicode="&#xe9;" horiz-adv-x="1214" d="M643 -23q-170 0 -276.5 46.5t-166 126t-80 187t-20.5 230.5t22.5 230.5t82 187.5t164 126t268.5 46q170 0 265 -54t139 -143.5t53 -205.5q8 -97 8 -197v-43h-852q3 -70 14 -132q15 -83 56.5 -142.5t118.5 -93t204 -33.5q70 0 123 8t95 23.5t77 37t70 45.5l84 -108 q-84 -66 -188.5 -104t-260.5 -38zM954 655q-4 76 -13 141.5t-40 115t-94.5 78t-173.5 28.5q-121 0 -197 -34t-116.5 -94.5t-55.5 -143.5q-7 -43 -11 -91h701zM756 1569h190l-352 -320h-148z" />
<glyph unicode="&#xea;" horiz-adv-x="1214" d="M643 -23q-170 0 -276.5 46.5t-166 126t-80 187t-20.5 230.5t22.5 230.5t82 187.5t164 126t268.5 46q170 0 265 -54t139 -143.5t53 -205.5q8 -97 8 -197v-43h-852q3 -70 14 -132q15 -83 56.5 -142.5t118.5 -93t204 -33.5q70 0 123 8t95 23.5t77 37t70 45.5l84 -108 q-84 -66 -188.5 -104t-260.5 -38zM954 655q-4 76 -13 141.5t-40 115t-94.5 78t-173.5 28.5q-121 0 -197 -34t-116.5 -94.5t-55.5 -143.5q-7 -43 -11 -91h701zM516 1569h174l311 -320h-155l-246 219l-242 -219h-153z" />
<glyph unicode="&#xeb;" horiz-adv-x="1214" d="M643 -23q-170 0 -276.5 46.5t-166 126t-80 187t-20.5 230.5t22.5 230.5t82 187.5t164 126t268.5 46q170 0 265 -54t139 -143.5t53 -205.5q8 -97 8 -197v-43h-852q3 -70 14 -132q15 -83 56.5 -142.5t118.5 -93t204 -33.5q70 0 123 8t95 23.5t77 37t70 45.5l84 -108 q-84 -66 -188.5 -104t-260.5 -38zM954 655q-4 76 -13 141.5t-40 115t-94.5 78t-173.5 28.5q-121 0 -197 -34t-116.5 -94.5t-55.5 -143.5q-7 -43 -11 -91h701zM317 1462h144v-209h-144v209zM750 1462h141v-209h-141v209z" />
<glyph unicode="&#xec;" horiz-adv-x="487" d="M-102 1567h188l233 -318h-145zM166 1130h153v-1130h-153v1130z" />
<glyph unicode="&#xed;" horiz-adv-x="487" d="M401 1567h191l-277 -318h-145zM166 1130h153v-1130h-153v1130z" />
<glyph unicode="&#xee;" horiz-adv-x="487" d="M162 1567h162l241 -318h-151l-172 221l-176 -221h-146zM166 1130h153v-1130h-153v1130z" />
<glyph unicode="&#xef;" horiz-adv-x="487" d="M-14 1485h131v-207h-131v207zM371 1485h131v-207h-131v207zM166 1130h153v-1130h-153v1130z" />
<glyph unicode="&#xf0;" horiz-adv-x="1292" d="M616 1339l167 46q-72 79 -167 157l138 66q92 -72 173 -158q9 -10 17 -20l281 79v-114l-210 -59q27 -43 51 -91q58 -119 92 -279.5t34 -379.5q0 -316 -132 -462.5t-417 -146.5q-147 0 -249.5 38t-168 112t-95.5 180.5t-30 243.5q0 133 27 239.5t87 180t156.5 112.5 t237.5 39q160 0 249 -33.5t142 -99.5q-36 158 -131 291l-9 13l-243 -68v114zM643 119q213 0 302 110.5t89 323.5q0 215 -89 324.5t-302 109.5q-211 0 -299 -108.5t-88 -325.5q0 -215 88 -324.5t299 -109.5z" />
<glyph unicode="&#xf1;" d="M156 1122l123 8l14 -118q18 28 49 55t81 46.5t120.5 31.5t169.5 12q137 0 218 -33.5t123 -95t54 -147.5t12 -191v-690h-155v664q0 75 -7.5 137.5t-37 107.5t-89 70t-163.5 25q-113 0 -182.5 -28t-108.5 -77t-52.5 -116.5t-13.5 -147.5v-635h-155v1122zM240 1331 q51 64 116.5 108t133.5 44q51 0 88 -15.5t67.5 -34t60.5 -34t68 -15.5q41 0 81 33t79 78l94 -76q-53 -65 -116.5 -115.5t-134.5 -50.5q-48 0 -83.5 15.5t-67.5 35t-64.5 35t-69.5 15.5t-78 -27t-76 -72z" />
<glyph unicode="&#xf2;" horiz-adv-x="1292" d="M645 -23q-293 0 -419 148.5t-126 441.5q0 146 30 256.5t95.5 184t169 111.5t250.5 38q293 0 420 -149.5t127 -440.5q0 -293 -127 -441.5t-420 -148.5zM645 119q213 0 301 113.5t88 330.5t-88 332t-301 115t-301 -115t-88 -332t88 -330.5t301 -113.5zM301 1569h191 l309 -320h-148z" />
<glyph unicode="&#xf3;" horiz-adv-x="1292" d="M645 -23q-293 0 -419 148.5t-126 441.5q0 146 30 256.5t95.5 184t169 111.5t250.5 38q293 0 420 -149.5t127 -440.5q0 -293 -127 -441.5t-420 -148.5zM645 119q213 0 301 113.5t88 330.5t-88 332t-301 115t-301 -115t-88 -332t88 -330.5t301 -113.5zM795 1569h190 l-352 -320h-148z" />
<glyph unicode="&#xf4;" horiz-adv-x="1292" d="M645 -23q-293 0 -419 148.5t-126 441.5q0 146 30 256.5t95.5 184t169 111.5t250.5 38q293 0 420 -149.5t127 -440.5q0 -293 -127 -441.5t-420 -148.5zM645 119q213 0 301 113.5t88 330.5t-88 332t-301 115t-301 -115t-88 -332t88 -330.5t301 -113.5zM555 1569h174 l311 -320h-155l-246 219l-242 -219h-153z" />
<glyph unicode="&#xf5;" horiz-adv-x="1292" d="M645 -23q-293 0 -419 148.5t-126 441.5q0 146 30 256.5t95.5 184t169 111.5t250.5 38q293 0 420 -149.5t127 -440.5q0 -293 -127 -441.5t-420 -148.5zM645 119q213 0 301 113.5t88 330.5t-88 332t-301 115t-301 -115t-88 -332t88 -330.5t301 -113.5zM250 1331 q51 64 116.5 108t133.5 44q51 0 88 -15.5t67.5 -34t60.5 -34t68 -15.5q41 0 81 33t79 78l94 -76q-53 -65 -116.5 -115.5t-134.5 -50.5q-48 0 -83.5 15.5t-67.5 35t-64.5 35t-69.5 15.5t-78 -27t-76 -72z" />
<glyph unicode="&#xf6;" horiz-adv-x="1292" d="M645 -23q-293 0 -419 148.5t-126 441.5q0 146 30 256.5t95.5 184t169 111.5t250.5 38q293 0 420 -149.5t127 -440.5q0 -293 -127 -441.5t-420 -148.5zM645 119q213 0 301 113.5t88 330.5t-88 332t-301 115t-301 -115t-88 -332t88 -330.5t301 -113.5zM356 1462h144v-209 h-144v209zM789 1462h141v-209h-141v209z" />
<glyph unicode="&#xf7;" horiz-adv-x="1425" d="M618 412h189v-191h-189v191zM217 797h989v-148h-989v148zM618 1225h189v-191h-189v191z" />
<glyph unicode="&#xf8;" horiz-adv-x="1292" d="M645 -23q-146 0 -249 36l-58 -99h-145l93 157q-35 25 -62 56q-64 74 -94 184.5t-30 255.5q0 146 30 256.5t94.5 184t168 111.5t252.5 38q147 0 250 -38l59 100h144l-91 -158q33 -24 60 -54q66 -73 95.5 -183.5t29.5 -256.5q0 -145 -29.5 -255.5t-95.5 -184.5t-170 -112 t-252 -38zM645 115q215 0 304 114.5t89 333.5t-89 334q-13 17 -29 31l-456 -786q75 -27 181 -27zM645 1012q-108 0 -183 -29t-121 -86t-66.5 -140t-20.5 -194q0 -108 20.5 -192t66.5 -142q12 -15 27 -29l454 785q-74 27 -177 27z" />
<glyph unicode="&#xf9;" horiz-adv-x="1257" d="M633 -20q-164 0 -260.5 33.5t-145.5 96t-63 152.5t-14 203v665h153v-669q0 -70 5 -132.5t36 -108.5t98.5 -72.5t190.5 -26.5t188.5 26.5t96 73.5t34.5 110.5t4 137.5v661h152v-659q0 -115 -13.5 -206t-61.5 -154.5t-142 -97t-258 -33.5zM285 1569h191l309 -320h-148z" />
<glyph unicode="&#xfa;" horiz-adv-x="1257" d="M633 -20q-164 0 -260.5 33.5t-145.5 96t-63 152.5t-14 203v665h153v-669q0 -70 5 -132.5t36 -108.5t98.5 -72.5t190.5 -26.5t188.5 26.5t96 73.5t34.5 110.5t4 137.5v661h152v-659q0 -115 -13.5 -206t-61.5 -154.5t-142 -97t-258 -33.5zM779 1569h190l-352 -320h-148z " />
<glyph unicode="&#xfb;" horiz-adv-x="1257" d="M633 -20q-164 0 -260.5 33.5t-145.5 96t-63 152.5t-14 203v665h153v-669q0 -70 5 -132.5t36 -108.5t98.5 -72.5t190.5 -26.5t188.5 26.5t96 73.5t34.5 110.5t4 137.5v661h152v-659q0 -115 -13.5 -206t-61.5 -154.5t-142 -97t-258 -33.5zM539 1569h174l311 -320h-155 l-246 219l-242 -219h-153z" />
<glyph unicode="&#xfc;" horiz-adv-x="1257" d="M633 -20q-164 0 -260.5 33.5t-145.5 96t-63 152.5t-14 203v665h153v-669q0 -70 5 -132.5t36 -108.5t98.5 -72.5t190.5 -26.5t188.5 26.5t96 73.5t34.5 110.5t4 137.5v661h152v-659q0 -115 -13.5 -206t-61.5 -154.5t-142 -97t-258 -33.5zM340 1462h144v-209h-144v209z M773 1462h141v-209h-141v209z" />
<glyph unicode="&#xfd;" horiz-adv-x="1085" d="M23 1130h163l361 -939l356 939h160l-488 -1243q-22 -61 -49.5 -104t-65.5 -70.5t-87 -41t-115 -13.5h-48q-15 0 -28.5 1t-21.5 1v127h88q78 0 115.5 25.5t60.5 91.5l40 104zM698 1569h190l-352 -320h-148z" />
<glyph unicode="&#xfe;" horiz-adv-x="1325" d="M156 1589h155v-585q47 79 148.5 116t281.5 37q142 0 235 -42t148.5 -118.5t78 -186.5t22.5 -243t-22.5 -240.5t-79 -185.5t-150.5 -119.5t-238 -41.5q-184 0 -281.5 36.5t-142.5 116.5v-471h-155v1927zM711 123q104 0 172.5 29.5t109.5 87t57.5 138.5t16.5 185 q0 105 -16.5 186.5t-56.5 140t-108.5 89.5t-174.5 31q-107 0 -182.5 -22.5t-124 -75t-71 -138.5t-22.5 -211t21.5 -210t70 -136t124 -72.5t184.5 -21.5z" />
<glyph unicode="&#xff;" horiz-adv-x="1085" d="M23 1130h163l361 -939l356 939h160l-488 -1243q-22 -61 -49.5 -104t-65.5 -70.5t-87 -41t-115 -13.5h-48q-15 0 -28.5 1t-21.5 1v127h88q78 0 115.5 25.5t60.5 91.5l40 104zM259 1462h144v-209h-144v209zM692 1462h141v-209h-141v209z" />
<glyph unicode="&#x100;" horiz-adv-x="1487" d="M659 1528h162l609 -1528h-164l-140 350h-778l-137 -350h-160zM1069 498l-332 835l-334 -835h666zM371 1732h737v-133h-737v133z" />
<glyph unicode="&#x101;" d="M487 -20q-118 0 -195 25.5t-122 70.5t-62.5 106.5t-17.5 132.5q0 121 37 201t125 128t232.5 68.5t359.5 20.5h67q-2 61 -9 107q-9 59 -41 97t-92 56.5t-163 18.5q-108 0 -196 -32t-142 -67l-82 121q27 19 72 40.5t101.5 40t122 30.5t136.5 12q144 0 231 -25.5t134 -81 t62.5 -142.5t15.5 -208v-426q0 -45 3 -72.5t14.5 -42t35 -18.5t64.5 -4v-135q-11 -4 -62 -4q-49 0 -82 8t-53 24.5t-31.5 44t-17.5 64.5q-27 -41 -64 -70.5t-90 -49t-124.5 -29.5t-166.5 -10zM549 580q-119 -11 -187.5 -41.5t-95 -81.5t-26.5 -131q0 -52 13 -90.5t44 -66.5 t83 -42t130 -14q215 0 308 95t93 302v82h-59q-184 0 -303 -12zM269 1374h737v-133h-737v133z" />
<glyph unicode="&#x102;" horiz-adv-x="1487" d="M659 1528h162l609 -1528h-164l-140 350h-778l-137 -350h-160zM1069 498l-332 835l-334 -835h666zM739 1587q-102 0 -169.5 24.5t-110.5 65.5t-67 96t-36 117l119 24q8 -40 24.5 -77t46 -63.5t77 -42t116.5 -15.5q70 0 116 15.5t75.5 42t46 63.5t26.5 77l121 -22 q-14 -61 -37.5 -117.5t-67.5 -97.5t-111.5 -65.5t-168.5 -24.5z" />
<glyph unicode="&#x103;" d="M487 -20q-118 0 -195 25.5t-122 70.5t-62.5 106.5t-17.5 132.5q0 121 37 201t125 128t232.5 68.5t359.5 20.5h67q-2 61 -9 107q-9 59 -41 97t-92 56.5t-163 18.5q-108 0 -196 -32t-142 -67l-82 121q27 19 72 40.5t101.5 40t122 30.5t136.5 12q144 0 231 -25.5t134 -81 t62.5 -142.5t15.5 -208v-426q0 -45 3 -72.5t14.5 -42t35 -18.5t64.5 -4v-135q-11 -4 -62 -4q-49 0 -82 8t-53 24.5t-31.5 44t-17.5 64.5q-27 -41 -64 -70.5t-90 -49t-124.5 -29.5t-166.5 -10zM549 580q-119 -11 -187.5 -41.5t-95 -81.5t-26.5 -131q0 -52 13 -90.5t44 -66.5 t83 -42t130 -14q215 0 308 95t93 302v82h-59q-184 0 -303 -12zM637 1229q-102 0 -169.5 24.5t-110.5 65.5t-67 96t-36 117l119 24q8 -40 24.5 -77t46 -63.5t77 -42t116.5 -15.5q70 0 116 15.5t75.5 42t46 63.5t26.5 77l121 -22q-14 -61 -37.5 -117.5t-67.5 -97.5 t-111.5 -65.5t-168.5 -24.5z" />
<glyph unicode="&#x104;" horiz-adv-x="1487" d="M659 1528h162l609 -1528h-52q-188 -109 -188 -219q0 -41 22.5 -74t100.5 -33q45 0 82 8.5t65 18.5l47 -107q-71 -38 -215 -38q-71 0 -117.5 16t-74 44t-38.5 66.5t-11 81.5q0 46 16 86.5t44 74.5t63.5 62.5t74.5 49.5l-123 313h-778l-137 -350h-160zM1069 498l-332 835 l-334 -835h666z" />
<glyph unicode="&#x105;" d="M487 -20q-118 0 -195 25.5t-122 70.5t-62.5 106.5t-17.5 132.5q0 121 37 201t125 128t232.5 68.5t359.5 20.5h67q-2 72 -13 125t-43 87t-91 50.5t-158 16.5q-108 0 -196 -32t-142 -67l-82 121q27 19 72 40.5t101.5 40t122 30.5t136.5 12q144 0 231 -25.5t134 -81 t62.5 -142.5t15.5 -208v-426q0 -45 3 -72.5t14.5 -42t35 -18.5t64.5 -4v-135q-2 0 -2 -2q-101 -55 -154 -109.5t-53 -109.5q0 -21 5 -39t18.5 -33.5t40 -25t69.5 -9.5q45 0 82 8.5t65 18.5l47 -107q-71 -38 -215 -38q-77 0 -125.5 16t-77 44t-39 66.5t-10.5 81.5t17.5 81 t44.5 70t59.5 56.5t61.5 40.5q-37 15 -56 49q-10 17 -15 36.5t-9 41.5q-27 -41 -64 -70.5t-90 -49t-124.5 -29.5t-166.5 -10zM510 113q215 0 308 95t93 302v82h-59q-184 0 -303 -11.5t-187.5 -42t-95 -81.5t-26.5 -131q0 -52 13 -90.5t44 -66.5t83 -42t130 -14z" />
<glyph unicode="&#x106;" horiz-adv-x="1477" d="M838 -23q-383 0 -565.5 199t-182.5 584q0 397 197.5 589.5t558.5 192.5q162 0 296 -47t234 -143l-114 -115q-82 74 -187.5 113t-230.5 39q-592 0 -592 -631q0 -312 144.5 -470.5t449.5 -158.5q86 0 150.5 12.5t114.5 34t89 50t74 59.5l112 -109q-38 -39 -87.5 -74.5 t-115 -63.5t-150.5 -44.5t-195 -16.5zM889 1927h190l-352 -320h-148z" />
<glyph unicode="&#x107;" horiz-adv-x="1153" d="M641 -20q-158 0 -262.5 40.5t-165.5 117.5t-87 185.5t-26 243.5t26 244t87 185.5t166.5 118.5t265.5 42q152 0 249 -48t159 -114l-113 -106q-41 41 -110.5 80t-184.5 39q-110 0 -185 -30t-120 -87t-64.5 -139t-19.5 -189q0 -104 18.5 -187t63.5 -139.5t119.5 -87 t187.5 -30.5q98 0 168 29.5t135 89.5l105 -99q-84 -78 -177.5 -118.5t-234.5 -40.5zM730 1569h190l-352 -320h-148z" />
<glyph unicode="&#x108;" horiz-adv-x="1477" d="M838 -23q-383 0 -565.5 199t-182.5 584q0 397 197.5 589.5t558.5 192.5q162 0 296 -47t234 -143l-114 -115q-82 74 -187.5 113t-230.5 39q-592 0 -592 -631q0 -312 144.5 -470.5t449.5 -158.5q86 0 150.5 12.5t114.5 34t89 50t74 59.5l112 -109q-38 -39 -87.5 -74.5 t-115 -63.5t-150.5 -44.5t-195 -16.5zM709 1927h174l311 -320h-155l-246 219l-242 -219h-153z" />
<glyph unicode="&#x109;" horiz-adv-x="1153" d="M641 -20q-158 0 -262.5 40.5t-165.5 117.5t-87 185.5t-26 243.5t26 244t87 185.5t166.5 118.5t265.5 42q152 0 249 -48t159 -114l-113 -106q-41 41 -110.5 80t-184.5 39q-110 0 -185 -30t-120 -87t-64.5 -139t-19.5 -189q0 -104 18.5 -187t63.5 -139.5t119.5 -87 t187.5 -30.5q98 0 168 29.5t135 89.5l105 -99q-84 -78 -177.5 -118.5t-234.5 -40.5zM509 1569h174l311 -320h-155l-246 219l-242 -219h-153z" />
<glyph unicode="&#x10a;" horiz-adv-x="1477" d="M838 -23q-383 0 -565.5 199t-182.5 584q0 397 197.5 589.5t558.5 192.5q162 0 296 -47t234 -143l-114 -115q-82 74 -187.5 113t-230.5 39q-592 0 -592 -631q0 -312 144.5 -470.5t449.5 -158.5q86 0 150.5 12.5t114.5 34t89 50t74 59.5l112 -109q-38 -39 -87.5 -74.5 t-115 -63.5t-150.5 -44.5t-195 -16.5zM712 1824h156v-219h-156v219z" />
<glyph unicode="&#x10b;" horiz-adv-x="1153" d="M641 -20q-158 0 -262.5 40.5t-165.5 117.5t-87 185.5t-26 243.5t26 244t87 185.5t166.5 118.5t265.5 42q152 0 249 -48t159 -114l-113 -106q-41 41 -110.5 80t-184.5 39q-110 0 -185 -30t-120 -87t-64.5 -139t-19.5 -189q0 -104 18.5 -187t63.5 -139.5t119.5 -87 t187.5 -30.5q98 0 168 29.5t135 89.5l105 -99q-84 -78 -177.5 -118.5t-234.5 -40.5zM532 1466h156v-219h-156v219z" />
<glyph unicode="&#x10c;" horiz-adv-x="1477" d="M838 -23q-383 0 -565.5 199t-182.5 584q0 397 197.5 589.5t558.5 192.5q162 0 296 -47t234 -143l-114 -115q-82 74 -187.5 113t-230.5 39q-592 0 -592 -631q0 -312 144.5 -470.5t449.5 -158.5q86 0 150.5 12.5t114.5 34t89 50t74 59.5l112 -109q-38 -39 -87.5 -74.5 t-115 -63.5t-150.5 -44.5t-195 -16.5zM338 1927h155l246 -219l244 219h151l-311 -320h-174z" />
<glyph unicode="&#x10d;" horiz-adv-x="1153" d="M641 -20q-158 0 -262.5 40.5t-165.5 117.5t-87 185.5t-26 243.5t26 244t87 185.5t166.5 118.5t265.5 42q152 0 249 -48t159 -114l-113 -106q-41 41 -110.5 80t-184.5 39q-110 0 -185 -30t-120 -87t-64.5 -139t-19.5 -189q0 -104 18.5 -187t63.5 -139.5t119.5 -87 t187.5 -30.5q98 0 168 29.5t135 89.5l105 -99q-84 -78 -177.5 -118.5t-234.5 -40.5zM179 1569h155l246 -219l244 219h151l-311 -320h-174z" />
<glyph unicode="&#x10e;" horiz-adv-x="1540" d="M178 1518h496q213 0 361.5 -36t240.5 -123t134 -233.5t42 -365.5q0 -215 -45 -360.5t-142.5 -234.5t-250 -127t-367.5 -38h-469v1518zM653 147q181 0 302.5 33t196.5 104.5t106.5 188.5t31.5 287q0 172 -28.5 287.5t-98 186.5t-188.5 101.5t-299 30.5h-336v-1219h313z M369 1927h155l246 -219l244 219h151l-311 -320h-174z" />
<glyph unicode="&#x10f;" horiz-adv-x="1534" d="M1329 1243q62 35 83.5 63.5t21.5 88.5h-86v194h178v-147q0 -58 -6.5 -98.5t-23.5 -71.5t-48 -54.5t-78 -48.5zM586 -20q-142 0 -235 41.5t-149.5 119.5t-79 187.5t-22.5 242.5q0 131 23.5 240t80 184.5t151 117.5t235.5 42q184 0 281.5 -37t142.5 -114v585h155v-1583 l-120 -10l-19 145q-53 -84 -155.5 -122.5t-288.5 -38.5zM614 123q107 0 182.5 22.5t124 75.5t71 138t22.5 212q0 125 -21.5 209t-70 135.5t-124 73t-184.5 21.5q-104 0 -173.5 -30t-109.5 -86t-56.5 -138t-16.5 -185q0 -104 16.5 -187t56.5 -141.5t109.5 -89t173.5 -30.5z " />
<glyph unicode="&#x110;" horiz-adv-x="1540" d="M0 854h178v664h496q213 0 361.5 -36t240.5 -123t134 -233.5t42 -365.5q0 -215 -46 -360.5t-144.5 -234.5t-251 -127t-363.5 -38h-469v719h-178v135zM653 147q181 0 302.5 33t196.5 104.5t106.5 188.5t31.5 287q0 172 -28.5 287.5t-98 186.5t-188.5 101.5t-299 30.5h-336 v-512h344v-135h-344v-572h313z" />
<glyph unicode="&#x111;" horiz-adv-x="1325" d="M674 1413h651v-137h-651v137zM586 -20q-142 0 -235 41.5t-149.5 119.5t-79 187.5t-22.5 242.5q0 131 23.5 240t80 184.5t151 117.5t235.5 42q184 0 281.5 -37t142.5 -114v585h155v-1583l-120 -10l-19 145q-53 -84 -155.5 -122.5t-288.5 -38.5zM614 123q107 0 182.5 22.5 t124 75.5t71 138t22.5 212q0 125 -21.5 209t-70 135.5t-124 73t-184.5 21.5q-104 0 -173.5 -30t-109.5 -86t-56.5 -138t-16.5 -185q0 -104 16.5 -187t56.5 -141.5t109.5 -89t173.5 -30.5z" />
<glyph unicode="&#x112;" horiz-adv-x="1309" d="M178 1518h1004v-154h-842v-502h821v-151h-821v-564h850v-147h-1012v1518zM283 1732h737v-133h-737v133z" />
<glyph unicode="&#x113;" horiz-adv-x="1214" d="M643 -23q-170 0 -276.5 46.5t-166 126t-80 187t-20.5 230.5t22.5 230.5t82 187.5t164 126t268.5 46q170 0 265 -54t139 -143.5t53 -205.5q8 -97 8 -197v-43h-852q3 -70 14 -132q15 -83 56.5 -142.5t118.5 -93t204 -33.5q70 0 123 8t95 23.5t77 37t70 45.5l84 -108 q-84 -66 -188.5 -104t-260.5 -38zM954 655q-4 76 -13 141.5t-40 115t-94.5 78t-173.5 28.5q-121 0 -197 -34t-116.5 -94.5t-55.5 -143.5q-7 -43 -11 -91h701zM236 1374h737v-133h-737v133z" />
<glyph unicode="&#x114;" horiz-adv-x="1309" d="M178 1518h1004v-154h-842v-502h821v-151h-821v-564h850v-147h-1012v1518zM653 1587q-102 0 -169.5 24.5t-110.5 65.5t-67 96t-36 117l119 24q8 -40 24.5 -77t46 -63.5t77 -42t116.5 -15.5q70 0 116 15.5t75.5 42t46 63.5t26.5 77l121 -22q-14 -61 -37.5 -117.5 t-67.5 -97.5t-111.5 -65.5t-168.5 -24.5z" />
<glyph unicode="&#x115;" horiz-adv-x="1214" d="M643 -23q-170 0 -276.5 46.5t-166 126t-80 187t-20.5 230.5t22.5 230.5t82 187.5t164 126t268.5 46q170 0 265 -54t139 -143.5t53 -205.5q8 -97 8 -197v-43h-852q3 -70 14 -132q15 -83 56.5 -142.5t118.5 -93t204 -33.5q70 0 123 8t95 23.5t77 37t70 45.5l84 -108 q-84 -66 -188.5 -104t-260.5 -38zM954 655q-4 76 -13 141.5t-40 115t-94.5 78t-173.5 28.5q-121 0 -197 -34t-116.5 -94.5t-55.5 -143.5q-7 -43 -11 -91h701zM606 1229q-102 0 -169.5 24.5t-110.5 65.5t-67 96t-36 117l119 24q8 -40 24.5 -77t46 -63.5t77 -42t116.5 -15.5 q70 0 116 15.5t75.5 42t46 63.5t26.5 77l121 -22q-14 -61 -37.5 -117.5t-67.5 -97.5t-111.5 -65.5t-168.5 -24.5z" />
<glyph unicode="&#x116;" horiz-adv-x="1309" d="M178 1518h1004v-154h-842v-502h821v-151h-821v-564h850v-147h-1012v1518zM573 1824h156v-219h-156v219z" />
<glyph unicode="&#x117;" horiz-adv-x="1214" d="M643 -23q-170 0 -276.5 46.5t-166 126t-80 187t-20.5 230.5t22.5 230.5t82 187.5t164 126t268.5 46q170 0 265 -54t139 -143.5t53 -205.5q8 -97 8 -197v-43h-852q3 -70 14 -132q15 -83 56.5 -142.5t118.5 -93t204 -33.5q70 0 123 8t95 23.5t77 37t70 45.5l84 -108 q-84 -66 -188.5 -104t-260.5 -38zM954 655q-4 76 -13 141.5t-40 115t-94.5 78t-173.5 28.5q-121 0 -197 -34t-116.5 -94.5t-55.5 -143.5q-7 -43 -11 -91h701zM526 1466h156v-219h-156v219z" />
<glyph unicode="&#x118;" horiz-adv-x="1309" d="M178 1518h1004v-154h-842v-502h821v-151h-821v-564h850v-147h-162q-86 -53 -133 -110.5t-47 -110.5q0 -21 5 -39.5t18.5 -32.5t40 -23.5t69.5 -9.5q51 0 99 12.5t77 26.5l47 -106q-43 -23 -108.5 -37t-134.5 -14q-78 0 -126.5 15t-77 43t-38.5 65.5t-10 80.5q0 39 15 75 t37.5 66.5t51.5 55.5t57 43h-692v1518z" />
<glyph unicode="&#x119;" horiz-adv-x="1214" d="M643 -23q-170 0 -276.5 46.5t-166 126t-80 187t-20.5 230.5t22.5 230.5t82 187.5t164 126t268.5 46q170 0 265 -54t139 -143.5t53.5 -206t7.5 -239.5h-852q2 -90 20.5 -164t61.5 -126t117.5 -81.5t193.5 -29.5q70 0 123 8t95 23.5t77 37t70 45.5l84 -108 q-43 -33 -88.5 -58.5t-98.5 -44.5h2q-100 -57 -154.5 -119.5t-54.5 -117.5q0 -21 5.5 -39.5t18.5 -32.5t39.5 -23.5t69.5 -9.5q52 0 100 12.5t77 26.5l47 -106q-43 -23 -108.5 -37t-135.5 -14q-78 0 -126 15t-76.5 43t-39 65.5t-10.5 80.5q0 70 41 125.5t90 94.5 q-12 -3 -24 -3h-23zM633 1018q-107 0 -177.5 -26.5t-113.5 -74t-63.5 -114t-26.5 -148.5h702q-4 76 -13 141.5t-40 115t-94.5 78t-173.5 28.5z" />
<glyph unicode="&#x11a;" horiz-adv-x="1309" d="M178 1518h1004v-154h-842v-502h821v-151h-821v-564h850v-147h-1012v1518zM252 1927h155l246 -219l244 219h151l-311 -320h-174z" />
<glyph unicode="&#x11b;" horiz-adv-x="1214" d="M643 -23q-170 0 -276.5 46.5t-166 126t-80 187t-20.5 230.5t22.5 230.5t82 187.5t164 126t268.5 46q170 0 265 -54t139 -143.5t53 -205.5q8 -97 8 -197v-43h-852q3 -70 14 -132q15 -83 56.5 -142.5t118.5 -93t204 -33.5q70 0 123 8t95 23.5t77 37t70 45.5l84 -108 q-84 -66 -188.5 -104t-260.5 -38zM954 655q-4 76 -13 141.5t-40 115t-94.5 78t-173.5 28.5q-121 0 -197 -34t-116.5 -94.5t-55.5 -143.5q-7 -43 -11 -91h701zM205 1569h155l246 -219l244 219h151l-311 -320h-174z" />
<glyph unicode="&#x11c;" horiz-adv-x="1591" d="M836 -23q-203 0 -344.5 49.5t-230.5 147.5t-130 244.5t-41 341.5q0 205 50 353.5t145.5 243.5t236 140t322.5 45q108 0 194 -16.5t154 -43t118 -60t87 -68.5l-115 -117q-72 63 -174 107.5t-264 44.5q-299 0 -446.5 -154t-147.5 -477q0 -162 32.5 -282t103.5 -198.5 t183.5 -117.5t272.5 -39q153 0 249.5 32.5t151.5 96t75.5 159t20.5 222.5v49h-512v149h672v-172q0 -153 -25.5 -279t-97 -215t-202 -137.5t-338.5 -48.5zM709 1927h174l311 -320h-155l-246 219l-242 -219h-153z" />
<glyph unicode="&#x11d;" horiz-adv-x="1223" d="M590 414q-112 0 -196 18q-11 -13 -20 -28q-16 -27 -16 -56q0 -26 11.5 -43.5t38 -27t72.5 -12.5t116 -3q154 0 257 -12t167.5 -45t92.5 -89.5t28 -142.5t-29 -150.5t-94.5 -106.5t-172 -62.5t-261.5 -20.5q-135 0 -234.5 12.5t-163 44t-94.5 86t-31 140.5q0 49 10.5 94 t36 82t68.5 64.5t109 40.5q-35 16 -53.5 51t-18.5 82q0 57 25 107q13 24 29 44q-16 10 -30 21q-110 88 -110 276q0 193 109.5 286t353.5 93q55 0 110 -5l394 46v-129h-189q63 -34 100 -87q52 -73 52 -204q0 -188 -113 -276t-354 -88zM590 549q170 0 241.5 54t71.5 175 q0 123 -80 178.5t-233 55.5q-168 0 -239.5 -55.5t-71.5 -178.5q0 -121 71.5 -175t239.5 -54zM588 -238q121 0 197.5 13.5t120.5 38t60.5 62.5t16.5 87q0 51 -20.5 83t-66.5 50.5t-122 24.5t-186 6q-123 0 -196 -15.5t-111.5 -41t-51 -59.5t-12.5 -72q0 -103 89 -140t282 -37 zM516 1587h174l311 -320h-155l-246 219l-242 -219h-153z" />
<glyph unicode="&#x11e;" horiz-adv-x="1591" d="M836 -23q-203 0 -344.5 49.5t-230.5 147.5t-130 244.5t-41 341.5q0 205 50 353.5t145.5 243.5t236 140t322.5 45q108 0 194 -16.5t154 -43t118 -60t87 -68.5l-115 -117q-72 63 -174 107.5t-264 44.5q-299 0 -446.5 -154t-147.5 -477q0 -162 32.5 -282t103.5 -198.5 t183.5 -117.5t272.5 -39q153 0 249.5 32.5t151.5 96t75.5 159t20.5 222.5v49h-512v149h672v-172q0 -153 -25.5 -279t-97 -215t-202 -137.5t-338.5 -48.5zM794 1587q-102 0 -169.5 24.5t-110.5 65.5t-67 96t-36 117l119 24q8 -40 24.5 -77t46 -63.5t77 -42t116.5 -15.5 q70 0 116 15.5t75.5 42t46 63.5t26.5 77l121 -22q-14 -61 -37.5 -117.5t-67.5 -97.5t-111.5 -65.5t-168.5 -24.5z" />
<glyph unicode="&#x11f;" horiz-adv-x="1223" d="M590 414q-112 0 -196 18q-11 -13 -20 -28q-16 -27 -16 -56q0 -26 11.5 -43.5t38 -27t72.5 -12.5t116 -3q154 0 257 -12t167.5 -45t92.5 -89.5t28 -142.5t-29 -150.5t-94.5 -106.5t-172 -62.5t-261.5 -20.5q-135 0 -234.5 12.5t-163 44t-94.5 86t-31 140.5q0 49 10.5 94 t36 82t68.5 64.5t109 40.5q-35 16 -53.5 51t-18.5 82q0 57 25 107q13 24 29 44q-16 10 -30 21q-110 88 -110 276q0 193 109.5 286t353.5 93q55 0 110 -5l394 46v-129h-189q63 -34 100 -87q52 -73 52 -204q0 -188 -113 -276t-354 -88zM590 549q170 0 241.5 54t71.5 175 q0 123 -80 178.5t-233 55.5q-168 0 -239.5 -55.5t-71.5 -178.5q0 -121 71.5 -175t239.5 -54zM588 -238q121 0 197.5 13.5t120.5 38t60.5 62.5t16.5 87q0 51 -20.5 83t-66.5 50.5t-122 24.5t-186 6q-123 0 -196 -15.5t-111.5 -41t-51 -59.5t-12.5 -72q0 -103 89 -140t282 -37 zM608 1229q-102 0 -169.5 24.5t-110.5 65.5t-67 96t-36 117l119 24q8 -40 24.5 -77t46 -63.5t77 -42t116.5 -15.5q70 0 116 15.5t75.5 42t46 63.5t26.5 77l121 -22q-14 -61 -37.5 -117.5t-67.5 -97.5t-111.5 -65.5t-168.5 -24.5z" />
<glyph unicode="&#x120;" horiz-adv-x="1591" d="M836 -23q-203 0 -344.5 49.5t-230.5 147.5t-130 244.5t-41 341.5q0 205 50 353.5t145.5 243.5t236 140t322.5 45q108 0 194 -16.5t154 -43t118 -60t87 -68.5l-115 -117q-72 63 -174 107.5t-264 44.5q-299 0 -446.5 -154t-147.5 -477q0 -162 32.5 -282t103.5 -198.5 t183.5 -117.5t272.5 -39q153 0 249.5 32.5t151.5 96t75.5 159t20.5 222.5v49h-512v149h672v-172q0 -153 -25.5 -279t-97 -215t-202 -137.5t-338.5 -48.5zM721 1824h156v-219h-156v219z" />
<glyph unicode="&#x121;" horiz-adv-x="1223" d="M590 414q-112 0 -196 18q-11 -13 -20 -28q-16 -27 -16 -56q0 -26 11.5 -43.5t38 -27t72.5 -12.5t116 -3q154 0 257 -12t167.5 -45t92.5 -89.5t28 -142.5t-29 -150.5t-94.5 -106.5t-172 -62.5t-261.5 -20.5q-135 0 -234.5 12.5t-163 44t-94.5 86t-31 140.5q0 49 10.5 94 t36 82t68.5 64.5t109 40.5q-35 16 -53.5 51t-18.5 82q0 57 25 107q13 24 29 44q-16 10 -30 21q-110 88 -110 276q0 193 109.5 286t353.5 93q55 0 110 -5l394 46v-129h-189q63 -34 100 -87q52 -73 52 -204q0 -188 -113 -276t-354 -88zM590 549q170 0 241.5 54t71.5 175 q0 123 -80 178.5t-233 55.5q-168 0 -239.5 -55.5t-71.5 -178.5q0 -121 71.5 -175t239.5 -54zM588 -238q121 0 197.5 13.5t120.5 38t60.5 62.5t16.5 87q0 51 -20.5 83t-66.5 50.5t-122 24.5t-186 6q-123 0 -196 -15.5t-111.5 -41t-51 -59.5t-12.5 -72q0 -103 89 -140t282 -37 zM532 1466h156v-219h-156v219z" />
<glyph unicode="&#x122;" horiz-adv-x="1591" d="M836 -23q-203 0 -344.5 49.5t-230.5 147.5t-130 244.5t-41 341.5q0 205 50 353.5t145.5 243.5t236 140t322.5 45q108 0 194 -16.5t154 -43t118 -60t87 -68.5l-115 -117q-72 63 -174 107.5t-264 44.5q-299 0 -446.5 -154t-147.5 -477q0 -162 32.5 -282t103.5 -198.5 t183.5 -117.5t272.5 -39q153 0 249.5 32.5t151.5 96t75.5 159t20.5 222.5v49h-512v149h672v-172q0 -153 -25.5 -279t-97 -215t-202 -137.5t-338.5 -48.5zM690 -428q31 16 51.5 31.5t33 33t16.5 39t4 50.5h-92v194h186v-149q0 -58 -7 -98t-24.5 -70.5t-48.5 -54t-78 -48.5z " />
<glyph unicode="&#x123;" horiz-adv-x="1223" d="M590 414q-112 0 -196 18q-11 -13 -20 -28q-16 -27 -16 -56q0 -26 11.5 -43.5t38 -27t72.5 -12.5t116 -3q154 0 257 -12t167.5 -45t92.5 -89.5t28 -142.5t-29 -150.5t-94.5 -106.5t-172 -62.5t-261.5 -20.5q-135 0 -234.5 12.5t-163 44t-94.5 86t-31 140.5q0 49 10.5 94 t36 82t68.5 64.5t109 40.5q-35 16 -53.5 51t-18.5 82q0 57 25 107q13 24 29 44q-16 10 -30 21q-110 88 -110 276q0 193 109.5 286t353.5 93q55 0 110 -5l394 46v-129h-189q63 -34 100 -87q52 -73 52 -204q0 -188 -113 -276t-354 -88zM590 549q170 0 241.5 54t71.5 175 q0 123 -80 178.5t-233 55.5q-168 0 -239.5 -55.5t-71.5 -178.5q0 -121 71.5 -175t239.5 -54zM588 -238q121 0 197.5 13.5t120.5 38t60.5 62.5t16.5 87q0 51 -20.5 83t-66.5 50.5t-122 24.5t-186 6q-123 0 -196 -15.5t-111.5 -41t-51 -59.5t-12.5 -72q0 -103 89 -140t282 -37 zM517 1384q0 58 7 99t24.5 71.5t48 54t77.5 48.5l41 -74q-31 -16 -51 -31.5t-32.5 -32t-16.5 -38t-4 -51.5h92v-183h-186v137z" />
<glyph unicode="&#x124;" horiz-adv-x="1591" d="M178 1518h162v-648h911v648h160v-1518h-160v713h-911v-713h-162v1518zM704 1927h174l311 -320h-155l-246 219l-242 -219h-153z" />
<glyph unicode="&#x125;" d="M156 1589h155v-571q17 29 45.5 54.5t76.5 44t116.5 29.5t163.5 11q137 0 218 -33.5t123 -95t54 -147.5t12 -191v-690h-155v664q0 75 -7.5 137.5t-37 107.5t-89 70t-163.5 25q-113 0 -182.5 -28t-108.5 -77t-52.5 -116.5t-13.5 -147.5v-635h-155v1589zM148 1940h174 l311 -320h-155l-246 219l-242 -219h-153z" />
<glyph unicode="&#x126;" horiz-adv-x="1591" d="M41 1247h1507v-127h-1507v127zM178 1518h162v-648h911v648h160v-1518h-160v713h-911v-713h-162v1518z" />
<glyph unicode="&#x127;" d="M649 1292h-649v113h649v-113zM156 1589h155v-571q17 29 45.5 54.5t76.5 44t116.5 29.5t163.5 11q137 0 218 -33.5t123 -95t54 -147.5t12 -191v-690h-155v664q0 75 -7.5 137.5t-37 107.5t-89 70t-163.5 25q-113 0 -182.5 -28t-108.5 -77t-52.5 -116.5t-13.5 -147.5v-635 h-155v1589z" />
<glyph unicode="&#x128;" horiz-adv-x="547" d="M195 1518h157v-1518h-157v1518zM-120 1689q51 64 116.5 108t133.5 44q51 0 88 -15.5t67.5 -34t60.5 -34t68 -15.5q41 0 81 33t79 78l94 -76q-53 -65 -116.5 -115.5t-134.5 -50.5q-48 0 -83.5 15.5t-67.5 35t-64.5 35t-69.5 15.5t-78 -27t-76 -72z" />
<glyph unicode="&#x129;" horiz-adv-x="487" d="M166 1130h153v-1130h-153v1130zM-148 1331q51 64 116.5 108t133.5 44q51 0 88 -15.5t67.5 -34t60.5 -34t68 -15.5q41 0 81 33t79 78l94 -76q-53 -65 -116.5 -115.5t-134.5 -50.5q-48 0 -83.5 15.5t-67.5 35t-64.5 35t-69.5 15.5t-78 -27t-76 -72z" />
<glyph unicode="&#x12a;" horiz-adv-x="547" d="M195 1518h157v-1518h-157v1518zM-93 1732h737v-133h-737v133z" />
<glyph unicode="&#x12b;" horiz-adv-x="487" d="M166 1130h153v-1130h-153v1130zM-121 1374h737v-133h-737v133z" />
<glyph unicode="&#x12c;" horiz-adv-x="547" d="M195 1518h157v-1518h-157v1518zM275 1587q-102 0 -169.5 24.5t-110.5 65.5t-67 96t-36 117l119 24q8 -40 24.5 -77t46 -63.5t77 -42t116.5 -15.5q70 0 116 15.5t75.5 42t46 63.5t26.5 77l121 -22q-14 -61 -37.5 -117.5t-67.5 -97.5t-111.5 -65.5t-168.5 -24.5z" />
<glyph unicode="&#x12d;" horiz-adv-x="487" d="M166 1130h153v-1130h-153v1130zM247 1229q-102 0 -169.5 24.5t-110.5 65.5t-67 96t-36 117l119 24q8 -40 24.5 -77t46 -63.5t77 -42t116.5 -15.5q70 0 116 15.5t75.5 42t46 63.5t26.5 77l121 -22q-14 -61 -37.5 -117.5t-67.5 -97.5t-111.5 -65.5t-168.5 -24.5z" />
<glyph unicode="&#x12e;" horiz-adv-x="547" d="M256 -444q-72 0 -118 16t-73.5 44t-39 66.5t-11.5 81.5q0 86 54.5 153t126.5 110v1491h157v-1518q-106 -57 -152 -110.5t-46 -108.5q0 -41 22.5 -74t99.5 -33q46 0 82.5 8.5t65.5 18.5l47 -107q-72 -38 -215 -38z" />
<glyph unicode="&#x12f;" horiz-adv-x="487" d="M223 -444q-71 0 -117.5 16t-74 44t-38.5 66.5t-11 81.5q0 86 55 155t129 110v1101h153v-1130q-198 -113 -198 -219q0 -41 22.5 -74t100.5 -33q45 0 81.5 8.5t65.5 18.5l47 -107q-71 -38 -215 -38zM166 1501h156v-221h-156v221z" />
<glyph unicode="&#x130;" horiz-adv-x="547" d="M195 1518h157v-1518h-157v1518zM197 1824h156v-219h-156v219z" />
<glyph unicode="&#x131;" horiz-adv-x="487" d="M166 1130h153v-1130h-153v1130z" />
<glyph unicode="&#x132;" horiz-adv-x="1364" d="M760 -2h-82q-29 0 -72 2v147h138q161 0 227 69t66 218v1084h157v-1090q0 -233 -109.5 -331.5t-324.5 -98.5zM195 1518h157v-1518h-157v1518z" />
<glyph unicode="&#x133;" horiz-adv-x="975" d="M489 -213h12q50 0 78.5 9t45 28.5t21.5 53.5t5 85v1167h153v-1167q0 -86 -11 -144.5t-44 -94t-89 -51t-144 -15.5h-27v129zM651 1501h156v-221h-156v221zM166 1130h153v-1130h-153v1130zM166 1501h156v-221h-156v221z" />
<glyph unicode="&#x134;" horiz-adv-x="819" d="M215 -2h-82q-29 0 -72 2v147h138q161 0 227 69t66 218v1084h157v-1090q0 -233 -109.5 -331.5t-324.5 -98.5zM484 1927h174l311 -320h-155l-246 219l-242 -219h-153z" />
<glyph unicode="&#x135;" horiz-adv-x="487" d="M4 -217h12q50 0 78.5 8t45 28.5t21.5 54.5t5 83v1171h153v-1169q0 -84 -11 -142.5t-44 -93t-89 -50t-144 -15.5h-27v125zM160 1569h174l311 -320h-155l-246 219l-242 -219h-153z" />
<glyph unicode="&#x136;" horiz-adv-x="1442" d="M178 1518h158v-838l768 838h186l-545 -597l619 -921h-182l-543 805l-303 -332v-473h-158v1518zM614 -428q31 16 51.5 31.5t33 33t16.5 39t4 50.5h-92v194h186v-149q0 -58 -7 -98t-24.5 -70.5t-48.5 -54t-78 -48.5z" />
<glyph unicode="&#x137;" horiz-adv-x="1110" d="M156 1589h153v-1081l545 622h172l-409 -473l452 -657h-172l-382 546l-206 -233v-313h-153v1589zM446 -428q31 16 51.5 31.5t33 33t16.5 39t4 50.5h-92v194h186v-149q0 -58 -7 -98t-24.5 -70.5t-48.5 -54t-78 -48.5z" />
<glyph unicode="&#x138;" horiz-adv-x="1110" d="M156 1130h153v-622l545 622h172l-409 -473l452 -657h-172l-382 546l-206 -233v-313h-153v1130z" />
<glyph unicode="&#x139;" horiz-adv-x="1202" d="M178 1518h162v-1371h807v-147h-969v1518zM503 1927h190l-352 -320h-148z" />
<glyph unicode="&#x13a;" horiz-adv-x="598" d="M401 -2q-69 0 -114 15.5t-72 48t-38 85t-11 123.5v1319h153v-1302q0 -41 4.5 -70t17.5 -46t40 -25.5t70 -8.5h49v-135q-13 -2 -39.5 -3t-59.5 -1zM476 1979h190l-352 -320h-148z" />
<glyph unicode="&#x13b;" horiz-adv-x="1202" d="M178 1518h162v-1371h807v-147h-969v1518zM493 -428q31 16 51.5 31.5t33 33t16.5 39t4 50.5h-92v194h186v-149q0 -58 -7 -98t-24.5 -70.5t-48.5 -54t-78 -48.5z" />
<glyph unicode="&#x13c;" horiz-adv-x="598" d="M401 -2q-69 0 -114 15.5t-72 48t-38 85t-11 123.5v1319h153v-1302q0 -41 4.5 -70t17.5 -46t40 -25.5t70 -8.5h49v-135q-13 -2 -39.5 -3t-59.5 -1zM192 -428q31 16 51.5 31.5t33 33t16.5 39t4 50.5h-92v194h186v-149q0 -58 -7 -98t-24.5 -70.5t-48.5 -54t-78 -48.5z" />
<glyph unicode="&#x13d;" horiz-adv-x="1202" d="M547 1243q61 35 82.5 63.5t21.5 88.5h-88v194h180v-147q0 -58 -6 -98.5t-23.5 -71.5t-48 -54.5t-77.5 -48.5zM178 1518h162v-1371h807v-147h-969v1518z" />
<glyph unicode="&#x13e;" horiz-adv-x="696" d="M492 1243q61 35 82.5 63.5t21.5 88.5h-88v194h180v-147q0 -58 -6 -98.5t-23.5 -71.5t-48 -54.5t-78.5 -48.5zM401 -2q-69 0 -114 15.5t-72 48t-38 85t-11 123.5v1319h153v-1302q0 -41 4.5 -70t17.5 -46t40 -25.5t70 -8.5h49v-135q-13 -2 -39.5 -3t-59.5 -1z" />
<glyph unicode="&#x13f;" horiz-adv-x="1268" d="M178 1518h162v-1371h807v-147h-969v1518zM792 891h205v-232h-205v232z" />
<glyph unicode="&#x140;" horiz-adv-x="1004" d="M401 -2q-69 0 -114 15.5t-72 48t-38 85t-11 123.5v1319h153v-1302q0 -41 4.5 -70t17.5 -46t40 -25.5t70 -8.5h49v-135q-13 -2 -39.5 -3t-59.5 -1zM645 793h205v-232h-205v232z" />
<glyph unicode="&#x141;" horiz-adv-x="1202" d="M0 766l178 99v653h162v-562l342 191v-139l-342 -191v-670h807v-147h-969v726l-178 -99v139z" />
<glyph unicode="&#x142;" horiz-adv-x="723" d="M45 932l205 119v538h156v-448l229 133v-135l-229 -132v-724q0 -43 4 -72t17 -46.5t39 -24.5t69 -7h49v-131q-13 -2 -38.5 -3t-60.5 -1q-69 0 -114 15.5t-72 48t-38 84t-11 122.5v649l-205 -118v133z" />
<glyph unicode="&#x143;" horiz-adv-x="1595" d="M178 1518h176l908 -1252v1252h155v-1518h-147l-936 1288v-1288h-156v1518zM946 1927h190l-352 -320h-148z" />
<glyph unicode="&#x144;" d="M156 1122l123 8l14 -118q18 28 49 55t81 46.5t120.5 31.5t169.5 12q137 0 218 -33.5t123 -95t54 -147.5t12 -191v-690h-155v664q0 75 -7.5 137.5t-37 107.5t-89 70t-163.5 25q-113 0 -182.5 -28t-108.5 -77t-52.5 -116.5t-13.5 -147.5v-635h-155v1122zM785 1569h190 l-352 -320h-148z" />
<glyph unicode="&#x145;" horiz-adv-x="1595" d="M178 1518h176l908 -1252v1252h155v-1518h-147l-936 1288v-1288h-156v1518zM690 -428q31 16 51.5 31.5t33 33t16.5 39t4 50.5h-92v194h186v-149q0 -58 -7 -98t-24.5 -70.5t-48.5 -54t-78 -48.5z" />
<glyph unicode="&#x146;" d="M156 1122l123 8l14 -118q18 28 49 55t81 46.5t120.5 31.5t169.5 12q137 0 218 -33.5t123 -95t54 -147.5t12 -191v-690h-155v664q0 75 -7.5 137.5t-37 107.5t-89 70t-163.5 25q-113 0 -182.5 -28t-108.5 -77t-52.5 -116.5t-13.5 -147.5v-635h-155v1122zM526 -428 q31 16 51.5 31.5t33 33t16.5 39t4 50.5h-92v194h186v-149q0 -58 -7 -98t-24.5 -70.5t-48.5 -54t-78 -48.5z" />
<glyph unicode="&#x147;" horiz-adv-x="1595" d="M178 1518h176l908 -1252v1252h155v-1518h-147l-936 1288v-1288h-156v1518zM395 1927h155l246 -219l244 219h151l-311 -320h-174z" />
<glyph unicode="&#x148;" d="M156 1122l123 8l14 -118q18 28 49 55t81 46.5t120.5 31.5t169.5 12q137 0 218 -33.5t123 -95t54 -147.5t12 -191v-690h-155v664q0 75 -7.5 137.5t-37 107.5t-89 70t-163.5 25q-113 0 -182.5 -28t-108.5 -77t-52.5 -116.5t-13.5 -147.5v-635h-155v1122zM234 1569h155 l246 -219l244 219h151l-311 -320h-174z" />
<glyph unicode="&#x149;" horiz-adv-x="1724" d="M611 1122l123 8l14 -118q18 28 49 55t81 46.5t120.5 31.5t169.5 12q137 0 218 -33.5t123 -95t54 -147.5t12 -191v-690h-155v664q0 75 -7.5 137.5t-37 107.5t-89 70t-163.5 25q-113 0 -182.5 -28t-108.5 -77t-52.5 -116.5t-13.5 -147.5v-635h-155v1122zM131 1114 q33 19 55.5 35t34.5 34.5t17.5 42t5.5 56.5h-103v236h205v-179q0 -65 -7 -111t-25.5 -82t-52.5 -62.5t-85 -53.5z" />
<glyph unicode="&#x14a;" horiz-adv-x="1595" d="M178 1518h176l912 -1256v1256h151v-1448q0 -232 -109.5 -330t-326.5 -98h-86q-23 0 -40 1t-26 1v139h138q143 0 210.5 56.5t79.5 176.5l-927 1278v-1294h-152v1518z" />
<glyph unicode="&#x14b;" d="M803 -217h12q49 0 79 8t45 28.5t20.5 54.5t5.5 83v709q0 75 -7.5 138.5t-37 110t-89 71t-163.5 24.5q-113 0 -182.5 -28t-108.5 -78t-52.5 -118.5t-13.5 -148.5v-637h-155v1120l123 8l14 -167q18 38 49 73t81 61.5t120.5 43t169.5 16.5q137 0 218 -34t123 -94t54 -146 t12 -191v-739q0 -82 -12 -137.5t-45 -90t-89 -50t-145 -15.5h-26v125z" />
<glyph unicode="&#x14c;" horiz-adv-x="1708" d="M852 -25q-182 0 -323.5 46.5t-238.5 142.5t-148.5 244.5t-51.5 351.5q0 405 198.5 593.5t563.5 188.5q182 0 324.5 -46t241 -142.5t149.5 -243.5t51 -350t-51 -351.5t-149.5 -244.5t-241 -142.5t-324.5 -46.5zM852 125q311 0 457.5 160.5t146.5 472.5q0 309 -146.5 470 t-457.5 161q-309 0 -454.5 -162t-145.5 -469q0 -309 145.5 -471t454.5 -162zM484 1732h737v-133h-737v133z" />
<glyph unicode="&#x14d;" horiz-adv-x="1292" d="M645 -23q-293 0 -419 148.5t-126 441.5q0 146 30 256.5t95.5 184t169 111.5t250.5 38q293 0 420 -149.5t127 -440.5q0 -293 -127 -441.5t-420 -148.5zM645 119q213 0 301 113.5t88 330.5t-88 332t-301 115t-301 -115t-88 -332t88 -330.5t301 -113.5zM275 1374h737v-133 h-737v133z" />
<glyph unicode="&#x14e;" horiz-adv-x="1708" d="M852 -25q-182 0 -323.5 46.5t-238.5 142.5t-148.5 244.5t-51.5 351.5q0 405 198.5 593.5t563.5 188.5q182 0 324.5 -46t241 -142.5t149.5 -243.5t51 -350t-51 -351.5t-149.5 -244.5t-241 -142.5t-324.5 -46.5zM852 125q311 0 457.5 160.5t146.5 472.5q0 309 -146.5 470 t-457.5 161q-309 0 -454.5 -162t-145.5 -469q0 -309 145.5 -471t454.5 -162zM852 1587q-102 0 -169.5 24.5t-110.5 65.5t-67 96t-36 117l119 24q8 -40 24.5 -77t46 -63.5t77 -42t116.5 -15.5q70 0 116 15.5t75.5 42t46 63.5t26.5 77l121 -22q-14 -61 -37.5 -117.5 t-67.5 -97.5t-111.5 -65.5t-168.5 -24.5z" />
<glyph unicode="&#x14f;" horiz-adv-x="1292" d="M645 -23q-293 0 -419 148.5t-126 441.5q0 146 30 256.5t95.5 184t169 111.5t250.5 38q293 0 420 -149.5t127 -440.5q0 -293 -127 -441.5t-420 -148.5zM645 119q213 0 301 113.5t88 330.5t-88 332t-301 115t-301 -115t-88 -332t88 -330.5t301 -113.5zM643 1229 q-102 0 -169.5 24.5t-110.5 65.5t-67 96t-36 117l119 24q8 -40 24.5 -77t46 -63.5t77 -42t116.5 -15.5q70 0 116 15.5t75.5 42t46 63.5t26.5 77l121 -22q-14 -61 -37.5 -117.5t-67.5 -97.5t-111.5 -65.5t-168.5 -24.5z" />
<glyph unicode="&#x150;" horiz-adv-x="1708" d="M852 -25q-182 0 -323.5 46.5t-238.5 142.5t-148.5 244.5t-51.5 351.5q0 405 198.5 593.5t563.5 188.5q182 0 324.5 -46t241 -142.5t149.5 -243.5t51 -350t-51 -351.5t-149.5 -244.5t-241 -142.5t-324.5 -46.5zM852 125q311 0 457.5 160.5t146.5 472.5q0 309 -146.5 470 t-457.5 161q-309 0 -454.5 -162t-145.5 -469q0 -309 145.5 -471t454.5 -162zM731 1925h185l-303 -318h-140zM1196 1925h182l-301 -318h-139z" />
<glyph unicode="&#x151;" horiz-adv-x="1292" d="M645 -23q-293 0 -419 148.5t-126 441.5q0 146 30 256.5t95.5 184t169 111.5t250.5 38q293 0 420 -149.5t127 -440.5q0 -293 -127 -441.5t-420 -148.5zM645 119q213 0 301 113.5t88 330.5t-88 332t-301 115t-301 -115t-88 -332t88 -330.5t301 -113.5zM522 1567h185 l-303 -318h-140zM987 1567h182l-301 -318h-139z" />
<glyph unicode="&#x152;" horiz-adv-x="2580" d="M1466 1518h988v-154h-842v-502h821v-147h-821v-568h850v-147h-996v246q-26 -41 -57 -76q-176 -195 -557 -195q-379 0 -570.5 188.5t-191.5 596.5q0 405 191.5 593.5t570.5 188.5q381 0 557 -194q31 -34 57 -75v245zM852 125q322 0 463 162t141 471q0 153 -33.5 271 t-106.5 198t-187.5 121t-276.5 41q-160 0 -274.5 -41t-186.5 -121t-105.5 -198t-33.5 -271q0 -154 33.5 -272.5t105.5 -198.5t186.5 -121t274.5 -41z" />
<glyph unicode="&#x153;" horiz-adv-x="2146" d="M1577 -23q-174 0 -277.5 47.5t-159.5 126.5q-17 26 -31 54q-21 -41 -50 -75q-62 -75 -164 -114t-250 -39q-149 0 -252.5 38t-168 112t-94.5 184.5t-30 255.5q0 146 30 256.5t94.5 184t168 111.5t252.5 38q148 0 250 -39t164 -114q29 -34 51 -77q14 30 32 56 q56 80 158.5 127t270.5 47q174 0 269 -54t139 -143.5t51.5 -206t5.5 -239.5h-852q3 -70 14 -132q14 -83 56 -142.5t119 -93t204 -33.5q70 0 123 8t95 23.5t77 37t70 45.5l86 -108q-86 -66 -188.5 -104t-262.5 -38zM645 119q213 0 301 113.5t88 330.5t-88 332t-301 115 t-301 -115t-88 -332t88 -330.5t301 -113.5zM1888 653q-4 76 -13 142.5t-41 116t-94.5 78t-172.5 28.5q-121 0 -197 -34t-117 -94.5t-55 -143.5q-8 -44 -11 -93h701z" />
<glyph unicode="&#x154;" horiz-adv-x="1470" d="M178 1518h656q266 0 389 -109t123 -336q0 -225 -125 -340q-93 -86 -264 -108l366 -625h-172l-362 618h-453v-618h-158v1518zM836 766q79 0 143.5 14.5t110 48t70 92t24.5 146.5t-23.5 146.5t-68.5 92t-112 48t-151 14.5h-493v-602h500zM883 1927h190l-352 -320h-148z" />
<glyph unicode="&#x155;" horiz-adv-x="735" d="M156 1122l123 8l16 -151q33 65 133 114.5t258 51.5v-156q-104 0 -175 -27.5t-116 -79t-64.5 -121t-19.5 -151.5v-610h-155v1122zM542 1569h190l-352 -320h-148z" />
<glyph unicode="&#x156;" horiz-adv-x="1470" d="M178 1518h656q266 0 389 -109t123 -336q0 -225 -125 -340q-93 -86 -264 -108l366 -625h-172l-362 618h-453v-618h-158v1518zM836 766q79 0 143.5 14.5t110 48t70 92t24.5 146.5t-23.5 146.5t-68.5 92t-112 48t-151 14.5h-493v-602h500zM628 -428q31 16 51.5 31.5t33 33 t16.5 39t4 50.5h-92v194h186v-149q0 -58 -7 -98t-24.5 -70.5t-48.5 -54t-78 -48.5z" />
<glyph unicode="&#x157;" horiz-adv-x="735" d="M156 1122l123 8l16 -151q33 65 133 114.5t258 51.5v-156q-104 0 -175 -27.5t-116 -79t-64.5 -121t-19.5 -151.5v-610h-155v1122zM132 -428q31 16 51.5 31.5t33 33t16.5 39t4 50.5h-92v194h186v-149q0 -58 -7 -98t-24.5 -70.5t-48.5 -54t-78 -48.5z" />
<glyph unicode="&#x158;" horiz-adv-x="1470" d="M178 1518h656q266 0 389 -109t123 -336q0 -225 -125 -340q-93 -86 -264 -108l366 -625h-172l-362 618h-453v-618h-158v1518zM836 766q79 0 143.5 14.5t110 48t70 92t24.5 146.5t-23.5 146.5t-68.5 92t-112 48t-151 14.5h-493v-602h500zM332 1927h155l246 -219l244 219 h151l-311 -320h-174z" />
<glyph unicode="&#x159;" horiz-adv-x="719" d="M156 1122l123 8l16 -151q33 65 133 114.5t258 51.5v-156q-104 0 -175 -27.5t-116 -79t-64.5 -121t-19.5 -151.5v-610h-155v1122zM-38 1569h155l246 -219l244 219h151l-311 -320h-174z" />
<glyph unicode="&#x15a;" horiz-adv-x="1440" d="M713 -20q-174 0 -329 38.5t-300 135.5l82 122q137 -86 271 -119.5t272 -33.5q235 0 343.5 69.5t108.5 227.5q0 80 -32.5 129t-92 79.5t-142.5 49t-185 37.5q-123 20 -224.5 45.5t-173 69.5t-111.5 117t-40 188q0 219 139 313t410 94q180 0 308 -37t220 -98l-86 -131 q-82 53 -197.5 86t-244.5 33q-205 0 -297.5 -60.5t-92.5 -195.5q0 -72 29 -118t84 -76t134 -48t182 -37q124 -22 228.5 -47t180.5 -70t119 -119.5t43 -197.5q0 -227 -147.5 -336.5t-458.5 -109.5zM869 1927h190l-352 -320h-148z" />
<glyph unicode="&#x15b;" horiz-adv-x="1069" d="M532 -20q-112 0 -233 25.5t-238 100.5l82 121q101 -65 204.5 -88.5t193.5 -23.5q75 0 131.5 8t93.5 30.5t55.5 61.5t18.5 98q0 47 -16.5 78t-52.5 51.5t-92 35t-138 30.5q-99 18 -177.5 39.5t-134 57.5t-85 93.5t-29.5 149.5q0 74 22.5 131t73.5 97t132 60.5t198 20.5 q129 0 232.5 -25.5t180.5 -72.5l-73 -127q-66 35 -150 58.5t-188 23.5q-80 0 -133.5 -11.5t-84 -33t-44 -52t-13.5 -69.5q0 -47 16.5 -78t50.5 -52.5t87 -35.5t127 -29q102 -20 184 -40.5t138.5 -55.5t87 -91t30.5 -147q0 -96 -27.5 -161.5t-84 -105.5t-142.5 -56t-203 -16z M687 1569h190l-352 -320h-148z" />
<glyph unicode="&#x15c;" horiz-adv-x="1440" d="M713 -20q-174 0 -329 38.5t-300 135.5l82 122q137 -86 271 -119.5t272 -33.5q235 0 343.5 69.5t108.5 227.5q0 80 -32.5 129t-92 79.5t-142.5 49t-185 37.5q-123 20 -224.5 45.5t-173 69.5t-111.5 117t-40 188q0 219 139 313t410 94q180 0 308 -37t220 -98l-86 -131 q-82 53 -197.5 86t-244.5 33q-205 0 -297.5 -60.5t-92.5 -195.5q0 -72 29 -118t84 -76t134 -48t182 -37q124 -22 228.5 -47t180.5 -70t119 -119.5t43 -197.5q0 -227 -147.5 -336.5t-458.5 -109.5zM604 1927h174l311 -320h-155l-246 219l-242 -219h-153z" />
<glyph unicode="&#x15d;" horiz-adv-x="1069" d="M532 -20q-112 0 -233 25.5t-238 100.5l82 121q101 -65 204.5 -88.5t193.5 -23.5q75 0 131.5 8t93.5 30.5t55.5 61.5t18.5 98q0 47 -16.5 78t-52.5 51.5t-92 35t-138 30.5q-99 18 -177.5 39.5t-134 57.5t-85 93.5t-29.5 149.5q0 74 22.5 131t73.5 97t132 60.5t198 20.5 q129 0 232.5 -25.5t180.5 -72.5l-73 -127q-66 35 -150 58.5t-188 23.5q-80 0 -133.5 -11.5t-84 -33t-44 -52t-13.5 -69.5q0 -47 16.5 -78t50.5 -52.5t87 -35.5t127 -29q102 -20 184 -40.5t138.5 -55.5t87 -91t30.5 -147q0 -96 -27.5 -161.5t-84 -105.5t-142.5 -56t-203 -16z M439 1569h174l311 -320h-155l-246 219l-242 -219h-153z" />
<glyph unicode="&#x15e;" horiz-adv-x="1440" d="M713 -20q-174 0 -329 38.5t-300 135.5l82 122q137 -86 271 -119.5t272 -33.5q235 0 343.5 69.5t108.5 227.5q0 80 -32.5 129t-92 79.5t-142.5 49t-185 37.5q-123 20 -224.5 45.5t-173 69.5t-111.5 117t-40 188q0 219 139 313t410 94q180 0 308 -37t220 -98l-86 -131 q-82 53 -197.5 86t-244.5 33q-205 0 -297.5 -60.5t-92.5 -195.5q0 -72 29 -118t84 -76t134 -48t182 -37q124 -22 228.5 -47t180.5 -70t119 -119.5t43 -197.5q0 -227 -147.5 -336.5t-458.5 -109.5zM734 -461q-78 0 -134.5 16.5t-103.5 43.5l47 86q41 -23 87 -35t97 -12 q52 0 83.5 9t49 23.5t23.5 34t6 41.5q0 55 -40 76.5t-152 15.5l-45 33l28 143h101l-19 -106q45 2 89 -1t77 -21.5t53.5 -53.5t20.5 -96q0 -86 -58.5 -141.5t-209.5 -55.5z" />
<glyph unicode="&#x15f;" horiz-adv-x="1069" d="M532 -20q-112 0 -233 25.5t-238 100.5l82 121q101 -65 204.5 -88.5t193.5 -23.5q75 0 131.5 8t93.5 30.5t55.5 61.5t18.5 98q0 47 -16.5 78t-52.5 51.5t-92 35t-138 30.5q-99 18 -177.5 39.5t-134 57.5t-85 93.5t-29.5 149.5q0 74 22.5 131t73.5 97t132 60.5t198 20.5 q129 0 232.5 -25.5t180.5 -72.5l-73 -127q-66 35 -150 58.5t-188 23.5q-80 0 -133.5 -11.5t-84 -33t-44 -52t-13.5 -69.5q0 -47 16.5 -78t50.5 -52.5t87 -35.5t127 -29q102 -20 184 -40.5t138.5 -55.5t87 -91t30.5 -147q0 -96 -27.5 -161.5t-84 -105.5t-142.5 -56t-203 -16z M552 -461q-78 0 -134.5 16.5t-103.5 43.5l47 86q41 -23 87 -35t97 -12q52 0 83.5 9t49 23.5t23.5 34t6 41.5q0 55 -40 76.5t-152 15.5l-45 33l28 143h101l-19 -106q45 2 89 -1t77 -21.5t53.5 -53.5t20.5 -96q0 -86 -58.5 -141.5t-209.5 -55.5z" />
<glyph unicode="&#x160;" horiz-adv-x="1440" d="M713 -20q-174 0 -329 38.5t-300 135.5l82 122q137 -86 271 -119.5t272 -33.5q235 0 343.5 69.5t108.5 227.5q0 80 -32.5 129t-92 79.5t-142.5 49t-185 37.5q-123 20 -224.5 45.5t-173 69.5t-111.5 117t-40 188q0 219 139 313t410 94q180 0 308 -37t220 -98l-86 -131 q-82 53 -197.5 86t-244.5 33q-205 0 -297.5 -60.5t-92.5 -195.5q0 -72 29 -118t84 -76t134 -48t182 -37q124 -22 228.5 -47t180.5 -70t119 -119.5t43 -197.5q0 -227 -147.5 -336.5t-458.5 -109.5zM318 1927h155l246 -219l244 219h151l-311 -320h-174z" />
<glyph unicode="&#x161;" horiz-adv-x="1069" d="M532 -20q-112 0 -233 25.5t-238 100.5l82 121q101 -65 204.5 -88.5t193.5 -23.5q75 0 131.5 8t93.5 30.5t55.5 61.5t18.5 98q0 47 -16.5 78t-52.5 51.5t-92 35t-138 30.5q-99 18 -177.5 39.5t-134 57.5t-85 93.5t-29.5 149.5q0 74 22.5 131t73.5 97t132 60.5t198 20.5 q129 0 232.5 -25.5t180.5 -72.5l-73 -127q-66 35 -150 58.5t-188 23.5q-80 0 -133.5 -11.5t-84 -33t-44 -52t-13.5 -69.5q0 -47 16.5 -78t50.5 -52.5t87 -35.5t127 -29q102 -20 184 -40.5t138.5 -55.5t87 -91t30.5 -147q0 -96 -27.5 -161.5t-84 -105.5t-142.5 -56t-203 -16z M136 1569h155l246 -219l244 219h151l-311 -320h-174z" />
<glyph unicode="&#x162;" horiz-adv-x="1409" d="M625 1364h-570v154h1301v-154h-570v-1364h-161v1364zM598 -428q31 16 51.5 31.5t33 33t16.5 39t4 50.5h-92v194h186v-149q0 -58 -7 -98t-24.5 -70.5t-48.5 -54t-78 -48.5z" />
<glyph unicode="&#x21a;" horiz-adv-x="1409" d="M625 1364h-570v154h1301v-154h-570v-1364h-161v1364zM598 -428q31 16 51.5 31.5t33 33t16.5 39t4 50.5h-92v194h186v-149q0 -58 -7 -98t-24.5 -70.5t-48.5 -54t-78 -48.5z" />
<glyph unicode="&#x163;" horiz-adv-x="831" d="M63 1130h207l27 340l123 23v-363h311v-141h-311v-680q0 -39 5 -70.5t22.5 -54t51 -35t93.5 -12.5h139v-137q-6 0 -29.5 -1t-50.5 -1h-84q-96 0 -154.5 19.5t-91 56.5t-44 91t-11.5 126v698h-203v141zM250 -428q31 16 51.5 31.5t33 33t16.5 39t4 50.5h-92v194h186v-149 q0 -58 -7 -98t-24.5 -70.5t-48.5 -54t-78 -48.5z" />
<glyph unicode="&#x21b;" horiz-adv-x="831" d="M63 1130h207l27 340l123 23v-363h311v-141h-311v-680q0 -39 5 -70.5t22.5 -54t51 -35t93.5 -12.5h139v-137q-6 0 -29.5 -1t-50.5 -1h-84q-96 0 -154.5 19.5t-91 56.5t-44 91t-11.5 126v698h-203v141zM250 -428q31 16 51.5 31.5t33 33t16.5 39t4 50.5h-92v194h186v-149 q0 -58 -7 -98t-24.5 -70.5t-48.5 -54t-78 -48.5z" />
<glyph unicode="&#x164;" horiz-adv-x="1409" d="M625 1364h-570v154h1301v-154h-570v-1364h-161v1364zM303 1927h155l246 -219l244 219h151l-311 -320h-174z" />
<glyph unicode="&#x165;" horiz-adv-x="831" d="M592 1407q59 35 80.5 63.5t21.5 88.5h-84v188h174v-145q0 -56 -6 -96t-23.5 -69.5t-47 -53t-76.5 -48.5zM63 1130h207l27 340l123 23v-363h311v-141h-311v-680q0 -39 5 -70.5t22.5 -54t51 -35t93.5 -12.5h139v-137q-6 0 -29.5 -1t-50.5 -1h-84q-96 0 -154.5 19.5 t-91 56.5t-44 91t-11.5 126v698h-203v141z" />
<glyph unicode="&#x166;" horiz-adv-x="1409" d="M332 813h745v-133h-745v133zM625 1364h-570v154h1301v-154h-570v-1364h-161v1364z" />
<glyph unicode="&#x167;" horiz-adv-x="831" d="M63 670h668v-127h-668v127zM63 1130h207l27 340l123 23v-363h311v-141h-311v-680q0 -39 5 -70.5t22.5 -54t51 -35t93.5 -12.5h139v-137q-6 0 -29.5 -1t-50.5 -1h-84q-96 0 -154.5 19.5t-91 56.5t-44 91t-11.5 126v698h-203v141z" />
<glyph unicode="&#x168;" horiz-adv-x="1593" d="M795 -25q-203 0 -326 47.5t-189.5 126t-89 182t-22.5 216.5v971h162v-953q0 -96 18.5 -177t69.5 -139.5t142 -91t235 -32.5q145 0 237 31.5t145.5 90t73 139.5t19.5 179v953h155v-971q0 -113 -23.5 -216.5t-91 -182t-191.5 -126t-324 -47.5zM408 1689q51 64 116.5 108 t133.5 44q51 0 88 -15.5t67.5 -34t60.5 -34t68 -15.5q41 0 81 33t79 78l94 -76q-53 -65 -116.5 -115.5t-134.5 -50.5q-48 0 -83.5 15.5t-67.5 35t-64.5 35t-69.5 15.5t-78 -27t-76 -72z" />
<glyph unicode="&#x169;" horiz-adv-x="1257" d="M633 -20q-164 0 -260.5 33.5t-145.5 96t-63 152.5t-14 203v665h153v-669q0 -70 5 -132.5t36 -108.5t98.5 -72.5t190.5 -26.5t188.5 26.5t96 73.5t34.5 110.5t4 137.5v661h152v-659q0 -115 -13.5 -206t-61.5 -154.5t-142 -97t-258 -33.5zM238 1331q51 64 116.5 108 t133.5 44q51 0 88 -15.5t67.5 -34t60.5 -34t68 -15.5q41 0 81 33t79 78l94 -76q-53 -65 -116.5 -115.5t-134.5 -50.5q-48 0 -83.5 15.5t-67.5 35t-64.5 35t-69.5 15.5t-78 -27t-76 -72z" />
<glyph unicode="&#x16a;" horiz-adv-x="1593" d="M795 -25q-203 0 -326 47.5t-189.5 126t-89 182t-22.5 216.5v971h162v-953q0 -96 18.5 -177t69.5 -139.5t142 -91t235 -32.5q145 0 237 31.5t145.5 90t73 139.5t19.5 179v953h155v-971q0 -113 -23.5 -216.5t-91 -182t-191.5 -126t-324 -47.5zM426 1732h737v-133h-737v133z " />
<glyph unicode="&#x16b;" horiz-adv-x="1257" d="M633 -20q-164 0 -260.5 33.5t-145.5 96t-63 152.5t-14 203v665h153v-669q0 -70 5 -132.5t36 -108.5t98.5 -72.5t190.5 -26.5t188.5 26.5t96 73.5t34.5 110.5t4 137.5v661h152v-659q0 -115 -13.5 -206t-61.5 -154.5t-142 -97t-258 -33.5zM259 1374h737v-133h-737v133z" />
<glyph unicode="&#x16c;" horiz-adv-x="1593" d="M795 -25q-203 0 -326 47.5t-189.5 126t-89 182t-22.5 216.5v971h162v-953q0 -96 18.5 -177t69.5 -139.5t142 -91t235 -32.5q145 0 237 31.5t145.5 90t73 139.5t19.5 179v953h155v-971q0 -113 -23.5 -216.5t-91 -182t-191.5 -126t-324 -47.5zM794 1587q-102 0 -169.5 24.5 t-110.5 65.5t-67 96t-36 117l119 24q8 -40 24.5 -77t46 -63.5t77 -42t116.5 -15.5q70 0 116 15.5t75.5 42t46 63.5t26.5 77l121 -22q-14 -61 -37.5 -117.5t-67.5 -97.5t-111.5 -65.5t-168.5 -24.5z" />
<glyph unicode="&#x16d;" horiz-adv-x="1257" d="M633 -20q-164 0 -260.5 33.5t-145.5 96t-63 152.5t-14 203v665h153v-669q0 -70 5 -132.5t36 -108.5t98.5 -72.5t190.5 -26.5t188.5 26.5t96 73.5t34.5 110.5t4 137.5v661h152v-659q0 -115 -13.5 -206t-61.5 -154.5t-142 -97t-258 -33.5zM627 1229q-102 0 -169.5 24.5 t-110.5 65.5t-67 96t-36 117l119 24q8 -40 24.5 -77t46 -63.5t77 -42t116.5 -15.5q70 0 116 15.5t75.5 42t46 63.5t26.5 77l121 -22q-14 -61 -37.5 -117.5t-67.5 -97.5t-111.5 -65.5t-168.5 -24.5z" />
<glyph unicode="&#x16e;" horiz-adv-x="1593" d="M795 -25q-203 0 -326 47.5t-189.5 126t-89 182t-22.5 216.5v971h162v-953q0 -96 18.5 -177t69.5 -139.5t142 -91t235 -32.5q145 0 237 31.5t145.5 90t73 139.5t19.5 179v953h155v-971q0 -113 -23.5 -216.5t-91 -182t-191.5 -126t-324 -47.5zM794 1585q-129 0 -187.5 71.5 t-58.5 180.5q0 108 58.5 181t187.5 73q123 0 183.5 -73t60.5 -181q0 -109 -60.5 -180.5t-183.5 -71.5zM794 1677q80 0 116 46t36 114q0 67 -36 113t-116 46q-84 0 -118.5 -46t-34.5 -113q0 -68 34.5 -114t118.5 -46z" />
<glyph unicode="&#x16f;" horiz-adv-x="1257" d="M633 -20q-164 0 -260.5 33.5t-145.5 96t-63 152.5t-14 203v665h153v-669q0 -70 5 -132.5t36 -108.5t98.5 -72.5t190.5 -26.5t188.5 26.5t96 73.5t34.5 110.5t4 137.5v661h152v-659q0 -115 -13.5 -206t-61.5 -154.5t-142 -97t-258 -33.5zM627 1227q-129 0 -187.5 71.5 t-58.5 180.5q0 108 58.5 181t187.5 73q123 0 183.5 -73t60.5 -181q0 -109 -60.5 -180.5t-183.5 -71.5zM627 1319q80 0 116 46t36 114q0 67 -36 113t-116 46q-84 0 -118.5 -46t-34.5 -113q0 -68 34.5 -114t118.5 -46z" />
<glyph unicode="&#x170;" horiz-adv-x="1593" d="M795 -25q-203 0 -326 47.5t-189.5 126t-89 182t-22.5 216.5v971h162v-953q0 -96 18.5 -177t69.5 -139.5t142 -91t235 -32.5q145 0 237 31.5t145.5 90t73 139.5t19.5 179v953h155v-971q0 -113 -23.5 -216.5t-91 -182t-191.5 -126t-324 -47.5zM673 1925h185l-303 -318h-140 zM1138 1925h182l-301 -318h-139z" />
<glyph unicode="&#x171;" horiz-adv-x="1257" d="M633 -20q-164 0 -260.5 33.5t-145.5 96t-63 152.5t-14 203v665h153v-669q0 -70 5 -132.5t36 -108.5t98.5 -72.5t190.5 -26.5t188.5 26.5t96 73.5t34.5 110.5t4 137.5v661h152v-659q0 -115 -13.5 -206t-61.5 -154.5t-142 -97t-258 -33.5zM506 1567h185l-303 -318h-140z M971 1567h182l-301 -318h-139z" />
<glyph unicode="&#x172;" horiz-adv-x="1593" d="M1020 -438q-76 0 -123 14t-72.5 39t-35 57.5t-9.5 71.5q0 76 48.5 138.5t105.5 101.5q-33 -4 -66.5 -6.5t-72.5 -2.5q-203 0 -326 47.5t-189.5 126t-89 181t-22.5 215.5v973h162v-957q0 -96 18.5 -178t69.5 -140.5t142 -91t237 -32.5q145 0 237 31.5t144.5 90t72 140.5 t19.5 180v957h155v-973q0 -86 -11 -164t-44 -144.5t-89 -121t-146 -92.5q-115 -52 -176.5 -125.5t-61.5 -139.5q0 -20 5 -38.5t20.5 -32t43 -21.5t72.5 -8q56 0 102 14.5t81 30.5l36 -82q-47 -24 -107 -41.5t-130 -17.5z" />
<glyph unicode="&#x173;" horiz-adv-x="1257" d="M813 -438q-76 0 -123 14t-72.5 39t-35 57.5t-9.5 71.5q0 76 49.5 137.5t104.5 102.5q-22 -4 -47 -5.5t-51 -1.5q-164 0 -259.5 34t-144.5 96.5t-62 152.5t-13 201v667h153v-669q0 -72 5 -134.5t36 -109.5t97.5 -73.5t189.5 -26.5t189.5 26.5t97 74.5t34.5 111.5t4 137.5 v663h152v-659q0 -84 -6 -154.5t-27.5 -127t-60.5 -100.5t-107 -75q-98 -47 -157.5 -117.5t-59.5 -136.5q0 -20 5 -38.5t20.5 -32t44 -21.5t74.5 -8q53 0 100 14.5t80 30.5l39 -82q-49 -24 -109.5 -41.5t-130.5 -17.5z" />
<glyph unicode="&#x174;" horiz-adv-x="2218" d="M72 1518h166l399 -1256l407 1256h140l405 -1256l402 1256h155l-487 -1528h-139l-410 1263l-408 -1263h-141zM1022 1927h174l311 -320h-155l-246 219l-242 -219h-153z" />
<glyph unicode="&#x175;" horiz-adv-x="1794" d="M31 1130h162l325 -915l305 915h154l303 -913l326 913h157l-407 -1140h-154l-305 907l-305 -907h-154zM807 1569h174l311 -320h-155l-246 219l-242 -219h-153z" />
<glyph unicode="&#x176;" horiz-adv-x="1434" d="M27 1518h176l516 -783l520 783h166l-608 -924v-594h-160v589zM627 1927h174l311 -320h-155l-246 219l-242 -219h-153z" />
<glyph unicode="&#x177;" horiz-adv-x="1085" d="M23 1130h163l361 -939l356 939h160l-488 -1243q-22 -61 -49.5 -104t-65.5 -70.5t-87 -41t-115 -13.5h-48q-15 0 -28.5 1t-21.5 1v127h88q78 0 115.5 25.5t60.5 91.5l40 104zM460 1569h174l311 -320h-155l-246 219l-242 -219h-153z" />
<glyph unicode="&#x178;" horiz-adv-x="1434" d="M27 1518h176l516 -783l520 783h166l-608 -924v-594h-160v589zM428 1820h144v-209h-144v209zM861 1820h141v-209h-141v209z" />
<glyph unicode="&#x179;" horiz-adv-x="1362" d="M92 129l950 1235h-915v154h1114v-140l-946 -1231h969v-147h-1172v129zM832 1927h190l-352 -320h-148z" />
<glyph unicode="&#x17a;" horiz-adv-x="1028" d="M68 117l675 872h-641v141h840v-118l-676 -879h699v-133h-897v117zM669 1569h190l-352 -320h-148z" />
<glyph unicode="&#x17b;" horiz-adv-x="1362" d="M92 129l950 1235h-915v154h1114v-140l-946 -1231h969v-147h-1172v129zM602 1824h156v-219h-156v219z" />
<glyph unicode="&#x17c;" horiz-adv-x="1028" d="M68 117l675 872h-641v141h840v-118l-676 -879h699v-133h-897v117zM439 1466h156v-219h-156v219z" />
<glyph unicode="&#x17d;" horiz-adv-x="1362" d="M92 129l950 1235h-915v154h1114v-140l-946 -1231h969v-147h-1172v129zM281 1927h155l246 -219l244 219h151l-311 -320h-174z" />
<glyph unicode="&#x17e;" horiz-adv-x="1028" d="M68 117l675 872h-641v141h840v-118l-676 -879h699v-133h-897v117zM118 1569h155l246 -219l244 219h151l-311 -320h-174z" />
<glyph unicode="&#x17f;" horiz-adv-x="786" d="M276 1251q0 78 15.5 142.5t53.5 111.5t102.5 73t164.5 26h68q18 0 34.5 -1t20.5 -1v-132h-106q-60 0 -98.5 -16t-61.5 -46t-31 -70t-8 -85v-1253h-154v1251z" />
<glyph unicode="&#x192;" horiz-adv-x="1085" d="M180 924h246l57 268q15 68 33.5 127t57 103t105 70t175.5 26h66v-146h-58q-67 0 -109 -17.5t-66.5 -48t-37 -71.5t-20.5 -86l-48 -225h339v-142h-369l-238 -1122h-155l238 1122h-216v142z" />
<glyph unicode="&#x1a0;" horiz-adv-x="1708" d="M852 -25q-182 0 -323.5 46.5t-238.5 142.5t-148.5 244.5t-51.5 351.5q0 405 198.5 593.5t563.5 188.5q182 0 324 -46q69 -22 127 -56q41 1 69 13q31 13 49.5 31.5t26.5 40t8 40.5h-84v204h180v-184q0 -43 -14 -85t-45 -75.5t-80 -54.5l-10 -4l14 -13q99 -96 150 -243 t51 -350t-51 -351.5t-149.5 -244.5t-241 -142.5t-324.5 -46.5zM852 125q311 0 457.5 160.5t146.5 472.5q0 309 -146.5 470t-457.5 161q-309 0 -454.5 -162t-145.5 -469q0 -309 145.5 -471t454.5 -162z" />
<glyph unicode="&#x1a1;" horiz-adv-x="1305" d="M645 -23q-293 0 -419 148.5t-126 441.5q0 146 30 256.5t95.5 184t169 111.5t250.5 38q208 0 332 -76q32 3 55 12q31 13 49.5 32.5t26.5 41t8 39.5h-84v203h180v-182q0 -43 -14 -86t-45 -76t-80 -54q-4 -1 -9 -3l1 -1q127 -149 127 -440q0 -293 -127 -441.5t-420 -148.5z M645 119q213 0 301 113.5t88 330.5t-88 332t-301 115t-301 -115t-88 -332t88 -330.5t301 -113.5z" />
<glyph unicode="&#x1af;" horiz-adv-x="1618" d="M795 -25q-203 0 -326 47.5t-189.5 126t-89 182t-22.5 216.5v971h162v-953q0 -96 18.5 -177t69.5 -139.5t142 -91t235 -32.5q145 0 237 31.5t145.5 90t73 139.5t19.5 179v953h121q47 0 77.5 13t49 31.5t26.5 41t8 41.5h-82v202h177v-182q0 -43 -13.5 -86t-44 -76 t-80.5 -53q-37 -15 -84 -19v-884q0 -113 -23.5 -216.5t-91 -182t-191.5 -126t-324 -47.5z" />
<glyph unicode="&#x1b0;" horiz-adv-x="1325" d="M633 -20q-164 0 -260.5 33.5t-145.5 96t-63 152.5t-14 203v665h153v-669q0 -70 5 -132.5t36 -108.5t98.5 -72.5t190.5 -26.5t188.5 26.5t96 73.5t34.5 110.5t4 137.5v661h130q40 1 67 13q31 14 49.5 32.5t25.5 40t7 39.5h-82v205h178v-182q0 -43 -13 -86t-44 -77t-80 -55 q-37 -15 -86 -19v-570q0 -115 -13.5 -206t-61.5 -154.5t-142 -97t-258 -33.5z" />
<glyph unicode="&#x1fa;" horiz-adv-x="1487" d="M627 1442q-68 28 -98.5 88.5t-30.5 140.5q0 105 57 177.5t186 72.5q125 0 185.5 -72.5t60.5 -177.5q0 -78 -32.5 -139.5t-98.5 -89.5l576 -1442h-162l-140 348h-782l-135 -348h-160zM1073 496l-334 837l-333 -837h667zM741 1511q82 0 118 45.5t36 114.5q0 68 -36 114 t-118 46t-117.5 -46t-35.5 -114q0 -69 35.5 -114.5t117.5 -45.5zM891 2306h190l-352 -320h-148z" />
<glyph unicode="&#x1fb;" d="M487 -20q-118 0 -195 25.5t-122 70.5t-62.5 106.5t-17.5 132.5q0 121 37 201t125 128t232.5 68.5t359.5 20.5h67q-2 61 -9 107q-9 59 -41 97t-92 56.5t-163 18.5q-108 0 -196 -32t-142 -67l-82 121q27 19 72 40.5t101.5 40t122 30.5t136.5 12q144 0 231 -25.5t134 -81 t62.5 -142.5t15.5 -208v-426q0 -45 3 -72.5t14.5 -42t35 -18.5t64.5 -4v-135q-11 -4 -62 -4q-49 0 -82 8t-53 24.5t-31.5 44t-17.5 64.5q-27 -41 -64 -70.5t-90 -49t-124.5 -29.5t-166.5 -10zM549 580q-119 -11 -187.5 -41.5t-95 -81.5t-26.5 -131q0 -52 13 -90.5t44 -66.5 t83 -42t130 -14q215 0 308 95t93 302v82h-59q-184 0 -303 -12zM637 1227q-129 0 -187.5 71.5t-58.5 180.5q0 108 58.5 181t187.5 73q123 0 183.5 -73t60.5 -181q0 -109 -60.5 -180.5t-183.5 -71.5zM637 1319q80 0 116 46t36 114q0 67 -36 113t-116 46q-84 0 -118.5 -46 t-34.5 -113q0 -68 34.5 -114t118.5 -46zM789 2128h190l-352 -320h-148z" />
<glyph unicode="&#x1fc;" horiz-adv-x="2191" d="M995 1518h1071v-154h-843v-502h823v-147h-823v-568h852v-147h-1006v344h-649l-219 -344h-160zM1069 483v889l-567 -889h567zM1198 1927h190l-352 -320h-148z" />
<glyph unicode="&#x1fd;" horiz-adv-x="2017" d="M1448 -23q-174 0 -278.5 47.5t-160.5 126.5q-17 25 -30 52q-14 -28 -30 -51q-46 -66 -112.5 -105t-152.5 -53t-195 -14q-200 0 -299.5 77.5t-99.5 257.5q0 121 37 201t125 128t232.5 68.5t359.5 20.5h67q-2 61 -9 107q-9 59 -41 97t-92 56.5t-163 18.5q-108 0 -198.5 -31 t-143.5 -66l-78 119q27 19 72 40.5t101.5 40t122 30.5t136.5 12q144 0 228 -28.5t127 -85.5q21 -28 35 -64l3 4q56 80 158.5 127t270.5 47q174 0 269 -54t139 -143.5t51.5 -206t5.5 -239.5h-852q3 -70 14 -132q14 -83 56 -142.5t120 -93t205 -33.5q70 0 122 8t94 23.5t77 37 t69 45.5l84 -108q-86 -66 -187 -104t-259 -38zM549 580q-119 -11 -187.5 -41.5t-95 -81.5t-26.5 -131q0 -103 57 -158t215 -55q213 0 306 95t93 302v82h-59q-184 0 -303 -12zM1757 655q-4 76 -12 141.5t-40 115t-94.5 78t-172.5 28.5q-121 0 -197 -34t-118 -94.5t-56 -143.5 q-8 -43 -11 -91h701zM1098 1569h190l-352 -320h-148z" />
<glyph unicode="&#x1fe;" horiz-adv-x="1708" d="M852 -25q-198 0 -345 51l-63 -110h-155l94 168q-56 34 -102 79q-191 189 -191 597q0 405 191.5 593.5t570.5 188.5q183 0 323 -44l60 106h156l-91 -159q70 -39 124 -92q194 -188 194 -593q0 -408 -193.5 -596.5t-572.5 -188.5zM852 121q162 0 277.5 41t189.5 122 t107.5 199.5t33.5 274.5q0 155 -33.5 274t-107.5 199q-43 46 -101 80l-642 -1150q115 -40 276 -40zM852 1393q-162 0 -276.5 -41t-187.5 -121t-106.5 -199t-33.5 -274q0 -312 140 -475q33 -38 77 -68l640 1145q-108 33 -253 33zM1004 1927h190l-352 -320h-148z" />
<glyph unicode="&#x1ff;" horiz-adv-x="1292" d="M645 -23q-146 0 -249 36l-58 -99h-145l93 157q-35 25 -62 56q-64 74 -94 184.5t-30 255.5q0 146 30 256.5t94.5 184t168 111.5t252.5 38q147 0 250 -38l59 100h144l-91 -158q33 -24 60 -54q66 -73 95.5 -183.5t29.5 -256.5q0 -145 -29.5 -255.5t-95.5 -184.5t-170 -112 t-252 -38zM645 115q215 0 304 114.5t89 333.5t-89 334q-13 17 -29 31l-456 -786q75 -27 181 -27zM645 1012q-108 0 -183 -29t-121 -86t-66.5 -140t-20.5 -194q0 -108 20.5 -192t66.5 -142q12 -15 27 -29l454 785q-74 27 -177 27zM795 1569h190l-352 -320h-148z" />
<glyph unicode="&#x218;" horiz-adv-x="1440" d="M713 -20q-174 0 -329 38.5t-300 135.5l82 122q137 -86 271 -119.5t272 -33.5q235 0 343.5 69.5t108.5 227.5q0 80 -32.5 129t-92 79.5t-142.5 49t-185 37.5q-123 20 -224.5 45.5t-173 69.5t-111.5 117t-40 188q0 219 139 313t410 94q180 0 308 -37t220 -98l-86 -131 q-82 53 -197.5 86t-244.5 33q-205 0 -297.5 -60.5t-92.5 -195.5q0 -72 29 -118t84 -76t134 -48t182 -37q124 -22 228.5 -47t180.5 -70t119 -119.5t43 -197.5q0 -227 -147.5 -336.5t-458.5 -109.5zM612 -428q31 16 51.5 31.5t33 33t16.5 39t4 50.5h-92v194h186v-149 q0 -58 -7 -98t-24.5 -70.5t-48.5 -54t-78 -48.5z" />
<glyph unicode="&#x219;" horiz-adv-x="1069" d="M532 -20q-112 0 -233 25.5t-238 100.5l82 121q101 -65 204.5 -88.5t193.5 -23.5q75 0 131.5 8t93.5 30.5t55.5 61.5t18.5 98q0 47 -16.5 78t-52.5 51.5t-92 35t-138 30.5q-99 18 -177.5 39.5t-134 57.5t-85 93.5t-29.5 149.5q0 74 22.5 131t73.5 97t132 60.5t198 20.5 q129 0 232.5 -25.5t180.5 -72.5l-73 -127q-66 35 -150 58.5t-188 23.5q-80 0 -133.5 -11.5t-84 -33t-44 -52t-13.5 -69.5q0 -47 16.5 -78t50.5 -52.5t87 -35.5t127 -29q102 -20 184 -40.5t138.5 -55.5t87 -91t30.5 -147q0 -96 -27.5 -161.5t-84 -105.5t-142.5 -56t-203 -16z M426 -428q31 16 51.5 31.5t33 33t16.5 39t4 50.5h-92v194h186v-149q0 -58 -7 -98t-24.5 -70.5t-48.5 -54t-78 -48.5z" />
<glyph unicode="&#x2c6;" horiz-adv-x="1208" d="M516 1569h174l311 -320h-155l-246 219l-242 -219h-153z" />
<glyph unicode="&#x2c7;" horiz-adv-x="1208" d="M205 1569h155l246 -219l244 219h151l-311 -320h-174z" />
<glyph unicode="&#x2d8;" horiz-adv-x="1208" d="M604 1229q-102 0 -169.5 24.5t-110.5 65.5t-67 96t-36 117l119 24q8 -40 24.5 -77t46 -63.5t77 -42t116.5 -15.5q70 0 116 15.5t75.5 42t46 63.5t26.5 77l121 -22q-14 -61 -37.5 -117.5t-67.5 -97.5t-111.5 -65.5t-168.5 -24.5z" />
<glyph unicode="&#x2d9;" horiz-adv-x="1208" d="M526 1466h156v-219h-156v219z" />
<glyph unicode="&#x2da;" horiz-adv-x="1208" d="M604 1227q-129 0 -187.5 71.5t-58.5 180.5q0 108 58.5 181t187.5 73q123 0 183.5 -73t60.5 -181q0 -109 -60.5 -180.5t-183.5 -71.5zM604 1319q80 0 116 46t36 114q0 67 -36 113t-116 46q-84 0 -118.5 -46t-34.5 -113q0 -68 34.5 -114t118.5 -46z" />
<glyph unicode="&#x2db;" horiz-adv-x="1208" d="M618 -444q-77 0 -125.5 15t-77 43t-38.5 65.5t-10 80.5q0 45 18 84t46 72t61.5 58.5t62.5 41.5h160q-101 -57 -155 -119.5t-54 -117.5q0 -21 5 -39.5t18.5 -32.5t40 -23.5t69.5 -9.5q51 0 99 12.5t77 26.5l47 -106q-43 -23 -108.5 -37t-135.5 -14z" />
<glyph unicode="&#x2dc;" horiz-adv-x="1208" d="M211 1331q51 64 116.5 108t133.5 44q51 0 88 -15.5t67.5 -34t60.5 -34t68 -15.5q41 0 81 33t79 78l94 -76q-53 -65 -116.5 -115.5t-134.5 -50.5q-48 0 -83.5 15.5t-67.5 35t-64.5 35t-69.5 15.5t-78 -27t-76 -72z" />
<glyph unicode="&#x2dd;" horiz-adv-x="1208" d="M483 1567h185l-303 -318h-140zM948 1567h182l-301 -318h-139z" />
<glyph unicode="&#x309;" horiz-adv-x="1208" d="M543 1161q-11 76 7.5 120t84.5 85q55 35 75.5 54.5t20.5 54.5q0 34 -26.5 55.5t-106.5 21.5q-49 0 -91 -10t-83 -31l-47 99q45 22 104.5 34.5t122.5 12.5q72 0 120 -13.5t77.5 -36t42 -53t12.5 -65.5q0 -66 -31.5 -103.5t-89.5 -72.5q-26 -17 -42.5 -30t-26 -29.5 t-11.5 -38t0 -54.5h-112z" />
<glyph unicode="&#x323;" horiz-adv-x="1208" d="M526 -141h156v-219h-156v219z" />
<glyph unicode="&#x326;" horiz-adv-x="489" d="M139 -428q31 16 51.5 31.5t33 33t16.5 39t4 50.5h-92v194h186v-149q0 -58 -7 -98t-24.5 -70.5t-48.5 -54t-78 -48.5z" />
<glyph unicode="&#x340;" horiz-adv-x="1208" d="M262 1569h191l309 -320h-148z" />
<glyph unicode="&#x341;" horiz-adv-x="1208" d="M756 1569h190l-352 -320h-148z" />
<glyph unicode="&#x384;" horiz-adv-x="1208" d="M637 1567h154l-160 -318h-131z" />
<glyph unicode="&#x385;" horiz-adv-x="1208" d="M289 1450h112v-203h-112v203zM809 1450h113v-203h-113v203zM625 1563h133l-152 -316h-108z" />
<glyph unicode="&#x386;" horiz-adv-x="1499" d="M669 1528h162l609 -1528h-164l-140 350h-778l-137 -350h-160zM1079 498l-332 835l-334 -835h666zM267 1523h154l-160 -318h-131z" />
<glyph unicode="&#x388;" horiz-adv-x="1683" d="M553 1518h1004v-154h-842v-502h821v-151h-821v-564h850v-147h-1012v1518zM267 1521h154l-160 -318h-131z" />
<glyph unicode="&#x389;" horiz-adv-x="1966" d="M553 1518h162v-648h911v648h160v-1518h-160v713h-911v-713h-162v1518zM267 1521h154l-160 -318h-131z" />
<glyph unicode="&#x38a;" horiz-adv-x="913" d="M557 1518h157v-1518h-157v1518zM267 1521h154l-160 -318h-131z" />
<glyph unicode="&#x38c;" horiz-adv-x="2019" d="M1161 -25q-182 0 -323.5 46.5t-238.5 142.5t-148.5 244.5t-51.5 351.5q0 405 198.5 593.5t563.5 188.5q182 0 324.5 -46t241 -142.5t149.5 -243.5t51 -350t-51 -351.5t-149.5 -244.5t-241 -142.5t-324.5 -46.5zM1161 125q311 0 457.5 160.5t146.5 472.5q0 309 -146.5 470 t-457.5 161q-309 0 -454.5 -162t-145.5 -469q0 -309 145.5 -471t454.5 -162zM267 1521h154l-160 -318h-131z" />
<glyph unicode="&#x38e;" horiz-adv-x="1921" d="M512 1518h176l516 -783l520 783h166l-608 -924v-594h-160v589zM267 1521h154l-160 -318h-131z" />
<glyph unicode="&#x38f;" horiz-adv-x="2040" d="M1171 1542q193 0 336.5 -50t238.5 -141t142 -218t47 -283q0 -256 -120.5 -416t-331.5 -209v-84h456v-141h-577v301q213 47 312 186.5t99 343.5q0 263 -151.5 413.5t-450.5 150.5q-301 0 -453.5 -150.5t-152.5 -413.5q0 -204 100.5 -343.5t313.5 -186.5v-301h-578v141h457 v84q-211 49 -332 209t-121 416q0 156 47.5 283t142.5 218t238.5 141t337.5 50zM267 1521h154l-160 -318h-131z" />
<glyph unicode="&#x390;" horiz-adv-x="481" d="M166 1130h153v-1130h-153v1130zM-72 1450h112v-203h-112v203zM448 1450h113v-203h-113v203zM264 1563h133l-152 -316h-108z" />
<glyph unicode="&#x391;" horiz-adv-x="1487" d="M659 1528h162l609 -1528h-164l-140 350h-778l-137 -350h-160zM1069 498l-332 835l-334 -835h666z" />
<glyph unicode="&#x392;" horiz-adv-x="1440" d="M178 1518h660q252 0 367.5 -91.5t115.5 -277.5q0 -131 -53.5 -225.5t-155.5 -124.5q246 -62 246 -379q0 -115 -34 -195t-101.5 -130t-168 -72.5t-233.5 -22.5h-643v1518zM838 145q186 0 272 68t86 221q0 146 -86 212.5t-276 66.5h-498v-568h502zM842 860q94 0 154.5 20.5 t96 56.5t50 85t14.5 106q0 119 -72.5 180.5t-242.5 61.5h-506v-510h506z" />
<glyph unicode="&#x393;" horiz-adv-x="1229" d="M340 0h-162v1518h977v-146h-815v-1372z" />
<glyph unicode="&#x394;" horiz-adv-x="1487" d="M664 1528h157l611 -1528h-1377zM1214 133l-475 1200l-477 -1200h952z" />
<glyph unicode="&#x2206;" horiz-adv-x="1487" d="M664 1528h157l611 -1528h-1377zM1214 133l-475 1200l-477 -1200h952z" />
<glyph unicode="&#x395;" horiz-adv-x="1309" d="M178 1518h1004v-154h-842v-502h821v-151h-821v-564h850v-147h-1012v1518z" />
<glyph unicode="&#x396;" horiz-adv-x="1362" d="M92 129l950 1235h-915v154h1114v-140l-946 -1231h969v-147h-1172v129z" />
<glyph unicode="&#x397;" horiz-adv-x="1591" d="M178 1518h162v-648h911v648h160v-1518h-160v713h-911v-713h-162v1518z" />
<glyph unicode="&#x398;" horiz-adv-x="1708" d="M557 829h578v-141h-578v141zM852 -25q-182 0 -323.5 46.5t-238.5 142.5t-148.5 244.5t-51.5 351.5q0 405 198.5 593.5t563.5 188.5q182 0 324.5 -46t241 -142.5t149.5 -243.5t51 -350t-51 -351.5t-149.5 -244.5t-241 -142.5t-324.5 -46.5zM852 125q311 0 457.5 160.5 t146.5 472.5q0 309 -146.5 470t-457.5 161q-309 0 -454.5 -162t-145.5 -469q0 -309 145.5 -471t454.5 -162z" />
<glyph unicode="&#x399;" horiz-adv-x="547" d="M195 1518h157v-1518h-157v1518z" />
<glyph unicode="&#x39a;" horiz-adv-x="1442" d="M178 1518h158v-838l768 838h186l-545 -597l619 -921h-182l-543 805l-303 -332v-473h-158v1518z" />
<glyph unicode="&#x39b;" horiz-adv-x="1481" d="M55 1518h166l522 -1325l519 1325h165l-606 -1528h-162z" />
<glyph unicode="&#x39c;" horiz-adv-x="1872" d="M178 1518h209l549 -1295l553 1295h205v-1518h-158v1249l-535 -1249h-135l-534 1249v-1249h-154v1518z" />
<glyph unicode="&#x39d;" horiz-adv-x="1595" d="M178 1518h176l908 -1252v1252h155v-1518h-147l-936 1288v-1288h-156v1518z" />
<glyph unicode="&#x39e;" horiz-adv-x="1354" d="M133 1518h1092v-154h-1092v154zM268 870h819v-151h-819v151zM106 147h1137v-147h-1137v147z" />
<glyph unicode="&#x39f;" horiz-adv-x="1708" d="M852 -25q-182 0 -323.5 46.5t-238.5 142.5t-148.5 244.5t-51.5 351.5q0 405 198.5 593.5t563.5 188.5q182 0 324.5 -46t241 -142.5t149.5 -243.5t51 -350t-51 -351.5t-149.5 -244.5t-241 -142.5t-324.5 -46.5zM852 125q311 0 457.5 160.5t146.5 472.5q0 309 -146.5 470 t-457.5 161q-309 0 -454.5 -162t-145.5 -469q0 -309 145.5 -471t454.5 -162z" />
<glyph unicode="&#x3a0;" horiz-adv-x="1446" d="M178 1518h1090v-1518h-160v1374h-772v-1374h-158v1518z" />
<glyph unicode="&#x3a1;" horiz-adv-x="1446" d="M178 1518h666q266 0 389 -109t123 -344q0 -238 -123 -359.5t-391 -121.5h-506v-584h-158v1518zM846 733q170 0 260 73t90 253q0 88 -22.5 148.5t-67.5 95t-111.5 50t-154.5 15.5h-504v-635h510z" />
<glyph unicode="&#x3a3;" horiz-adv-x="1339" d="M92 123l565 645l-542 616v134h1089v-154h-874l524 -596l-541 -616h926v-152h-1147v123z" />
<glyph unicode="&#x3a4;" horiz-adv-x="1409" d="M625 1364h-570v154h1301v-154h-570v-1364h-161v1364z" />
<glyph unicode="&#x3a5;" horiz-adv-x="1434" d="M27 1518h176l516 -783l520 783h166l-608 -924v-594h-160v589z" />
<glyph unicode="&#x3a6;" horiz-adv-x="1827" d="M831 1518h162v-111q342 -13 532 -163q212 -167 212 -484q0 -320 -213 -486q-191 -148 -531 -162v-112h-162v112q-339 14 -529 162q-212 166 -212 486q0 317 212 484q189 149 529 163v111zM1575 756q0 112 -38 205.5t-119 160t-206 103.5q-96 28 -219 34v-1003 q122 7 218 35q126 37 207 103.5t119 158.5t38 203zM614 1225q-125 -37 -205.5 -103.5t-119.5 -160t-39 -205.5q0 -111 39 -203t119.5 -158.5t205.5 -103.5q95 -28 217 -35v1003q-123 -6 -217 -34z" />
<glyph unicode="&#x3a7;" horiz-adv-x="1452" d="M131 1518h176l424 -605l416 605h178l-510 -725l557 -793h-180l-472 675l-462 -675h-176l555 794z" />
<glyph unicode="&#x3a8;" horiz-adv-x="1438" d="M639 1518h162v-807q103 5 166 24q86 27 126 74t47 110.5t7 137.5v461h153v-459q0 -113 -18 -204t-79.5 -154.5t-176.5 -97.5q-90 -27 -225 -33v-570h-162v570q-142 6 -232 33q-114 34 -174.5 96.5t-78 151.5t-17.5 200v467h154v-469q0 -72 7 -133.5t48 -107.5t128 -73 q63 -19 165 -24v807z" />
<glyph unicode="&#x3a9;" horiz-adv-x="1735" d="M868 1542q193 0 336.5 -50t238.5 -141t142 -218t47 -283q0 -256 -120.5 -416t-331.5 -209v-84h456v-141h-577v301q213 47 312 186.5t99 343.5q0 263 -151.5 413.5t-450.5 150.5q-301 0 -453.5 -150.5t-152.5 -413.5q0 -204 100.5 -343.5t313.5 -186.5v-301h-578v141h457 v84q-211 49 -332 209t-121 416q0 156 47.5 283t142.5 218t238.5 141t337.5 50z" />
<glyph unicode="&#x2126;" horiz-adv-x="1735" d="M868 1542q193 0 336.5 -50t238.5 -141t142 -218t47 -283q0 -256 -120.5 -416t-331.5 -209v-84h456v-141h-577v301q213 47 312 186.5t99 343.5q0 263 -151.5 413.5t-450.5 150.5q-301 0 -453.5 -150.5t-152.5 -413.5q0 -204 100.5 -343.5t313.5 -186.5v-301h-578v141h457 v84q-211 49 -332 209t-121 416q0 156 47.5 283t142.5 218t238.5 141t337.5 50z" />
<glyph unicode="&#x3aa;" horiz-adv-x="547" d="M195 1518h157v-1518h-157v1518zM-12 1841h144v-209h-144v209zM421 1841h141v-209h-141v209z" />
<glyph unicode="&#x3ab;" horiz-adv-x="1434" d="M27 1518h176l516 -783l520 783h166l-608 -924v-594h-160v589zM428 1841h144v-209h-144v209zM861 1841h141v-209h-141v209z" />
<glyph unicode="&#x3ac;" horiz-adv-x="1368" d="M1159 274q0 -45 3 -72.5t14.5 -42t35 -18.5t64.5 -4v-135q-10 -4 -62 -4q-98 0 -138 32.5t-56 110.5q-53 -84 -150.5 -121.5t-283.5 -37.5q-142 0 -235 42t-148.5 118.5t-79 186t-23.5 242.5q0 131 23.5 240t80 184.5t151 117.5t235.5 42q184 0 282.5 -36t145.5 -115 l31 145l110 -10v-865zM614 123q105 0 179.5 22.5t121 75.5t68 138t21.5 212q0 125 -20.5 209t-67 135.5t-121 73t-181.5 21.5q-104 0 -173.5 -30t-109.5 -86t-56.5 -138t-16.5 -185q0 -104 16.5 -187t56.5 -141.5t109.5 -89t173.5 -30.5zM692 1567h154l-160 -318h-131z" />
<glyph unicode="&#x3ad;" horiz-adv-x="983" d="M502 -25q-217 0 -309.5 81t-92.5 263q0 125 44 197t161 98q-92 27 -132 88.5t-40 171.5q0 154 92 218.5t273 64.5q114 0 218.5 -27.5t188.5 -87.5l-78 -110q-67 41 -147 61.5t-166 20.5q-123 0 -177 -35t-54 -123q0 -45 11 -78t39.5 -55.5t80 -33.5t131.5 -11h151v-141 h-151q-96 0 -153.5 -14.5t-89.5 -40t-42 -63.5t-10 -87q0 -121 61.5 -167t202.5 -46q98 0 175 20.5t163 69.5l84 -109q-107 -71 -210 -98t-224 -27zM577 1567h154l-160 -318h-131z" />
<glyph unicode="&#x3ae;" d="M156 1122l123 8l14 -118q18 28 49 55t81 46.5t120.5 31.5t169.5 12q137 0 218 -33.5t123 -95t54 -147.5t12 -191v-1028h-155v1002q0 75 -7.5 137.5t-37 107.5t-89 70t-163.5 25q-113 0 -182.5 -28t-108.5 -77t-52.5 -116.5t-13.5 -147.5v-635h-155v1122zM711 1567h154 l-160 -318h-131z" />
<glyph unicode="&#x3af;" horiz-adv-x="487" d="M166 1130h153v-1130h-153v1130zM306 1567h154l-160 -318h-131z" />
<glyph unicode="&#x3b0;" horiz-adv-x="1253" d="M633 -20q-164 0 -260.5 33.5t-145.5 96t-63 152.5t-14 203v665h153v-669q0 -70 5 -132.5t36 -108.5t98.5 -72.5t190.5 -26.5t188.5 26.5t96 73.5t34.5 110.5t4 137.5v661h152v-659q0 -115 -13.5 -206t-61.5 -154.5t-142 -97t-258 -33.5zM309 1450h112v-203h-112v203z M829 1450h113v-203h-113v203zM645 1563h133l-152 -316h-108z" />
<glyph unicode="&#x3b1;" horiz-adv-x="1368" d="M1159 274q0 -45 3 -72.5t14.5 -42t35 -18.5t64.5 -4v-135q-10 -4 -62 -4q-98 0 -138 32.5t-56 110.5q-53 -84 -150.5 -121.5t-283.5 -37.5q-142 0 -235 42t-148.5 118.5t-79 186t-23.5 242.5q0 131 23.5 240t80 184.5t151 117.5t235.5 42q184 0 282.5 -36t145.5 -115 l31 145l110 -10v-865zM614 123q105 0 179.5 22.5t121 75.5t68 138t21.5 212q0 125 -20.5 209t-67 135.5t-121 73t-181.5 21.5q-104 0 -173.5 -30t-109.5 -86t-56.5 -138t-16.5 -185q0 -104 16.5 -187t56.5 -141.5t109.5 -89t173.5 -30.5z" />
<glyph unicode="&#x3b2;" horiz-adv-x="1327" d="M156 1112q0 100 25.5 188.5t84 154t155.5 103t243 37.5q245 0 358 -97t113 -296q0 -153 -58.5 -240.5t-163.5 -121.5q172 -31 255 -125t83 -277q0 -102 -21.5 -183t-85 -137.5t-176 -87t-292.5 -30.5h-133v141h129q139 0 223 23.5t129 64.5t59.5 96.5t14.5 120.5 q0 76 -21.5 133.5t-73 95.5t-138.5 56.5t-216 18.5v131q164 0 248 69.5t84 216.5q0 140 -73.5 206.5t-245.5 66.5q-187 0 -270 -90t-83 -244v-1444h-153v1450z" />
<glyph unicode="&#x3b3;" horiz-adv-x="1112" d="M475 104h160v-444h-160v444zM23 1130h163l371 -956l373 956h160l-451 -1140h-166z" />
<glyph unicode="&#x3b4;" horiz-adv-x="1292" d="M645 -23q-293 0 -419 145.5t-126 420.5q0 135 30 240.5t95.5 178t169 109.5t250.5 37q33 0 64 -2l-447 371v112h770v-133h-549l510 -431q41 -27 72 -62q127 -144 127 -420q0 -275 -127 -420.5t-420 -145.5zM645 119q107 0 181.5 27.5t120.5 82t66.5 132t20.5 178.5 q0 206 -88 317t-301 111t-301 -111t-88 -317q0 -101 20.5 -178.5t66.5 -132t121 -82t181 -27.5z" />
<glyph unicode="&#x3b5;" horiz-adv-x="993" d="M502 -25q-217 0 -309.5 81t-92.5 263q0 125 44 197t161 98q-92 27 -132 88.5t-40 171.5q0 154 92 218.5t273 64.5q114 0 218.5 -27.5t188.5 -87.5l-78 -110q-67 41 -147 61.5t-166 20.5q-123 0 -177 -35t-54 -123q0 -45 11 -78t39.5 -55.5t80 -33.5t131.5 -11h151v-141 h-151q-96 0 -153.5 -14.5t-89.5 -40t-42 -63.5t-10 -87q0 -121 61.5 -167t202.5 -46q98 0 175 20.5t163 69.5l84 -109q-107 -71 -210 -98t-224 -27z" />
<glyph unicode="&#x3b6;" horiz-adv-x="1028" d="M614 -303q-75 0 -132.5 15.5t-104.5 43.5l47 86q41 -22 88 -34.5t98 -12.5q52 0 83.5 9.5t48 24.5t22.5 33.5t6 39.5q0 24 -7 41.5t-27.5 30t-58.5 21.5t-97 15q-136 10 -228 48t-147 99.5t-80 144.5t-25 183q0 115 32 222.5t105.5 222t197.5 242.5t308 284h-641v133h840 v-119q-221 -182 -355 -321t-208 -253t-98.5 -208t-24.5 -188q0 -74 17.5 -135.5t58.5 -108.5t107.5 -78t164.5 -41q82 -8 136.5 -25.5t87 -44t46 -62.5t13.5 -83q0 -53 -12.5 -94t-44 -70.5t-84 -45t-132.5 -15.5z" />
<glyph unicode="&#x3b7;" d="M156 1122l123 8l14 -118q18 28 49 55t81 46.5t120.5 31.5t169.5 12q137 0 218 -33.5t123 -95t54 -147.5t12 -191v-1028h-155v1002q0 75 -7.5 137.5t-37 107.5t-89 70t-163.5 25q-113 0 -182.5 -28t-108.5 -77t-52.5 -116.5t-13.5 -147.5v-635h-155v1122z" />
<glyph unicode="&#x3b8;" horiz-adv-x="1493" d="M748 -23q-179 0 -292.5 62.5t-178 172.5t-89 258t-24.5 318q0 173 24.5 320t89 256t178 170t292.5 61q176 0 289.5 -61t178 -170t89 -256t24.5 -320q0 -170 -24.5 -318t-89 -258t-178 -172.5t-289.5 -62.5zM325 711q3 -95 14 -182q15 -121 60 -211.5t128 -143.5t221 -53 q135 0 219 53t129 143.5t60 211.5q10 87 14 182v147q-3 99 -14 188q-15 121 -60 210.5t-129 140.5t-219 51q-138 0 -221 -51t-128 -140.5t-60 -210.5q-11 -89 -14 -188v-147zM1171 788q0 35 -1 70h-845q-1 -35 -1 -70q0 -39 1 -77h845q1 38 1 77z" />
<glyph unicode="&#x3b9;" horiz-adv-x="487" d="M166 1130h153v-1130h-153v1130z" />
<glyph unicode="&#x3ba;" horiz-adv-x="1110" d="M156 1130h153v-622l545 622h172l-409 -473l452 -657h-172l-382 546l-206 -233v-313h-153v1130z" />
<glyph unicode="&#x3bb;" horiz-adv-x="1106" d="M260 1591q66 0 116 -13t89 -41t67.5 -72t51.5 -103l497 -1362h-163l-354 989l-384 -989h-155l466 1173l-63 173q-27 65 -63.5 92.5t-114.5 27.5h-88v121q8 0 21.5 1t28.5 2t28 1h20z" />
<glyph unicode="&#x3bd;" horiz-adv-x="1112" d="M23 1130h163l371 -956l373 956h160l-451 -1140h-166z" />
<glyph unicode="&#x3be;" horiz-adv-x="1028" d="M614 -303q-75 0 -132.5 15.5t-104.5 43.5l47 86q41 -22 88 -34.5t98 -12.5q52 0 83.5 9.5t48 24.5t22.5 33.5t6 39.5q0 22 -7 39.5t-28.5 31t-58.5 22.5t-96 15q-131 8 -222.5 42t-148.5 91.5t-83 137t-26 180.5q0 180 90.5 279.5t266.5 129.5q-117 27 -180.5 97.5 t-63.5 206.5q0 96 44 172.5t124 109.5h-279v133h840v-133h-276q-142 0 -221.5 -63.5t-79.5 -202.5q0 -60 15 -108t54 -82.5t107.5 -55t175.5 -24.5v-115q-21 0 -48.5 -1t-43.5 -3q-109 -6 -180.5 -31t-113.5 -64.5t-59.5 -95t-17.5 -125.5q0 -166 85 -247.5t265 -100.5 q82 -8 136.5 -24.5t87 -43t46 -63.5t13.5 -84q0 -53 -12.5 -94t-44 -70.5t-84 -45t-132.5 -15.5z" />
<glyph unicode="&#x3bf;" horiz-adv-x="1292" d="M645 -23q-293 0 -419 148.5t-126 441.5q0 146 30 256.5t95.5 184t169 111.5t250.5 38q293 0 420 -149.5t127 -440.5q0 -293 -127 -441.5t-420 -148.5zM645 119q213 0 301 113.5t88 330.5t-88 332t-301 115t-301 -115t-88 -332t88 -330.5t301 -113.5z" />
<glyph unicode="&#x3c0;" horiz-adv-x="1278" d="M156 1130h964v-1130h-153v991h-658v-991h-153v1130z" />
<glyph unicode="&#x3c1;" horiz-adv-x="1325" d="M711 123q104 0 172.5 29.5t109.5 87t57.5 138.5t16.5 185q0 105 -16.5 186.5t-56.5 140t-108.5 89.5t-174.5 31q-107 0 -182.5 -22.5t-124 -75t-71 -138.5t-22.5 -211t21.5 -210t70 -136t124 -72.5t184.5 -21.5zM700 1157q160 0 262.5 -42t161 -118.5t80 -186.5 t21.5 -243t-22.5 -240.5t-79 -184t-150.5 -118.5t-238 -42q-184 0 -281.5 36.5t-142.5 114.5v-471h-155v905q0 146 29.5 256.5t95 184t169 111.5t250.5 38z" />
<glyph unicode="&#x3c2;" horiz-adv-x="1153" d="M674 -303q-76 0 -133.5 15.5t-104.5 43.5l47 86q41 -22 88 -34.5t99 -12.5q51 0 82.5 9.5t48 24.5t22.5 33.5t6 39.5q0 57 -37.5 74.5t-150.5 17.5q-158 0 -262.5 38t-165.5 109.5t-87 178t-26 245.5q0 140 26 250.5t87 186t166.5 115.5t265.5 40q76 0 138.5 -13.5 t111.5 -36t88 -51t70 -61.5l-113 -106q-20 20 -47 41.5t-63.5 38t-82 28t-102.5 11.5q-108 0 -183 -28t-121 -83t-65.5 -139t-19.5 -195q0 -110 18.5 -192t63.5 -135.5t121 -81t190 -29.5q62 -4 116 -11.5t94 -29t63.5 -59t23.5 -103.5q0 -53 -12 -94t-44 -70.5t-84 -45 t-132 -15.5z" />
<glyph unicode="&#x3c3;" horiz-adv-x="1317" d="M737 1116h551v-137h-373zM645 -23q-293 0 -419 148.5t-126 441.5q0 146 30 256.5t95.5 184t169 111.5t250.5 38q293 0 420 -149.5t127 -440.5q0 -293 -127 -441.5t-420 -148.5zM645 119q213 0 301 113.5t88 330.5t-88 332t-301 115t-301 -115t-88 -332t88 -330.5 t301 -113.5z" />
<glyph unicode="&#x3c4;" horiz-adv-x="1049" d="M20 1130h1008v-141h-426v-989h-156v989h-426v141z" />
<glyph unicode="&#x3c5;" horiz-adv-x="1257" d="M633 -20q-164 0 -260.5 33.5t-145.5 96t-63 152.5t-14 203v665h153v-669q0 -70 5 -132.5t36 -108.5t98.5 -72.5t190.5 -26.5t188.5 26.5t96 73.5t34.5 110.5t4 137.5v661h152v-659q0 -115 -13.5 -206t-61.5 -154.5t-142 -97t-258 -33.5z" />
<glyph unicode="&#x3c6;" horiz-adv-x="1473" d="M100 565q0 191 48.5 305.5t140.5 176.5l67 -132q-47 -47 -73.5 -132t-26.5 -220q0 -112 21.5 -196t71.5 -139.5t133 -82.5q71 -22 171 -26v1036h162v-1q140 -3 241 -36q113 -37 184 -110.5t101.5 -184t30.5 -258.5q0 -147 -30.5 -256.5t-101.5 -183.5t-184 -111 q-101 -33 -241 -36v-316h-162v316q-141 3 -241 36q-111 37 -180.5 111t-100.5 183.5t-31 256.5zM1217 563q0 113 -21.5 197t-72 139t-134.5 82q-73 23 -174 26v-888q101 3 174 26q84 27 134.5 82.5t72 139.5t21.5 196z" />
<glyph unicode="&#x3c7;" horiz-adv-x="1108" d="M78 1130h170l311 -430l305 430h168l-392 -542l427 -588h-174l-346 479l-338 -479h-168l426 591z" />
<glyph unicode="&#x3c8;" horiz-adv-x="1475" d="M659 1128h160v-1007q124 2 195 26q78 27 113.5 74t41 109.5t5.5 134.5v663h153v-659q0 -115 -14.5 -205t-69.5 -154.5t-163 -98.5q-98 -31 -261 -34v-315h-160v315q-166 3 -265 34q-107 34 -161.5 96.5t-68.5 152.5t-14 201v667h153v-669q0 -70 6 -131.5t42 -107.5 t114 -73q70 -24 194 -26v1007z" />
<glyph unicode="&#x3c9;" horiz-adv-x="1802" d="M977 500q0 -117 20.5 -192t57.5 -116.5t86 -57t108 -15.5q148 0 212.5 84t64.5 276q0 62 -7.5 122.5t-28 130t-58 151.5t-99.5 186l125 76q68 -111 111 -203t66.5 -174t32.5 -156.5t9 -150.5q0 -256 -107.5 -370t-303.5 -114q-158 0 -244 70t-121 219q-35 -149 -121 -219 t-241 -70q-199 0 -306.5 114t-107.5 370q0 76 9 150.5t32.5 156.5t66.5 174t111 203l125 -76q-61 -104 -99 -186t-58.5 -151.5t-28 -130t-7.5 -122.5q0 -192 66 -276t211 -84q59 0 109.5 15.5t86 58.5t56 116.5t20.5 190.5v563h152v-563z" />
<glyph unicode="&#x3ca;" horiz-adv-x="487" d="M166 1130h153v-1130h-153v1130zM-42 1462h144v-209h-144v209zM391 1462h141v-209h-141v209z" />
<glyph unicode="&#x3cb;" horiz-adv-x="1257" d="M633 -20q-164 0 -260.5 33.5t-145.5 96t-63 152.5t-14 203v665h153v-669q0 -70 5 -132.5t36 -108.5t98.5 -72.5t190.5 -26.5t188.5 26.5t96 73.5t34.5 110.5t4 137.5v661h152v-659q0 -115 -13.5 -206t-61.5 -154.5t-142 -97t-258 -33.5zM340 1462h144v-209h-144v209z M773 1462h141v-209h-141v209z" />
<glyph unicode="&#x3cc;" horiz-adv-x="1292" d="M645 -23q-293 0 -419 148.5t-126 441.5q0 146 30 256.5t95.5 184t169 111.5t250.5 38q293 0 420 -149.5t127 -440.5q0 -293 -127 -441.5t-420 -148.5zM645 119q213 0 301 113.5t88 330.5t-88 332t-301 115t-301 -115t-88 -332t88 -330.5t301 -113.5zM717 1567h154 l-160 -318h-131z" />
<glyph unicode="&#x3cd;" horiz-adv-x="1257" d="M633 -20q-164 0 -260.5 33.5t-145.5 96t-63 152.5t-14 203v665h153v-669q0 -70 5 -132.5t36 -108.5t98.5 -72.5t190.5 -26.5t188.5 26.5t96 73.5t34.5 110.5t4 137.5v661h152v-659q0 -115 -13.5 -206t-61.5 -154.5t-142 -97t-258 -33.5zM690 1567h154l-160 -318h-131z " />
<glyph unicode="&#x3ce;" horiz-adv-x="1776" d="M985 500q0 -117 20.5 -192t57.5 -116.5t86 -57t108 -15.5q148 0 212.5 84t64.5 276q0 62 -7.5 122.5t-28 130t-58 151.5t-99.5 186l125 76q68 -111 111 -203t66.5 -174t32.5 -156.5t9 -150.5q0 -256 -107.5 -370t-303.5 -114q-158 0 -244 70t-121 219q-35 -149 -121 -219 t-241 -70q-199 0 -306.5 114t-107.5 370q0 76 9 150.5t32.5 156.5t66.5 174t111 203l125 -76q-61 -104 -99 -186t-58.5 -151.5t-28 -130t-7.5 -122.5q0 -192 66 -276t211 -84q59 0 109.5 15.5t86 58.5t56 116.5t20.5 190.5v563h152v-563zM989 1567h154l-160 -318h-131z" />
<glyph unicode="&#x401;" horiz-adv-x="1309" d="M178 1518h1004v-154h-842v-502h821v-151h-821v-564h850v-147h-1012v1518zM364 1820h144v-209h-144v209zM797 1820h141v-209h-141v209z" />
<glyph unicode="&#x402;" horiz-adv-x="1774" d="M1270 -213h14q49 0 78 9t45 28.5t21.5 53.5t5.5 85v701q0 75 -7.5 138.5t-36 108.5t-88 70t-163.5 25q-111 0 -179.5 -27t-107.5 -75t-52.5 -113.5t-13.5 -141.5v-649h-161v1364h-570v154h1301v-154h-570v-346q17 29 45.5 54.5t75.5 44t115 29.5t162 11q137 0 218 -33.5 t124 -95t55 -147.5t12 -191v-727q0 -86 -12 -144.5t-46 -94t-91.5 -51t-145.5 -15.5h-28v129z" />
<glyph unicode="&#x403;" horiz-adv-x="1204" d="M178 1518h969v-154h-807v-1364h-162v1518zM753 1927h190l-352 -320h-148z" />
<glyph unicode="&#x404;" horiz-adv-x="1477" d="M836 -23q-373 0 -559.5 198t-186.5 585q0 198 52.5 345.5t149.5 244t234.5 144.5t309.5 48q159 0 299.5 -47t240.5 -143l-108 -115q-82 74 -192.5 113t-231.5 39q-285 0 -441 -158q-131 -133 -151 -377h940v-152h-943q12 -271 148 -415q150 -158 439 -158q170 0 273 46 t171 112l106 -111q-40 -39 -90.5 -74.5t-117 -63.5t-151.5 -44.5t-191 -16.5z" />
<glyph unicode="&#x405;" horiz-adv-x="1440" d="M713 -20q-174 0 -329 38.5t-300 135.5l82 122q137 -86 271 -119.5t272 -33.5q235 0 343.5 69.5t108.5 227.5q0 80 -32.5 129t-92 79.5t-142.5 49t-185 37.5q-123 20 -224.5 45.5t-173 69.5t-111.5 117t-40 188q0 219 139 313t410 94q180 0 308 -37t220 -98l-86 -131 q-82 53 -197.5 86t-244.5 33q-205 0 -297.5 -60.5t-92.5 -195.5q0 -72 29 -118t84 -76t134 -48t182 -37q124 -22 228.5 -47t180.5 -70t119 -119.5t43 -197.5q0 -227 -147.5 -336.5t-458.5 -109.5z" />
<glyph unicode="&#x406;" horiz-adv-x="547" d="M195 1518h157v-1518h-157v1518z" />
<glyph unicode="&#x407;" horiz-adv-x="547" d="M195 1518h157v-1518h-157v1518zM-12 1820h144v-209h-144v209zM421 1820h141v-209h-141v209z" />
<glyph unicode="&#x408;" horiz-adv-x="819" d="M215 -2h-82q-29 0 -72 2v147h138q161 0 227 69t66 218v1084h157v-1090q0 -233 -109.5 -331.5t-324.5 -98.5z" />
<glyph unicode="&#x409;" horiz-adv-x="2603" d="M92 147h49q43 0 69 8.5t39 26t17 46t4 69.5v1221h1223v-609h506q264 0 389 -104.5t125 -337.5q0 -236 -124 -351.5t-392 -115.5h-662v1368h-905v-1098q0 -71 -11 -123.5t-39 -85t-74 -48t-116 -15.5h-23q-15 0 -30.5 1t-29 2t-15.5 1v145zM2003 143q168 0 259 70t91 248 q0 88 -22.5 147.5t-67.5 94t-111.5 49t-154.5 14.5h-504v-623h510z" />
<glyph unicode="&#x40a;" horiz-adv-x="2519" d="M178 1518h162v-648h911v648h158v-609h506q264 0 389 -104.5t125 -337.5q0 -236 -123 -351.5t-393 -115.5h-662v713h-911v-713h-162v1518zM1919 143q168 0 259 70t91 248q0 88 -22.5 147.5t-67.5 94t-111.5 49t-154.5 14.5h-504v-623h510z" />
<glyph unicode="&#x40b;" horiz-adv-x="1774" d="M625 1364h-570v154h1301v-154h-570v-346q17 29 45.5 54.5t75.5 44t115 29.5t162 11q137 0 218 -33.5t124 -95t55 -147.5t12 -191v-690h-159v664q0 75 -7.5 137.5t-36 107.5t-88 70t-163.5 25q-111 0 -179.5 -27t-107.5 -74t-52.5 -112.5t-13.5 -141.5v-649h-161v1364z " />
<glyph unicode="&#x40c;" horiz-adv-x="1448" d="M180 1518h158v-615h264l510 615h184l-566 -684l640 -834h-188l-574 748h-270v-748h-158v1518zM871 1927h190l-352 -320h-148z" />
<glyph unicode="&#x40e;" horiz-adv-x="1419" d="M53 1518h170l518 -986l484 986h161l-647 -1289q-30 -61 -58 -105t-61.5 -71.5t-78.5 -41t-109 -13.5h-65q-17 0 -33.5 1t-24.5 1v143h101q39 0 65.5 5.5t46 19.5t35.5 37.5t33 58.5l59 122zM706 1587q-102 0 -169.5 24.5t-110.5 65.5t-67 96t-36 117l119 24 q8 -40 24.5 -77t46 -63.5t77 -42t116.5 -15.5q70 0 116 15.5t75.5 42t46 63.5t26.5 77l121 -22q-14 -61 -37.5 -117.5t-67.5 -97.5t-111.5 -65.5t-168.5 -24.5z" />
<glyph unicode="&#x40f;" horiz-adv-x="1581" d="M711 0h-533v1518h162v-1373h903v1373h160v-1518h-531v-340h-161v340z" />
<glyph unicode="&#x410;" horiz-adv-x="1487" d="M659 1528h162l609 -1528h-164l-140 350h-778l-137 -350h-160zM1069 498l-332 835l-334 -835h666z" />
<glyph unicode="&#x411;" horiz-adv-x="1454" d="M178 1518h993v-154h-839v-475h512q264 0 388 -98.5t124 -331.5q0 -238 -123 -348.5t-391 -110.5h-664v1518zM846 141q84 0 149.5 15.5t109.5 50.5t67.5 94t23.5 150q0 90 -22.5 147t-67.5 90t-111.5 45t-154.5 12h-508v-604h514z" />
<glyph unicode="&#x412;" horiz-adv-x="1440" d="M178 1518h660q252 0 367.5 -91.5t115.5 -277.5q0 -131 -53.5 -225.5t-155.5 -124.5q246 -62 246 -379q0 -115 -34 -195t-101.5 -130t-168 -72.5t-233.5 -22.5h-643v1518zM838 145q186 0 272 68t86 221q0 146 -86 212.5t-276 66.5h-498v-568h502zM842 860q94 0 154.5 20.5 t96 56.5t50 85t14.5 106q0 119 -72.5 180.5t-242.5 61.5h-506v-510h506z" />
<glyph unicode="&#x413;" horiz-adv-x="1204" d="M178 1518h969v-154h-807v-1364h-162v1518z" />
<glyph unicode="&#x414;" horiz-adv-x="1780" d="M98 147h54q43 0 67.5 8.5t38.5 26t18.5 46t4.5 69.5v1221h1222v-1371h178v-487h-161v340h-1262v-340h-160v487zM1341 143v1225h-903v-1077q0 -47 -5 -85t-36 -63h944z" />
<glyph unicode="&#x415;" horiz-adv-x="1309" d="M178 1518h1004v-154h-842v-502h821v-151h-821v-564h850v-147h-1012v1518z" />
<glyph unicode="&#x416;" horiz-adv-x="2376" d="M264 0h-186l639 834l-565 684h184l510 -615h262v615h160v-615h262l510 615h184l-566 -684l640 -834h-187l-575 748h-268v-748h-160v748h-269z" />
<glyph unicode="&#x417;" horiz-adv-x="1358" d="M676 -25q-180 0 -335 32t-288 110l78 133q123 -66 259 -95.5t280 -29.5q116 0 200 14.5t138.5 49t79 96t24.5 155.5q0 76 -17.5 132.5t-69.5 95.5t-145.5 58t-246.5 19h-324v148h320q123 0 208 14.5t136 45t73.5 80.5t22.5 124q0 68 -23.5 114t-72.5 72.5t-125 38 t-180 11.5q-60 0 -126.5 -7.5t-132 -21.5t-126 -33.5t-107.5 -46.5l-82 129q53 33 124 56.5t148.5 40t157.5 24.5t154 8q133 0 236.5 -18.5t174 -59.5t106.5 -108.5t36 -167.5q0 -78 -11.5 -135.5t-38 -98.5t-67.5 -69.5t-102 -46.5q75 -21 126.5 -53.5t81 -82t42 -116 t12.5 -154.5q0 -133 -41 -220t-118 -140.5t-187.5 -75t-251.5 -21.5z" />
<glyph unicode="&#x418;" horiz-adv-x="1595" d="M178 1518h152v-1244l911 1244h176v-1518h-151v1282l-940 -1282h-148v1518z" />
<glyph unicode="&#x419;" horiz-adv-x="1595" d="M178 1518h152v-1244l911 1244h176v-1518h-151v1282l-940 -1282h-148v1518zM794 1587q-102 0 -169.5 24.5t-110.5 65.5t-67 96t-36 117l119 24q8 -40 24.5 -77t46 -63.5t77 -42t116.5 -15.5q70 0 116 15.5t75.5 42t46 63.5t26.5 77l121 -22q-14 -61 -37.5 -117.5 t-67.5 -97.5t-111.5 -65.5t-168.5 -24.5z" />
<glyph unicode="&#x41a;" horiz-adv-x="1448" d="M180 1518h158v-615h264l510 615h184l-566 -684l640 -834h-188l-574 748h-270v-748h-158v1518z" />
<glyph unicode="&#x41b;" horiz-adv-x="1681" d="M98 147h49q43 0 69 8.5t39 26t17 46t4 69.5v1221h1227v-1518h-162v1368h-903v-1098q0 -71 -12 -123.5t-40 -85t-74 -48t-115 -15.5h-23q-14 0 -29.5 1t-29 2t-17.5 1v145z" />
<glyph unicode="&#x41c;" horiz-adv-x="1872" d="M178 1518h209l549 -1295l553 1295h205v-1518h-158v1249l-535 -1249h-135l-534 1249v-1249h-154v1518z" />
<glyph unicode="&#x41d;" horiz-adv-x="1591" d="M178 1518h162v-648h911v648h160v-1518h-160v713h-911v-713h-162v1518z" />
<glyph unicode="&#x41e;" horiz-adv-x="1708" d="M852 -25q-182 0 -323.5 46.5t-238.5 142.5t-148.5 244.5t-51.5 351.5q0 405 198.5 593.5t563.5 188.5q182 0 324.5 -46t241 -142.5t149.5 -243.5t51 -350t-51 -351.5t-149.5 -244.5t-241 -142.5t-324.5 -46.5zM852 125q311 0 457.5 160.5t146.5 472.5q0 309 -146.5 470 t-457.5 161q-309 0 -454.5 -162t-145.5 -469q0 -309 145.5 -471t454.5 -162z" />
<glyph unicode="&#x41f;" horiz-adv-x="1581" d="M178 1518h1225v-1518h-160v1368h-907v-1368h-158v1518z" />
<glyph unicode="&#x420;" horiz-adv-x="1446" d="M178 1518h666q266 0 389 -109t123 -344q0 -238 -123 -359.5t-391 -121.5h-506v-584h-158v1518zM846 733q170 0 260 73t90 253q0 88 -22.5 148.5t-67.5 95t-111.5 50t-154.5 15.5h-504v-635h510z" />
<glyph unicode="&#x421;" horiz-adv-x="1477" d="M838 -23q-383 0 -565.5 199t-182.5 584q0 397 197.5 589.5t558.5 192.5q162 0 296 -47t234 -143l-114 -115q-82 74 -187.5 113t-230.5 39q-592 0 -592 -631q0 -312 144.5 -470.5t449.5 -158.5q86 0 150.5 12.5t114.5 34t89 50t74 59.5l112 -109q-38 -39 -87.5 -74.5 t-115 -63.5t-150.5 -44.5t-195 -16.5z" />
<glyph unicode="&#x422;" horiz-adv-x="1409" d="M625 1364h-570v154h1301v-154h-570v-1364h-161v1364z" />
<glyph unicode="&#x423;" horiz-adv-x="1419" d="M53 1518h170l518 -986l484 986h161l-647 -1289q-30 -61 -58 -105t-61.5 -71.5t-78.5 -41t-109 -13.5h-65q-17 0 -33.5 1t-24.5 1v143h101q39 0 65.5 5.5t46 19.5t35.5 37.5t33 58.5l59 122z" />
<glyph unicode="&#x424;" horiz-adv-x="1827" d="M831 1518h162v-111q342 -13 532 -163q212 -167 212 -484q0 -320 -213 -486q-191 -148 -531 -162v-112h-162v112q-339 14 -529 162q-212 166 -212 486q0 317 212 484q189 149 529 163v111zM1575 756q0 112 -38 205.5t-119 160t-206 103.5q-96 28 -219 34v-1003 q122 7 218 35q126 37 207 103.5t119 158.5t38 203zM614 1225q-125 -37 -205.5 -103.5t-119.5 -160t-39 -205.5q0 -111 39 -203t119.5 -158.5t205.5 -103.5q95 -28 217 -35v1003q-123 -6 -217 -34z" />
<glyph unicode="&#x425;" horiz-adv-x="1452" d="M131 1518h176l424 -605l416 605h178l-510 -725l557 -793h-180l-472 675l-462 -675h-176l555 794z" />
<glyph unicode="&#x426;" horiz-adv-x="1681" d="M1421 0h-1243v1518h162v-1373h903v1373h160v-1371h180v-487h-162v340z" />
<glyph unicode="&#x427;" horiz-adv-x="1499" d="M1159 668q-16 -35 -54 -69t-100.5 -61.5t-150.5 -45t-203 -17.5q-166 0 -267 35t-157.5 97.5t-75 149.5t-18.5 191v570h158v-541q0 -80 14 -144.5t57.5 -108.5t123 -68.5t210.5 -24.5q142 0 232 28.5t141 78.5t70.5 120t19.5 150v510h162v-1518h-162v668z" />
<glyph unicode="&#x428;" horiz-adv-x="2400" d="M178 1526h162v-1381h780v1381h162v-1381h780v1381h158v-1526h-2042v1526z" />
<glyph unicode="&#x429;" horiz-adv-x="2499" d="M2238 0h-2060v1526h162v-1381h780v1381h162v-1381h780v1381h158v-1379h180v-487h-162v340z" />
<glyph unicode="&#x42a;" horiz-adv-x="1526" d="M258 1364h-178v154h336v-609h508q264 0 388 -104.5t124 -337.5q0 -236 -123 -351.5t-391 -115.5h-664v1364zM926 143q168 0 259 70t91 248q0 88 -22.5 147.5t-67.5 94t-111.5 49t-154.5 14.5h-504v-623h510z" />
<glyph unicode="&#x42b;" horiz-adv-x="1843" d="M178 1518h158v-609h508q264 0 388 -104.5t124 -337.5q0 -236 -123 -351.5t-391 -115.5h-664v1518zM846 143q168 0 259 70t91 248q0 88 -22.5 147.5t-67.5 94t-111.5 49t-154.5 14.5h-504v-623h510zM1505 1518h162v-1518h-162v1518z" />
<glyph unicode="&#x42c;" horiz-adv-x="1446" d="M178 1518h158v-609h508q264 0 388 -104.5t124 -337.5q0 -236 -123 -351.5t-391 -115.5h-664v1518zM846 143q168 0 259 70t91 248q0 88 -22.5 147.5t-67.5 94t-111.5 49t-154.5 14.5h-504v-623h510z" />
<glyph unicode="&#x42d;" horiz-adv-x="1477" d="M283 702v152h940q-21 244 -152 377q-156 158 -438 158q-121 0 -231.5 -39t-192.5 -113l-109 115q101 96 240 143t299 47q172 0 310 -48t235.5 -144.5t149.5 -244t52 -345.5q0 -387 -187 -585t-560 -198q-109 0 -193 16.5t-150.5 44.5t-116.5 63.5t-89 74.5l107 111 q67 -66 169.5 -112t272.5 -46q289 0 438 158q136 144 148 415h-942z" />
<glyph unicode="&#x42e;" horiz-adv-x="2226" d="M178 1518h162v-662h277q21 332 193 497q196 189 560 189q182 0 324.5 -46t241 -142.5t149.5 -243.5t51 -350t-51 -351.5t-149.5 -244.5t-241 -142.5t-324.5 -46.5t-322.5 46.5t-236.5 142.5t-147 244q-43 128 -49 297h-275v-705h-162v1518zM1370 125q311 0 456.5 160.5 t145.5 472.5q0 309 -145.5 470t-456.5 161q-309 0 -455.5 -162t-146.5 -469q0 -309 146.5 -471t455.5 -162z" />
<glyph unicode="&#x42f;" horiz-adv-x="1470" d="M1135 618h-454l-362 -618h-172l366 625q-170 22 -264 108q-126 115 -126 340t124 335t390 110h655v-1518h-157v618zM1135 764v608h-494q-84 0 -150.5 -14.5t-112.5 -50t-69.5 -94t-23.5 -146.5t24.5 -146.5t69.5 -93t110.5 -49t145.5 -14.5h500z" />
<glyph unicode="&#x430;" d="M487 -20q-118 0 -195 25.5t-122 70.5t-62.5 106.5t-17.5 132.5q0 121 37 201t125 128t232.5 68.5t359.5 20.5h67q-2 61 -9 107q-9 59 -41 97t-92 56.5t-163 18.5q-108 0 -196 -32t-142 -67l-82 121q27 19 72 40.5t101.5 40t122 30.5t136.5 12q144 0 231 -25.5t134 -81 t62.5 -142.5t15.5 -208v-426q0 -45 3 -72.5t14.5 -42t35 -18.5t64.5 -4v-135q-11 -4 -62 -4q-49 0 -82 8t-53 24.5t-31.5 44t-17.5 64.5q-27 -41 -64 -70.5t-90 -49t-124.5 -29.5t-166.5 -10zM549 580q-119 -11 -187.5 -41.5t-95 -81.5t-26.5 -131q0 -52 13 -90.5t44 -66.5 t83 -42t130 -14q215 0 308 95t93 302v82h-59q-184 0 -303 -12z" />
<glyph unicode="&#x431;" horiz-adv-x="1292" d="M647 -23q-285 0 -416 146.5t-131 462.5v256q0 245 52.5 393.5t139.5 226.5t201.5 102.5t241.5 24.5h156v-143h-150q-110 0 -200 -23.5t-152.5 -81t-97.5 -150.5t-35 -233q49 86 151.5 129t278.5 43q145 0 242.5 -40.5t156 -115.5t83 -182.5t24.5 -240.5 q0 -137 -29.5 -243.5t-94 -180.5t-169 -112t-252.5 -38zM647 119q211 0 299 110.5t88 323.5q0 215 -88 324.5t-299 109.5q-213 0 -302 -109.5t-89 -324.5q0 -213 89 -323.5t302 -110.5z" />
<glyph unicode="&#x432;" horiz-adv-x="1245" d="M156 1130h563q199 0 293 -59t94 -211q0 -104 -27.5 -170.5t-122.5 -93.5q103 -25 142 -91.5t39 -191.5q0 -96 -27 -156.5t-80 -95t-134 -48t-189 -13.5h-551v1130zM719 135q135 0 200.5 39t65.5 156q0 106 -64.5 147t-205.5 41h-412v-383h416zM721 655q70 0 116 12.5 t72.5 35t36.5 55.5t10 76q0 90 -54 122.5t-181 32.5h-418v-334h418z" />
<glyph unicode="&#x433;" horiz-adv-x="1032" d="M156 1130h827v-141h-672v-989h-155v1130z" />
<glyph unicode="&#x434;" horiz-adv-x="1505" d="M92 137h49q43 0 69 8.5t39 25.5t17 46t4 70v843h965v-993h178v-477h-147v340h-1028v-340h-146v477zM1081 131v860h-655v-712q0 -54 -7 -88.5t-36 -59.5h698z" />
<glyph unicode="&#x435;" horiz-adv-x="1214" d="M643 -23q-170 0 -276.5 46.5t-166 126t-80 187t-20.5 230.5t22.5 230.5t82 187.5t164 126t268.5 46q170 0 265 -54t139 -143.5t53 -205.5q8 -97 8 -197v-43h-852q3 -70 14 -132q15 -83 56.5 -142.5t118.5 -93t204 -33.5q70 0 123 8t95 23.5t77 37t70 45.5l84 -108 q-84 -66 -188.5 -104t-260.5 -38zM954 655q-4 76 -13 141.5t-40 115t-94.5 78t-173.5 28.5q-121 0 -197 -34t-116.5 -94.5t-55.5 -143.5q-7 -43 -11 -91h701z" />
<glyph unicode="&#x436;" horiz-adv-x="1774" d="M963 0h-152v530h-186l-402 -530h-182l461 613l-418 517h180l365 -446h182v446h152v-446h182l364 446h181l-419 -516l462 -614h-183l-401 530h-186v-530z" />
<glyph unicode="&#x437;" horiz-adv-x="1147" d="M549 -25q-143 0 -270 25t-230 84l70 123q92 -49 195.5 -70.5t220.5 -21.5q96 0 161.5 8t106.5 31.5t59.5 65.5t18.5 110q0 57 -12.5 97t-51.5 65.5t-112.5 38t-198.5 12.5h-250v141h246q104 0 170.5 7t105.5 26.5t54.5 54.5t15.5 88q0 49 -16.5 80t-54.5 48.5t-98.5 22.5 t-146.5 5q-98 0 -203.5 -19.5t-174.5 -60.5l-78 123q43 24 101.5 42.5t120.5 31t128 18.5t125 6q119 0 205 -12t141 -43t82 -83t27 -130q0 -115 -34 -175.5t-122 -88.5q59 -17 96 -41.5t56.5 -61.5t26.5 -87t7 -116q0 -102 -29.5 -168.5t-90 -105.5t-152.5 -54.5t-215 -15.5 z" />
<glyph unicode="&#x438;" horiz-adv-x="1282" d="M156 1130h151v-876l647 876h172v-1130h-151v913l-676 -913h-143v1130z" />
<glyph unicode="&#x439;" horiz-adv-x="1282" d="M156 1130h151v-876l647 876h172v-1130h-151v913l-676 -913h-143v1130zM639 1229q-102 0 -169.5 24.5t-110.5 65.5t-67 96t-36 117l119 24q8 -40 24.5 -77t46 -63.5t77 -42t116.5 -15.5q70 0 116 15.5t75.5 42t46 63.5t26.5 77l121 -22q-14 -61 -37.5 -117.5t-67.5 -97.5 t-111.5 -65.5t-168.5 -24.5z" />
<glyph unicode="&#x43a;" horiz-adv-x="1120" d="M309 0h-153v1130h153v-446h183l364 446h180l-419 -517l462 -613h-182l-401 530h-187v-530z" />
<glyph unicode="&#x43b;" horiz-adv-x="1393" d="M92 137h49q43 0 69 8.5t40 25.5t18 46t4 70v843h965v-1130h-156v991h-655v-721q0 -71 -11.5 -123.5t-38 -85t-71.5 -48t-115 -15.5h-23q-15 0 -30.5 1t-29 2t-15.5 1v135z" />
<glyph unicode="&#x43c;" horiz-adv-x="1499" d="M156 1130h194l416 -927l416 927h190v-1130h-153v885l-396 -885h-129l-393 885v-885h-145v1130z" />
<glyph unicode="&#x43d;" horiz-adv-x="1280" d="M156 1130h155v-468h656v468h155v-1130h-155v514h-656v-514h-155v1130z" />
<glyph unicode="&#x43e;" horiz-adv-x="1292" d="M645 -23q-293 0 -419 148.5t-126 441.5q0 146 30 256.5t95.5 184t169 111.5t250.5 38q293 0 420 -149.5t127 -440.5q0 -293 -127 -441.5t-420 -148.5zM645 119q213 0 301 113.5t88 330.5t-88 332t-301 115t-301 -115t-88 -332t88 -330.5t301 -113.5z" />
<glyph unicode="&#x43f;" horiz-adv-x="1278" d="M156 1130h964v-1130h-153v991h-658v-991h-153v1130z" />
<glyph unicode="&#x440;" horiz-adv-x="1325" d="M156 1122l123 8l14 -135q47 82 150.5 122t297.5 40q142 0 235 -42t148.5 -118.5t78 -186.5t22.5 -243t-22.5 -240.5t-79 -184t-150.5 -118.5t-238 -42q-184 0 -281.5 36.5t-142.5 114.5v-471h-155v1460zM711 123q104 0 172.5 29.5t109.5 87t57.5 138.5t16.5 185 q0 105 -16.5 186.5t-56.5 140t-108.5 89.5t-174.5 31q-107 0 -182.5 -22.5t-124 -75t-71 -138.5t-22.5 -211t21.5 -210t70 -136t124 -72.5t184.5 -21.5z" />
<glyph unicode="&#x441;" horiz-adv-x="1153" d="M641 -20q-158 0 -262.5 40.5t-165.5 117.5t-87 185.5t-26 243.5t26 244t87 185.5t166.5 118.5t265.5 42q152 0 249 -48t159 -114l-113 -106q-41 41 -110.5 80t-184.5 39q-110 0 -185 -30t-120 -87t-64.5 -139t-19.5 -189q0 -104 18.5 -187t63.5 -139.5t119.5 -87 t187.5 -30.5q98 0 168 29.5t135 89.5l105 -99q-84 -78 -177.5 -118.5t-234.5 -40.5z" />
<glyph unicode="&#x442;" horiz-adv-x="1110" d="M477 989h-428v141h1012v-141h-428v-989h-156v989z" />
<glyph unicode="&#x443;" horiz-adv-x="1085" d="M23 1130h163l361 -939l356 939h160l-488 -1243q-22 -61 -49.5 -104t-65.5 -70.5t-87 -41t-115 -13.5h-48q-15 0 -28.5 1t-21.5 1v127h88q78 0 115.5 25.5t60.5 91.5l40 104z" />
<glyph unicode="&#x444;" horiz-adv-x="2177" d="M1014 135q-56 -82 -154 -118.5t-274 -36.5q-142 0 -235 41.5t-149.5 119.5t-79 187.5t-22.5 242.5q0 131 23.5 240t80 185.5t151 118.5t235.5 42q184 0 281.5 -37t142.5 -114v583h147v-585q47 79 149.5 116t282.5 37q142 0 235 -42t147.5 -118.5t77 -186.5t22.5 -243 t-22.5 -240.5t-78 -184t-149.5 -118.5t-238 -42q-184 0 -282.5 36.5t-143.5 114.5v-471h-147v473zM614 123q107 0 182.5 22.5t124 75.5t71 138t22.5 212q0 125 -21.5 209t-70 135.5t-124 73t-184.5 21.5q-104 0 -173.5 -30t-109.5 -86t-56.5 -138t-16.5 -185 q0 -104 16.5 -187t56.5 -141.5t109.5 -89t173.5 -30.5zM1563 123q104 0 172.5 29.5t109.5 87t57.5 138.5t16.5 185q0 105 -16.5 186.5t-56.5 140t-109.5 89.5t-173.5 31q-107 0 -182.5 -22.5t-125 -75t-72 -138.5t-22.5 -211t22.5 -210t71 -136t124 -72.5t184.5 -21.5z" />
<glyph unicode="&#x445;" horiz-adv-x="1108" d="M78 1130h170l311 -430l305 430h168l-392 -542l427 -588h-174l-346 479l-338 -479h-168l426 591z" />
<glyph unicode="&#x446;" horiz-adv-x="1391" d="M1151 0h-995v1130h155v-995h656v995h153v-993h180v-477h-149v340z" />
<glyph unicode="&#x447;" horiz-adv-x="1268" d="M956 436q-32 -59 -129.5 -103t-285.5 -44q-138 0 -220.5 33.5t-128 95t-59.5 147.5t-14 191v374h153v-348q0 -75 10.5 -137.5t42 -107.5t94 -70t167.5 -25q112 0 184 28t114 77t57 116.5t15 147.5v319h154v-1130h-154v436z" />
<glyph unicode="&#x448;" horiz-adv-x="2040" d="M156 1130h155v-995h633v995h154v-995h633v995h151v-1130h-1726v1130z" />
<glyph unicode="&#x449;" horiz-adv-x="2152" d="M1915 0h-1759v1130h155v-995h633v995h154v-995h633v995h151v-993h178v-477h-145v340z" />
<glyph unicode="&#x44a;" horiz-adv-x="1360" d="M270 989h-178v141h332v-352h438q393 0 393 -381q0 -190 -96 -293.5t-299 -103.5h-590v989zM840 131q127 0 192.5 61.5t65.5 198.5q0 139 -65.5 196.5t-196.5 57.5h-412v-514h416z" />
<glyph unicode="&#x44b;" horiz-adv-x="1585" d="M156 1130h153v-352h439q393 0 393 -381q0 -190 -96.5 -293.5t-299.5 -103.5h-589v1130zM727 131q125 0 191.5 61.5t66.5 198.5q0 139 -66.5 196.5t-195.5 57.5h-414v-514h418zM1272 1130h155v-1130h-155v1130z" />
<glyph unicode="&#x44c;" horiz-adv-x="1247" d="M156 1130h153v-350h439q393 0 393 -383q0 -190 -96.5 -293.5t-299.5 -103.5h-589v1130zM727 131q125 0 191.5 61.5t66.5 198.5q0 139 -66.5 196.5t-195.5 57.5h-414v-514h418z" />
<glyph unicode="&#x44d;" horiz-adv-x="1153" d="M229 508v139h667q-5 63 -17 116q-19 85 -64 140t-119.5 83t-187.5 28q-111 0 -184.5 -41t-114.5 -84l-107 106q60 66 158 114t252 48q158 0 262.5 -40t165.5 -116.5t87 -186t26 -247.5q0 -139 -26 -248.5t-87 -184.5t-164.5 -114.5t-261.5 -39.5q-72 0 -129 10 t-106.5 30.5t-92.5 50t-86 68.5l97 99q65 -60 139 -89.5t172 -29.5q113 0 188.5 26.5t120.5 82t63 139.5q14 63 18 141h-669z" />
<glyph unicode="&#x44e;" horiz-adv-x="1688" d="M156 1130h155v-473h194q6 93 25 168q29 111 93.5 184.5t167 110.5t249.5 37q291 0 418 -147.5t127 -442.5t-127 -442.5t-418 -147.5q-147 0 -249.5 37t-167 111t-93.5 184q-23 91 -27 207h-192v-516h-155v1130zM1040 119q213 0 301.5 109.5t88.5 334.5t-88.5 336 t-301.5 111q-215 0 -301 -111t-86 -336t86 -334.5t301 -109.5z" />
<glyph unicode="&#x44f;" horiz-adv-x="1272" d="M961 426h-418l-248 -426h-166l254 436q-102 19 -168 73q-102 83 -102 269q0 185 101 268.5t294 83.5h608v-1130h-155v426zM961 559v432h-449q-117 0 -179.5 -45t-62.5 -172q0 -63 15.5 -104t46 -65.5t75 -35t101.5 -10.5h453z" />
<glyph unicode="&#x451;" horiz-adv-x="1214" d="M643 -23q-170 0 -276.5 46.5t-166 126t-80 187t-20.5 230.5t22.5 230.5t82 187.5t164 126t268.5 46q170 0 265 -54t139 -143.5t53 -205.5q8 -97 8 -197v-43h-852q3 -70 14 -132q15 -83 56.5 -142.5t118.5 -93t204 -33.5q70 0 123 8t95 23.5t77 37t70 45.5l84 -108 q-84 -66 -188.5 -104t-260.5 -38zM954 655q-4 76 -13 141.5t-40 115t-94.5 78t-173.5 28.5q-121 0 -197 -34t-116.5 -94.5t-55.5 -143.5q-7 -43 -11 -91h701zM317 1462h144v-209h-144v209zM750 1462h141v-209h-141v209z" />
<glyph unicode="&#x452;" horiz-adv-x="1284" d="M817 -213h14q48 0 76.5 8t45 27.5t22.5 50.5t6 78v711q0 75 -7 137.5t-38 107.5t-90.5 71t-163.5 26q-113 0 -182.5 -28t-108.5 -78t-52 -117.5t-13 -147.5v-633h-156v1272h-182v141h182v176h156v-176h295v-141h-295v-254q16 29 45.5 54.5t77 44t116 29.5t162.5 11 q137 0 218 -33.5t123 -96t54.5 -148.5t12.5 -191v-754q0 -77 -13.5 -129.5t-46.5 -85t-88 -47t-141 -14.5h-29v129z" />
<glyph unicode="&#x453;" horiz-adv-x="1032" d="M156 1130h827v-141h-672v-989h-155v1130zM671 1569h190l-352 -320h-148z" />
<glyph unicode="&#x454;" horiz-adv-x="1153" d="M641 -20q-158 0 -262.5 39.5t-165.5 114.5t-87 184.5t-26 248.5q0 138 26 247.5t87 186t166.5 116.5t265.5 40q154 0 251 -48t157 -114l-107 -106q-41 43 -113.5 84t-187.5 41q-110 0 -186 -28t-121 -83t-65 -140q-12 -53 -17 -116h668v-139h-669q3 -78 17 -141 q19 -84 64 -139.5t120.5 -82t188.5 -26.5q98 0 171 29.5t138 89.5l99 -99q-84 -78 -177.5 -118.5t-234.5 -40.5z" />
<glyph unicode="&#x455;" horiz-adv-x="1069" d="M532 -20q-112 0 -233 25.5t-238 100.5l82 121q101 -65 204.5 -88.5t193.5 -23.5q75 0 131.5 8t93.5 30.5t55.5 61.5t18.5 98q0 47 -16.5 78t-52.5 51.5t-92 35t-138 30.5q-99 18 -177.5 39.5t-134 57.5t-85 93.5t-29.5 149.5q0 74 22.5 131t73.5 97t132 60.5t198 20.5 q129 0 232.5 -25.5t180.5 -72.5l-73 -127q-66 35 -150 58.5t-188 23.5q-80 0 -133.5 -11.5t-84 -33t-44 -52t-13.5 -69.5q0 -47 16.5 -78t50.5 -52.5t87 -35.5t127 -29q102 -20 184 -40.5t138.5 -55.5t87 -91t30.5 -147q0 -96 -27.5 -161.5t-84 -105.5t-142.5 -56t-203 -16z " />
<glyph unicode="&#x456;" horiz-adv-x="487" d="M166 1130h153v-1130h-153v1130zM166 1501h156v-221h-156v221z" />
<glyph unicode="&#x457;" horiz-adv-x="487" d="M-14 1487h131v-209h-131v209zM371 1487h131v-209h-131v209zM166 1130h153v-1130h-153v1130z" />
<glyph unicode="&#x458;" horiz-adv-x="487" d="M4 -213h12q50 0 78.5 9t45 28.5t21.5 53.5t5 85v1167h153v-1167q0 -86 -11 -144.5t-44 -94t-89 -51t-144 -15.5h-27v129zM166 1501h156v-221h-156v221z" />
<glyph unicode="&#x459;" horiz-adv-x="2154" d="M92 137h49q43 0 69 8.5t40 25.5t18 46t4 70v843h953v-352h432q393 0 393 -381q0 -190 -97.5 -293.5t-297.5 -103.5h-582v991h-647v-721q0 -71 -11.5 -123.5t-38 -85t-71.5 -48t-115 -15.5h-23q-15 0 -30.5 1t-29 2t-15.5 1v135zM1636 131q125 0 190.5 61.5t65.5 198.5 q0 139 -65.5 196.5t-196.5 57.5h-405v-514h411z" />
<glyph unicode="&#x45a;" horiz-adv-x="2040" d="M156 1130h155v-468h650v468h151v-352h432q391 0 391 -381q0 -190 -96 -293.5t-297 -103.5h-581v514h-650v-514h-155v1130zM1522 131q125 0 190.5 61.5t65.5 198.5q0 139 -64.5 196.5t-195.5 57.5h-406v-514h410z" />
<glyph unicode="&#x45b;" horiz-adv-x="1284" d="M-12 1413h182v176h156v-176h295v-141h-295v-254q16 29 45.5 54.5t77 44t116 29.5t162.5 11q137 0 218 -33.5t123 -96t54.5 -148.5t12.5 -191v-688h-154v662q0 75 -7 137.5t-38 107.5t-90.5 71t-163.5 26q-113 0 -182.5 -28t-108.5 -78t-52 -117.5t-13 -147.5v-633h-156 v1272h-182v141z" />
<glyph unicode="&#x45c;" horiz-adv-x="1120" d="M309 0h-153v1130h153v-446h183l364 446h180l-419 -517l462 -613h-182l-401 530h-187v-530zM749 1569h190l-352 -320h-148z" />
<glyph unicode="&#x45e;" horiz-adv-x="1085" d="M23 1130h163l361 -939l356 939h160l-488 -1243q-22 -61 -49.5 -104t-65.5 -70.5t-87 -41t-115 -13.5h-48q-15 0 -28.5 1t-21.5 1v127h88q78 0 115.5 25.5t60.5 91.5l40 104zM546 1229q-102 0 -169.5 24.5t-110.5 65.5t-67 96t-36 117l119 24q8 -40 24.5 -77t46 -63.5 t77 -42t116.5 -15.5q70 0 116 15.5t75.5 42t46 63.5t26.5 77l121 -22q-14 -61 -37.5 -117.5t-67.5 -97.5t-111.5 -65.5t-168.5 -24.5z" />
<glyph unicode="&#x45f;" horiz-adv-x="1278" d="M565 0h-409v1130h155v-995h656v995h153v-1130h-407v-340h-148v340z" />
<glyph unicode="&#x490;" horiz-adv-x="1204" d="M178 1518h809v340h160v-494h-807v-1364h-162v1518z" />
<glyph unicode="&#x491;" horiz-adv-x="1032" d="M156 1130h680v338h147v-479h-672v-989h-155v1130z" />
<glyph unicode="&#x1e80;" horiz-adv-x="2218" d="M72 1518h166l399 -1256l407 1256h140l405 -1256l402 1256h155l-487 -1528h-139l-410 1263l-408 -1263h-141zM770 1927h191l309 -320h-148z" />
<glyph unicode="&#x1e81;" horiz-adv-x="1794" d="M31 1130h162l325 -915l305 915h154l303 -913l326 913h157l-407 -1140h-154l-305 907l-305 -907h-154zM553 1569h191l309 -320h-148z" />
<glyph unicode="&#x1e82;" horiz-adv-x="2218" d="M72 1518h166l399 -1256l407 1256h140l405 -1256l402 1256h155l-487 -1528h-139l-410 1263l-408 -1263h-141zM1264 1927h190l-352 -320h-148z" />
<glyph unicode="&#x1e83;" horiz-adv-x="1794" d="M31 1130h162l325 -915l305 915h154l303 -913l326 913h157l-407 -1140h-154l-305 907l-305 -907h-154zM1047 1569h190l-352 -320h-148z" />
<glyph unicode="&#x1e84;" horiz-adv-x="2218" d="M72 1518h166l399 -1256l407 1256h140l405 -1256l402 1256h155l-487 -1528h-139l-410 1263l-408 -1263h-141zM821 1820h144v-209h-144v209zM1254 1820h141v-209h-141v209z" />
<glyph unicode="&#x1e85;" horiz-adv-x="1794" d="M31 1130h162l325 -915l305 915h154l303 -913l326 913h157l-407 -1140h-154l-305 907l-305 -907h-154zM608 1462h144v-209h-144v209zM1041 1462h141v-209h-141v209z" />
<glyph unicode="&#x1ea0;" horiz-adv-x="1487" d="M659 1528h162l609 -1528h-164l-140 350h-778l-137 -350h-160zM1069 498l-332 835l-334 -835h666zM663 -141h156v-219h-156v219z" />
<glyph unicode="&#x1ea1;" d="M487 -20q-118 0 -195 25.5t-122 70.5t-62.5 106.5t-17.5 132.5q0 121 37 201t125 128t232.5 68.5t359.5 20.5h67q-2 61 -9 107q-9 59 -41 97t-92 56.5t-163 18.5q-108 0 -196 -32t-142 -67l-82 121q27 19 72 40.5t101.5 40t122 30.5t136.5 12q144 0 231 -25.5t134 -81 t62.5 -142.5t15.5 -208v-426q0 -45 3 -72.5t14.5 -42t35 -18.5t64.5 -4v-135q-11 -4 -62 -4q-49 0 -82 8t-53 24.5t-31.5 44t-17.5 64.5q-27 -41 -64 -70.5t-90 -49t-124.5 -29.5t-166.5 -10zM549 580q-119 -11 -187.5 -41.5t-95 -81.5t-26.5 -131q0 -52 13 -90.5t44 -66.5 t83 -42t130 -14q215 0 308 95t93 302v82h-59q-184 0 -303 -12zM551 -141h156v-219h-156v219z" />
<glyph unicode="&#x1ea2;" horiz-adv-x="1487" d="M659 1528h162l609 -1528h-164l-140 350h-778l-137 -350h-160zM1069 498l-332 835l-334 -835h666zM684 1579q-11 76 7.5 120t84.5 85q55 35 75.5 54.5t20.5 54.5q0 34 -26.5 55.5t-106.5 21.5q-49 0 -91 -10t-83 -31l-47 99q45 22 104.5 34.5t122.5 12.5q72 0 120 -13.5 t77.5 -36t42 -53t12.5 -65.5q0 -66 -31.5 -103.5t-89.5 -72.5q-26 -17 -42.5 -30t-26 -29.5t-11.5 -38t0 -54.5h-112z" />
<glyph unicode="&#x1ea3;" d="M487 -20q-118 0 -195 25.5t-122 70.5t-62.5 106.5t-17.5 132.5q0 121 37 201t125 128t232.5 68.5t359.5 20.5h67q-2 61 -9 107q-9 59 -41 97t-92 56.5t-163 18.5q-108 0 -196 -32t-142 -67l-82 121q27 19 72 40.5t101.5 40t122 30.5t136.5 12q144 0 231 -25.5t134 -81 t62.5 -142.5t15.5 -208v-426q0 -45 3 -72.5t14.5 -42t35 -18.5t64.5 -4v-135q-11 -4 -62 -4q-49 0 -82 8t-53 24.5t-31.5 44t-17.5 64.5q-27 -41 -64 -70.5t-90 -49t-124.5 -29.5t-166.5 -10zM549 580q-119 -11 -187.5 -41.5t-95 -81.5t-26.5 -131q0 -52 13 -90.5t44 -66.5 t83 -42t130 -14q215 0 308 95t93 302v82h-59q-184 0 -303 -12zM563 1224q-11 76 7.5 120t84.5 85q55 35 75.5 54.5t20.5 54.5q0 34 -26.5 55.5t-106.5 21.5q-49 0 -91 -10t-83 -31l-47 99q45 22 104.5 34.5t122.5 12.5q72 0 120 -13.5t77.5 -36t42 -53t12.5 -65.5 q0 -66 -31.5 -103.5t-89.5 -72.5q-26 -17 -42.5 -30t-26 -29.5t-11.5 -38t0 -54.5h-112z" />
<glyph unicode="&#x1ea4;" horiz-adv-x="1487" d="M659 1528h162l609 -1528h-164l-140 350h-778l-137 -350h-160zM1069 498l-332 835l-334 -835h666zM654 1927h174l311 -320h-156l-245 219l-242 -219h-154zM441 2091h190l-352 -320h-148z" />
<glyph unicode="&#x1ea5;" d="M487 -20q-118 0 -195 25.5t-122 70.5t-62.5 106.5t-17.5 132.5q0 121 37 201t125 128t232.5 68.5t359.5 20.5h67q-2 61 -9 107q-9 59 -41 97t-92 56.5t-163 18.5q-108 0 -196 -32t-142 -67l-82 121q27 19 72 40.5t101.5 40t122 30.5t136.5 12q144 0 231 -25.5t134 -81 t62.5 -142.5t15.5 -208v-426q0 -45 3 -72.5t14.5 -42t35 -18.5t64.5 -4v-135q-11 -4 -62 -4q-49 0 -82 8t-53 24.5t-31.5 44t-17.5 64.5q-27 -41 -64 -70.5t-90 -49t-124.5 -29.5t-166.5 -10zM549 580q-119 -11 -187.5 -41.5t-95 -81.5t-26.5 -131q0 -52 13 -90.5t44 -66.5 t83 -42t130 -14q215 0 308 95t93 302v82h-59q-184 0 -303 -12zM552 1569h174l311 -320h-156l-245 219l-242 -219h-154zM339 1733h190l-352 -320h-148z" />
<glyph unicode="&#x1ea6;" horiz-adv-x="1487" d="M659 1528h162l609 -1528h-164l-140 350h-778l-137 -350h-160zM1069 498l-332 835l-334 -835h666zM656 1927h174l311 -320h-156l-245 219l-242 -219h-154zM856 2091h191l309 -320h-147z" />
<glyph unicode="&#x1ea7;" d="M487 -20q-118 0 -195 25.5t-122 70.5t-62.5 106.5t-17.5 132.5q0 121 37 201t125 128t232.5 68.5t359.5 20.5h67q-2 61 -9 107q-9 59 -41 97t-92 56.5t-163 18.5q-108 0 -196 -32t-142 -67l-82 121q27 19 72 40.5t101.5 40t122 30.5t136.5 12q144 0 231 -25.5t134 -81 t62.5 -142.5t15.5 -208v-426q0 -45 3 -72.5t14.5 -42t35 -18.5t64.5 -4v-135q-11 -4 -62 -4q-49 0 -82 8t-53 24.5t-31.5 44t-17.5 64.5q-27 -41 -64 -70.5t-90 -49t-124.5 -29.5t-166.5 -10zM549 580q-119 -11 -187.5 -41.5t-95 -81.5t-26.5 -131q0 -52 13 -90.5t44 -66.5 t83 -42t130 -14q215 0 308 95t93 302v82h-59q-184 0 -303 -12zM551 1569h174l311 -320h-156l-245 219l-242 -219h-154zM751 1733h191l309 -320h-147z" />
<glyph unicode="&#x1ea8;" horiz-adv-x="1487" d="M659 1528h162l609 -1528h-164l-140 350h-778l-137 -350h-160zM1069 498l-332 835l-334 -835h666zM651 1927h174l311 -320h-155l-246 219l-242 -219h-153zM682 1980q-10 76 8 120t84 85q55 35 75.5 54.5t20.5 53.5q0 35 -26.5 56.5t-106.5 21.5q-49 0 -91 -10t-83 -31 l-47 99q45 22 104.5 34.5t122.5 12.5q72 0 120 -13.5t78 -36t42 -53t12 -65.5q0 -66 -31.5 -104t-89.5 -72q-26 -17 -42.5 -30t-25.5 -29.5t-11.5 -38t-0.5 -54.5h-112z" />
<glyph unicode="&#x1ea9;" d="M487 -20q-118 0 -195 25.5t-122 70.5t-62.5 106.5t-17.5 132.5q0 121 37 201t125 128t232.5 68.5t359.5 20.5h67q-2 61 -9 107q-9 59 -41 97t-92 56.5t-163 18.5q-108 0 -196 -32t-142 -67l-82 121q27 19 72 40.5t101.5 40t122 30.5t136.5 12q144 0 231 -25.5t134 -81 t62.5 -142.5t15.5 -208v-426q0 -45 3 -72.5t14.5 -42t35 -18.5t64.5 -4v-135q-11 -4 -62 -4q-49 0 -82 8t-53 24.5t-31.5 44t-17.5 64.5q-27 -41 -64 -70.5t-90 -49t-124.5 -29.5t-166.5 -10zM549 580q-119 -11 -187.5 -41.5t-95 -81.5t-26.5 -131q0 -52 13 -90.5t44 -66.5 t83 -42t130 -14q215 0 308 95t93 302v82h-59q-184 0 -303 -12zM547 1569h174l311 -320h-155l-246 219l-242 -219h-153zM578 1622q-10 76 8 120t84 85q55 35 75.5 54.5t20.5 53.5q0 35 -26.5 56.5t-106.5 21.5q-49 0 -91 -10t-83 -31l-47 99q45 22 104.5 34.5t122.5 12.5 q72 0 120 -13.5t78 -36t42 -53t12 -65.5q0 -66 -31.5 -104t-89.5 -72q-26 -17 -42.5 -30t-25.5 -29.5t-11.5 -38t-0.5 -54.5h-112z" />
<glyph unicode="&#x1eaa;" horiz-adv-x="1487" d="M659 1528h162l609 -1528h-164l-140 350h-778l-137 -350h-160zM1069 498l-332 835l-334 -835h666zM651 1927h174l311 -320h-155l-246 219l-242 -219h-153zM356 2062q51 63 116.5 107t133.5 44q51 0 88 -15t67.5 -33.5t60.5 -34t69 -15.5q41 0 81 33t78 78l95 -76 q-54 -66 -117.5 -116t-134.5 -50q-47 0 -83 15.5t-68 35t-64.5 34.5t-69.5 15t-78 -26.5t-76 -71.5z" />
<glyph unicode="&#x1eab;" d="M487 -20q-118 0 -195 25.5t-122 70.5t-62.5 106.5t-17.5 132.5q0 121 37 201t125 128t232.5 68.5t359.5 20.5h67q-2 61 -9 107q-9 59 -41 97t-92 56.5t-163 18.5q-108 0 -196 -32t-142 -67l-82 121q27 19 72 40.5t101.5 40t122 30.5t136.5 12q144 0 231 -25.5t134 -81 t62.5 -142.5t15.5 -208v-426q0 -45 3 -72.5t14.5 -42t35 -18.5t64.5 -4v-135q-11 -4 -62 -4q-49 0 -82 8t-53 24.5t-31.5 44t-17.5 64.5q-27 -41 -64 -70.5t-90 -49t-124.5 -29.5t-166.5 -10zM549 580q-119 -11 -187.5 -41.5t-95 -81.5t-26.5 -131q0 -52 13 -90.5t44 -66.5 t83 -42t130 -14q215 0 308 95t93 302v82h-59q-184 0 -303 -12zM549 1569h174l311 -320h-155l-246 219l-242 -219h-153zM254 1704q51 63 116.5 107t133.5 44q51 0 88 -15t67.5 -33.5t60.5 -34t69 -15.5q41 0 81 33t78 78l95 -76q-54 -66 -117.5 -116t-134.5 -50 q-47 0 -83 15.5t-68 35t-64.5 34.5t-69.5 15t-78 -26.5t-76 -71.5z" />
<glyph unicode="&#x1eac;" horiz-adv-x="1487" d="M659 1528h162l609 -1528h-164l-140 350h-778l-137 -350h-160zM1069 498l-332 835l-334 -835h666zM651 1927h174l311 -320h-155l-246 219l-242 -219h-153zM663 -141h156v-219h-156v219z" />
<glyph unicode="&#x1ead;" d="M487 -20q-118 0 -195 25.5t-122 70.5t-62.5 106.5t-17.5 132.5q0 121 37 201t125 128t232.5 68.5t359.5 20.5h67q-2 61 -9 107q-9 59 -41 97t-92 56.5t-163 18.5q-108 0 -196 -32t-142 -67l-82 121q27 19 72 40.5t101.5 40t122 30.5t136.5 12q144 0 231 -25.5t134 -81 t62.5 -142.5t15.5 -208v-426q0 -45 3 -72.5t14.5 -42t35 -18.5t64.5 -4v-135q-11 -4 -62 -4q-49 0 -82 8t-53 24.5t-31.5 44t-17.5 64.5q-27 -41 -64 -70.5t-90 -49t-124.5 -29.5t-166.5 -10zM549 580q-119 -11 -187.5 -41.5t-95 -81.5t-26.5 -131q0 -52 13 -90.5t44 -66.5 t83 -42t130 -14q215 0 308 95t93 302v82h-59q-184 0 -303 -12zM549 1569h174l311 -320h-155l-246 219l-242 -219h-153zM551 -141h156v-219h-156v219z" />
<glyph unicode="&#x1eae;" horiz-adv-x="1487" d="M659 1528h162l609 -1528h-164l-140 350h-778l-137 -350h-160zM1069 498l-332 835l-334 -835h666zM739 1587q-102 0 -169.5 24.5t-110.5 65.5t-67 96t-36 117l119 24q8 -40 24.5 -77t46 -63.5t77 -42t116.5 -15.5q70 0 116 15.5t75.5 42t46 63.5t26.5 77l121 -22 q-14 -61 -37.5 -117.5t-67.5 -97.5t-111.5 -65.5t-168.5 -24.5zM960 2295h191l-352 -319h-148z" />
<glyph unicode="&#x1eaf;" d="M487 -20q-118 0 -195 25.5t-122 70.5t-62.5 106.5t-17.5 132.5q0 121 37 201t125 128t232.5 68.5t359.5 20.5h67q-2 61 -9 107q-9 59 -41 97t-92 56.5t-163 18.5q-108 0 -196 -32t-142 -67l-82 121q27 19 72 40.5t101.5 40t122 30.5t136.5 12q144 0 231 -25.5t134 -81 t62.5 -142.5t15.5 -208v-426q0 -45 3 -72.5t14.5 -42t35 -18.5t64.5 -4v-135q-11 -4 -62 -4q-49 0 -82 8t-53 24.5t-31.5 44t-17.5 64.5q-27 -41 -64 -70.5t-90 -49t-124.5 -29.5t-166.5 -10zM549 580q-119 -11 -187.5 -41.5t-95 -81.5t-26.5 -131q0 -52 13 -90.5t44 -66.5 t83 -42t130 -14q215 0 308 95t93 302v82h-59q-184 0 -303 -12zM637 1229q-102 0 -169.5 24.5t-110.5 65.5t-67 96t-36 117l119 24q8 -40 24.5 -77t46 -63.5t77 -42t116.5 -15.5q70 0 116 15.5t75.5 42t46 63.5t26.5 77l121 -22q-14 -61 -37.5 -117.5t-67.5 -97.5 t-111.5 -65.5t-168.5 -24.5zM858 1937h191l-352 -319h-148z" />
<glyph unicode="&#x1eb0;" horiz-adv-x="1487" d="M659 1528h162l609 -1528h-164l-140 350h-778l-137 -350h-160zM1069 498l-332 835l-334 -835h666zM739 1587q-102 0 -169.5 24.5t-110.5 65.5t-67 96t-36 117l119 24q8 -40 24.5 -77t46 -63.5t77 -42t116.5 -15.5q70 0 116 15.5t75.5 42t46 63.5t26.5 77l121 -22 q-14 -61 -37.5 -117.5t-67.5 -97.5t-111.5 -65.5t-168.5 -24.5zM334 2295h190l309 -319h-147z" />
<glyph unicode="&#x1eb1;" d="M487 -20q-118 0 -195 25.5t-122 70.5t-62.5 106.5t-17.5 132.5q0 121 37 201t125 128t232.5 68.5t359.5 20.5h67q-2 61 -9 107q-9 59 -41 97t-92 56.5t-163 18.5q-108 0 -196 -32t-142 -67l-82 121q27 19 72 40.5t101.5 40t122 30.5t136.5 12q144 0 231 -25.5t134 -81 t62.5 -142.5t15.5 -208v-426q0 -45 3 -72.5t14.5 -42t35 -18.5t64.5 -4v-135q-11 -4 -62 -4q-49 0 -82 8t-53 24.5t-31.5 44t-17.5 64.5q-27 -41 -64 -70.5t-90 -49t-124.5 -29.5t-166.5 -10zM549 580q-119 -11 -187.5 -41.5t-95 -81.5t-26.5 -131q0 -52 13 -90.5t44 -66.5 t83 -42t130 -14q215 0 308 95t93 302v82h-59q-184 0 -303 -12zM637 1229q-102 0 -169.5 24.5t-110.5 65.5t-67 96t-36 117l119 24q8 -40 24.5 -77t46 -63.5t77 -42t116.5 -15.5q70 0 116 15.5t75.5 42t46 63.5t26.5 77l121 -22q-14 -61 -37.5 -117.5t-67.5 -97.5 t-111.5 -65.5t-168.5 -24.5zM232 1937h190l309 -319h-147z" />
<glyph unicode="&#x1eb2;" horiz-adv-x="1487" d="M659 1528h162l609 -1528h-164l-140 350h-778l-137 -350h-160zM1069 498l-332 835l-334 -835h666zM739 1587q-102 0 -169.5 24.5t-110.5 65.5t-67 96t-36 117l119 24q8 -40 24.5 -77t46 -63.5t77 -42t116.5 -15.5q70 0 116 15.5t75.5 42t46 63.5t26.5 77l121 -22 q-14 -61 -37.5 -117.5t-67.5 -97.5t-111.5 -65.5t-168.5 -24.5zM682 1941q-10 76 8 120t84 85q55 35 75.5 54.5t20.5 53.5q0 35 -26.5 56.5t-106.5 21.5q-49 0 -91 -10t-83 -31l-47 99q45 22 104.5 34.5t122.5 12.5q72 0 120 -13.5t78 -36t42 -53t12 -65.5q0 -66 -31.5 -104 t-89.5 -72q-26 -17 -42.5 -30t-25.5 -29.5t-11.5 -38t-0.5 -54.5h-112z" />
<glyph unicode="&#x1eb3;" d="M487 -20q-118 0 -195 25.5t-122 70.5t-62.5 106.5t-17.5 132.5q0 121 37 201t125 128t232.5 68.5t359.5 20.5h67q-2 61 -9 107q-9 59 -41 97t-92 56.5t-163 18.5q-108 0 -196 -32t-142 -67l-82 121q27 19 72 40.5t101.5 40t122 30.5t136.5 12q144 0 231 -25.5t134 -81 t62.5 -142.5t15.5 -208v-426q0 -45 3 -72.5t14.5 -42t35 -18.5t64.5 -4v-135q-11 -4 -62 -4q-49 0 -82 8t-53 24.5t-31.5 44t-17.5 64.5q-27 -41 -64 -70.5t-90 -49t-124.5 -29.5t-166.5 -10zM549 580q-119 -11 -187.5 -41.5t-95 -81.5t-26.5 -131q0 -52 13 -90.5t44 -66.5 t83 -42t130 -14q215 0 308 95t93 302v82h-59q-184 0 -303 -12zM637 1229q-102 0 -169.5 24.5t-110.5 65.5t-67 96t-36 117l119 24q8 -40 24.5 -77t46 -63.5t77 -42t116.5 -15.5q70 0 116 15.5t75.5 42t46 63.5t26.5 77l121 -22q-14 -61 -37.5 -117.5t-67.5 -97.5 t-111.5 -65.5t-168.5 -24.5zM580 1583q-10 76 8 120t84 85q55 35 75.5 54.5t20.5 53.5q0 35 -26.5 56.5t-106.5 21.5q-49 0 -91 -10t-83 -31l-47 99q45 22 104.5 34.5t122.5 12.5q72 0 120 -13.5t78 -36t42 -53t12 -65.5q0 -66 -31.5 -104t-89.5 -72q-26 -17 -42.5 -30 t-25.5 -29.5t-11.5 -38t-0.5 -54.5h-112z" />
<glyph unicode="&#x1eb4;" horiz-adv-x="1487" d="M659 1528h162l609 -1528h-164l-140 350h-778l-137 -350h-160zM1069 498l-332 835l-334 -835h666zM739 1587q-102 0 -169.5 24.5t-110.5 65.5t-67 96t-36 117l119 24q8 -40 24.5 -77t46 -63.5t77 -42t116.5 -15.5q70 0 116 15.5t75.5 42t46 63.5t26.5 77l121 -22 q-14 -61 -37.5 -117.5t-67.5 -97.5t-111.5 -65.5t-168.5 -24.5zM356 2078q51 64 116.5 108t133.5 44q51 0 88 -15.5t67.5 -34t60.5 -33.5t69 -15q41 0 81 32.5t78 77.5l95 -76q-54 -65 -117.5 -115.5t-134.5 -50.5q-47 0 -83 15.5t-68 35t-64.5 35t-69.5 15.5t-78 -26.5 t-76 -71.5z" />
<glyph unicode="&#x1eb5;" d="M487 -20q-118 0 -195 25.5t-122 70.5t-62.5 106.5t-17.5 132.5q0 121 37 201t125 128t232.5 68.5t359.5 20.5h67q-2 61 -9 107q-9 59 -41 97t-92 56.5t-163 18.5q-108 0 -196 -32t-142 -67l-82 121q27 19 72 40.5t101.5 40t122 30.5t136.5 12q144 0 231 -25.5t134 -81 t62.5 -142.5t15.5 -208v-426q0 -45 3 -72.5t14.5 -42t35 -18.5t64.5 -4v-135q-11 -4 -62 -4q-49 0 -82 8t-53 24.5t-31.5 44t-17.5 64.5q-27 -41 -64 -70.5t-90 -49t-124.5 -29.5t-166.5 -10zM549 580q-119 -11 -187.5 -41.5t-95 -81.5t-26.5 -131q0 -52 13 -90.5t44 -66.5 t83 -42t130 -14q215 0 308 95t93 302v82h-59q-184 0 -303 -12zM637 1229q-102 0 -169.5 24.5t-110.5 65.5t-67 96t-36 117l119 24q8 -40 24.5 -77t46 -63.5t77 -42t116.5 -15.5q70 0 116 15.5t75.5 42t46 63.5t26.5 77l121 -22q-14 -61 -37.5 -117.5t-67.5 -97.5 t-111.5 -65.5t-168.5 -24.5zM254 1720q51 64 116.5 108t133.5 44q51 0 88 -15.5t67.5 -34t60.5 -33.5t69 -15q41 0 81 32.5t78 77.5l95 -76q-54 -65 -117.5 -115.5t-134.5 -50.5q-47 0 -83 15.5t-68 35t-64.5 35t-69.5 15.5t-78 -26.5t-76 -71.5z" />
<glyph unicode="&#x1eb6;" horiz-adv-x="1487" d="M659 1528h162l609 -1528h-164l-140 350h-778l-137 -350h-160zM1069 498l-332 835l-334 -835h666zM739 1587q-102 0 -169.5 24.5t-110.5 65.5t-67 96t-36 117l119 24q8 -40 24.5 -77t46 -63.5t77 -42t116.5 -15.5q70 0 116 15.5t75.5 42t46 63.5t26.5 77l121 -22 q-14 -61 -37.5 -117.5t-67.5 -97.5t-111.5 -65.5t-168.5 -24.5zM663 -141h156v-219h-156v219z" />
<glyph unicode="&#x1eb7;" d="M487 -20q-118 0 -195 25.5t-122 70.5t-62.5 106.5t-17.5 132.5q0 121 37 201t125 128t232.5 68.5t359.5 20.5h67q-2 61 -9 107q-9 59 -41 97t-92 56.5t-163 18.5q-108 0 -196 -32t-142 -67l-82 121q27 19 72 40.5t101.5 40t122 30.5t136.5 12q144 0 231 -25.5t134 -81 t62.5 -142.5t15.5 -208v-426q0 -45 3 -72.5t14.5 -42t35 -18.5t64.5 -4v-135q-11 -4 -62 -4q-49 0 -82 8t-53 24.5t-31.5 44t-17.5 64.5q-27 -41 -64 -70.5t-90 -49t-124.5 -29.5t-166.5 -10zM549 580q-119 -11 -187.5 -41.5t-95 -81.5t-26.5 -131q0 -52 13 -90.5t44 -66.5 t83 -42t130 -14q215 0 308 95t93 302v82h-59q-184 0 -303 -12zM637 1229q-102 0 -169.5 24.5t-110.5 65.5t-67 96t-36 117l119 24q8 -40 24.5 -77t46 -63.5t77 -42t116.5 -15.5q70 0 116 15.5t75.5 42t46 63.5t26.5 77l121 -22q-14 -61 -37.5 -117.5t-67.5 -97.5 t-111.5 -65.5t-168.5 -24.5zM551 -141h156v-219h-156v219z" />
<glyph unicode="&#x1eb8;" horiz-adv-x="1309" d="M178 1518h1004v-154h-842v-502h821v-151h-821v-564h850v-147h-1012v1518zM614 -141h156v-219h-156v219z" />
<glyph unicode="&#x1eb9;" horiz-adv-x="1214" d="M643 -23q-170 0 -276.5 46.5t-166 126t-80 187t-20.5 230.5t22.5 230.5t82 187.5t164 126t268.5 46q170 0 265 -54t139 -143.5t53 -205.5q8 -97 8 -197v-43h-852q3 -70 14 -132q15 -83 56.5 -142.5t118.5 -93t204 -33.5q70 0 123 8t95 23.5t77 37t70 45.5l84 -108 q-84 -66 -188.5 -104t-260.5 -38zM954 655q-4 76 -13 141.5t-40 115t-94.5 78t-173.5 28.5q-121 0 -197 -34t-116.5 -94.5t-55.5 -143.5q-7 -43 -11 -91h701zM553 -141h156v-219h-156v219z" />
<glyph unicode="&#x1eba;" horiz-adv-x="1309" d="M178 1518h1004v-154h-842v-502h821v-151h-821v-564h850v-147h-1012v1518zM633 1579q-11 76 7.5 120t84.5 85q55 35 75.5 54.5t20.5 54.5q0 34 -26.5 55.5t-106.5 21.5q-49 0 -91 -10t-83 -31l-47 99q45 22 104.5 34.5t122.5 12.5q72 0 120 -13.5t77.5 -36t42 -53 t12.5 -65.5q0 -66 -31.5 -103.5t-89.5 -72.5q-26 -17 -42.5 -30t-26 -29.5t-11.5 -38t0 -54.5h-112z" />
<glyph unicode="&#x1ebb;" horiz-adv-x="1214" d="M643 -23q-170 0 -276.5 46.5t-166 126t-80 187t-20.5 230.5t22.5 230.5t82 187.5t164 126t268.5 46q170 0 265 -54t139 -143.5t53 -205.5q8 -97 8 -197v-43h-852q3 -70 14 -132q15 -83 56.5 -142.5t118.5 -93t204 -33.5q70 0 123 8t95 23.5t77 37t70 45.5l84 -108 q-84 -66 -188.5 -104t-260.5 -38zM954 655q-4 76 -13 141.5t-40 115t-94.5 78t-173.5 28.5q-121 0 -197 -34t-116.5 -94.5t-55.5 -143.5q-7 -43 -11 -91h701zM557 1224q-11 76 7.5 120t84.5 85q55 35 75.5 54.5t20.5 54.5q0 34 -26.5 55.5t-106.5 21.5q-49 0 -91 -10 t-83 -31l-47 99q45 22 104.5 34.5t122.5 12.5q72 0 120 -13.5t77.5 -36t42 -53t12.5 -65.5q0 -66 -31.5 -103.5t-89.5 -72.5q-26 -17 -42.5 -30t-26 -29.5t-11.5 -38t0 -54.5h-112z" />
<glyph unicode="&#x1ebc;" horiz-adv-x="1309" d="M178 1518h1004v-154h-842v-502h821v-151h-821v-564h850v-147h-1012v1518zM281 1702q51 64 116.5 108t133.5 44q51 0 88 -15.5t67.5 -34t60.5 -34t68 -15.5q41 0 81 33t79 78l94 -76q-53 -65 -116.5 -115.5t-134.5 -50.5q-48 0 -83.5 15.5t-67.5 35t-64.5 35t-69.5 15.5 t-78 -27t-76 -72z" />
<glyph unicode="&#x1ebd;" horiz-adv-x="1214" d="M643 -23q-170 0 -276.5 46.5t-166 126t-80 187t-20.5 230.5t22.5 230.5t82 187.5t164 126t268.5 46q170 0 265 -54t139 -143.5t53 -205.5q8 -97 8 -197v-43h-852q3 -70 14 -132q15 -83 56.5 -142.5t118.5 -93t204 -33.5q70 0 123 8t95 23.5t77 37t70 45.5l84 -108 q-84 -66 -188.5 -104t-260.5 -38zM954 655q-4 76 -13 141.5t-40 115t-94.5 78t-173.5 28.5q-121 0 -197 -34t-116.5 -94.5t-55.5 -143.5q-7 -43 -11 -91h701zM210 1333q51 64 116.5 108t133.5 44q51 0 88 -15.5t67.5 -34t60.5 -34t68 -15.5q41 0 81 33t79 78l94 -76 q-53 -65 -116.5 -115.5t-134.5 -50.5q-48 0 -83.5 15.5t-67.5 35t-64.5 35t-69.5 15.5t-78 -27t-76 -72z" />
<glyph unicode="&#x1ebe;" horiz-adv-x="1309" d="M178 1518h1004v-154h-842v-502h821v-151h-821v-564h850v-147h-1012v1518zM567 1927h174l311 -320h-156l-245 219l-242 -219h-154zM354 2091h190l-352 -320h-148z" />
<glyph unicode="&#x1ebf;" horiz-adv-x="1214" d="M643 -23q-170 0 -276.5 46.5t-166 126t-80 187t-20.5 230.5t22.5 230.5t82 187.5t164 126t268.5 46q170 0 265 -54t139 -143.5t53 -205.5q8 -97 8 -197v-43h-852q3 -70 14 -132q15 -83 56.5 -142.5t118.5 -93t204 -33.5q70 0 123 8t95 23.5t77 37t70 45.5l84 -108 q-84 -66 -188.5 -104t-260.5 -38zM954 655q-4 76 -13 141.5t-40 115t-94.5 78t-173.5 28.5q-121 0 -197 -34t-116.5 -94.5t-55.5 -143.5q-7 -43 -11 -91h701zM522 1569h174l311 -320h-156l-245 219l-242 -219h-154zM309 1733h190l-352 -320h-148z" />
<glyph unicode="&#x1ec0;" horiz-adv-x="1309" d="M178 1518h1004v-154h-842v-502h821v-151h-821v-564h850v-147h-1012v1518zM566 1927h174l311 -320h-156l-245 219l-242 -219h-154zM766 2091h191l309 -320h-147z" />
<glyph unicode="&#x1ec1;" horiz-adv-x="1214" d="M643 -23q-170 0 -276.5 46.5t-166 126t-80 187t-20.5 230.5t22.5 230.5t82 187.5t164 126t268.5 46q170 0 265 -54t139 -143.5t53 -205.5q8 -97 8 -197v-43h-852q3 -70 14 -132q15 -83 56.5 -142.5t118.5 -93t204 -33.5q70 0 123 8t95 23.5t77 37t70 45.5l84 -108 q-84 -66 -188.5 -104t-260.5 -38zM954 655q-4 76 -13 141.5t-40 115t-94.5 78t-173.5 28.5q-121 0 -197 -34t-116.5 -94.5t-55.5 -143.5q-7 -43 -11 -91h701zM521 1569h174l311 -320h-156l-245 219l-242 -219h-154zM721 1733h191l309 -320h-147z" />
<glyph unicode="&#x1ec2;" horiz-adv-x="1309" d="M178 1518h1004v-154h-842v-502h821v-151h-821v-564h850v-147h-1012v1518zM567 1927h174l311 -320h-155l-246 219l-242 -219h-153zM598 1980q-10 76 8 120t84 85q55 35 75.5 54.5t20.5 53.5q0 35 -26.5 56.5t-106.5 21.5q-49 0 -91 -10t-83 -31l-47 99q45 22 104.5 34.5 t122.5 12.5q72 0 120 -13.5t78 -36t42 -53t12 -65.5q0 -66 -31.5 -104t-89.5 -72q-26 -17 -42.5 -30t-25.5 -29.5t-11.5 -38t-0.5 -54.5h-112z" />
<glyph unicode="&#x1ec3;" horiz-adv-x="1214" d="M643 -23q-170 0 -276.5 46.5t-166 126t-80 187t-20.5 230.5t22.5 230.5t82 187.5t164 126t268.5 46q170 0 265 -54t139 -143.5t53 -205.5q8 -97 8 -197v-43h-852q3 -70 14 -132q15 -83 56.5 -142.5t118.5 -93t204 -33.5q70 0 123 8t95 23.5t77 37t70 45.5l84 -108 q-84 -66 -188.5 -104t-260.5 -38zM954 655q-4 76 -13 141.5t-40 115t-94.5 78t-173.5 28.5q-121 0 -197 -34t-116.5 -94.5t-55.5 -143.5q-7 -43 -11 -91h701zM516 1569h174l311 -320h-155l-246 219l-242 -219h-153zM547 1622q-10 76 8 120t84 85q55 35 75.5 54.5t20.5 53.5 q0 35 -26.5 56.5t-106.5 21.5q-49 0 -91 -10t-83 -31l-47 99q45 22 104.5 34.5t122.5 12.5q72 0 120 -13.5t78 -36t42 -53t12 -65.5q0 -66 -31.5 -104t-89.5 -72q-26 -17 -42.5 -30t-25.5 -29.5t-11.5 -38t-0.5 -54.5h-112z" />
<glyph unicode="&#x1ec4;" horiz-adv-x="1309" d="M178 1518h1004v-154h-842v-502h821v-151h-821v-564h850v-147h-1012v1518zM563 1927h174l311 -320h-155l-246 219l-242 -219h-153zM268 2062q51 63 116.5 107t133.5 44q51 0 88 -15t67.5 -33.5t60.5 -34t69 -15.5q41 0 81 33t78 78l95 -76q-54 -66 -117.5 -116t-134.5 -50 q-47 0 -83 15.5t-68 35t-64.5 34.5t-69.5 15t-78 -26.5t-76 -71.5z" />
<glyph unicode="&#x1ec5;" horiz-adv-x="1214" d="M643 -23q-170 0 -276.5 46.5t-166 126t-80 187t-20.5 230.5t22.5 230.5t82 187.5t164 126t268.5 46q170 0 265 -54t139 -143.5t53 -205.5q8 -97 8 -197v-43h-852q3 -70 14 -132q15 -83 56.5 -142.5t118.5 -93t204 -33.5q70 0 123 8t95 23.5t77 37t70 45.5l84 -108 q-84 -66 -188.5 -104t-260.5 -38zM954 655q-4 76 -13 141.5t-40 115t-94.5 78t-173.5 28.5q-121 0 -197 -34t-116.5 -94.5t-55.5 -143.5q-7 -43 -11 -91h701zM516 1569h174l311 -320h-155l-246 219l-242 -219h-153zM221 1704q51 63 116.5 107t133.5 44q51 0 88 -15 t67.5 -33.5t60.5 -34t69 -15.5q41 0 81 33t78 78l95 -76q-54 -66 -117.5 -116t-134.5 -50q-47 0 -83 15.5t-68 35t-64.5 34.5t-69.5 15t-78 -26.5t-76 -71.5z" />
<glyph unicode="&#x1ec6;" horiz-adv-x="1309" d="M178 1518h1004v-154h-842v-502h821v-151h-821v-564h850v-147h-1012v1518zM563 1927h174l311 -320h-155l-246 219l-242 -219h-153zM614 -141h156v-219h-156v219z" />
<glyph unicode="&#x1ec7;" horiz-adv-x="1214" d="M643 -23q-170 0 -276.5 46.5t-166 126t-80 187t-20.5 230.5t22.5 230.5t82 187.5t164 126t268.5 46q170 0 265 -54t139 -143.5t53 -205.5q8 -97 8 -197v-43h-852q3 -70 14 -132q15 -83 56.5 -142.5t118.5 -93t204 -33.5q70 0 123 8t95 23.5t77 37t70 45.5l84 -108 q-84 -66 -188.5 -104t-260.5 -38zM954 655q-4 76 -13 141.5t-40 115t-94.5 78t-173.5 28.5q-121 0 -197 -34t-116.5 -94.5t-55.5 -143.5q-7 -43 -11 -91h701zM516 1569h174l311 -320h-155l-246 219l-242 -219h-153zM553 -141h156v-219h-156v219z" />
<glyph unicode="&#x1ec8;" horiz-adv-x="547" d="M195 1518h157v-1518h-157v1518zM220 1579q-11 76 7.5 120t84.5 85q55 35 75.5 54.5t20.5 54.5q0 34 -26.5 55.5t-106.5 21.5q-49 0 -91 -10t-83 -31l-47 99q45 22 104.5 34.5t122.5 12.5q72 0 120 -13.5t77.5 -36t42 -53t12.5 -65.5q0 -66 -31.5 -103.5t-89.5 -72.5 q-26 -17 -42.5 -30t-26 -29.5t-11.5 -38t0 -54.5h-112z" />
<glyph unicode="&#x1ec9;" horiz-adv-x="487" d="M166 1130h153v-1130h-153v1130zM192 1224q-11 76 7.5 120t84.5 85q55 35 75.5 54.5t20.5 54.5q0 34 -26.5 55.5t-106.5 21.5q-49 0 -91 -10t-83 -31l-47 99q45 22 104.5 34.5t122.5 12.5q72 0 120 -13.5t77.5 -36t42 -53t12.5 -65.5q0 -66 -31.5 -103.5t-89.5 -72.5 q-26 -17 -42.5 -30t-26 -29.5t-11.5 -38t0 -54.5h-112z" />
<glyph unicode="&#x1eca;" horiz-adv-x="547" d="M195 1518h157v-1518h-157v1518zM197 -141h156v-219h-156v219z" />
<glyph unicode="&#x1ecb;" horiz-adv-x="487" d="M166 1130h153v-1130h-153v1130zM166 1501h156v-221h-156v221zM169 -141h156v-219h-156v219z" />
<glyph unicode="&#x1ecc;" horiz-adv-x="1708" d="M852 -25q-182 0 -323.5 46.5t-238.5 142.5t-148.5 244.5t-51.5 351.5q0 405 198.5 593.5t563.5 188.5q182 0 324.5 -46t241 -142.5t149.5 -243.5t51 -350t-51 -351.5t-149.5 -244.5t-241 -142.5t-324.5 -46.5zM852 125q311 0 457.5 160.5t146.5 472.5q0 309 -146.5 470 t-457.5 161q-309 0 -454.5 -162t-145.5 -469q0 -309 145.5 -471t454.5 -162zM782 -141h156v-219h-156v219z" />
<glyph unicode="&#x1ecd;" horiz-adv-x="1292" d="M645 -23q-293 0 -419 148.5t-126 441.5q0 146 30 256.5t95.5 184t169 111.5t250.5 38q293 0 420 -149.5t127 -440.5q0 -293 -127 -441.5t-420 -148.5zM645 119q213 0 301 113.5t88 330.5t-88 332t-301 115t-301 -115t-88 -332t88 -330.5t301 -113.5zM567 -141h156v-219 h-156v219z" />
<glyph unicode="&#x1ece;" horiz-adv-x="1708" d="M852 -25q-182 0 -323.5 46.5t-238.5 142.5t-148.5 244.5t-51.5 351.5q0 405 198.5 593.5t563.5 188.5q182 0 324.5 -46t241 -142.5t149.5 -243.5t51 -350t-51 -351.5t-149.5 -244.5t-241 -142.5t-324.5 -46.5zM852 125q311 0 457.5 160.5t146.5 472.5q0 309 -146.5 470 t-457.5 161q-309 0 -454.5 -162t-145.5 -469q0 -309 145.5 -471t454.5 -162zM791 1610q-11 76 7.5 120t84.5 85q55 35 75.5 54.5t20.5 54.5q0 34 -26.5 55.5t-106.5 21.5q-49 0 -91 -10t-83 -31l-47 99q45 22 104.5 34.5t122.5 12.5q72 0 120 -13.5t77.5 -36t42 -53 t12.5 -65.5q0 -66 -31.5 -103.5t-89.5 -72.5q-26 -17 -42.5 -30t-26 -29.5t-11.5 -38t0 -54.5h-112z" />
<glyph unicode="&#x1ecf;" horiz-adv-x="1292" d="M645 -23q-293 0 -419 148.5t-126 441.5q0 146 30 256.5t95.5 184t169 111.5t250.5 38q293 0 420 -149.5t127 -440.5q0 -293 -127 -441.5t-420 -148.5zM645 119q213 0 301 113.5t88 330.5t-88 332t-301 115t-301 -115t-88 -332t88 -330.5t301 -113.5zM584 1224 q-11 76 7.5 120t84.5 85q55 35 75.5 54.5t20.5 54.5q0 34 -26.5 55.5t-106.5 21.5q-49 0 -91 -10t-83 -31l-47 99q45 22 104.5 34.5t122.5 12.5q72 0 120 -13.5t77.5 -36t42 -53t12.5 -65.5q0 -66 -31.5 -103.5t-89.5 -72.5q-26 -17 -42.5 -30t-26 -29.5t-11.5 -38t0 -54.5 h-112z" />
<glyph unicode="&#x1ed0;" horiz-adv-x="1708" d="M852 -25q-182 0 -323.5 46.5t-238.5 142.5t-148.5 244.5t-51.5 351.5q0 405 198.5 593.5t563.5 188.5q182 0 324.5 -46t241 -142.5t149.5 -243.5t51 -350t-51 -351.5t-149.5 -244.5t-241 -142.5t-324.5 -46.5zM852 125q311 0 457.5 160.5t146.5 472.5q0 309 -146.5 470 t-457.5 161q-309 0 -454.5 -162t-145.5 -469q0 -309 145.5 -471t454.5 -162zM764 1927h174l311 -320h-156l-245 219l-242 -219h-154zM551 2091h190l-352 -320h-148z" />
<glyph unicode="&#x1ed1;" horiz-adv-x="1292" d="M645 -23q-293 0 -419 148.5t-126 441.5q0 146 30 256.5t95.5 184t169 111.5t250.5 38q293 0 420 -149.5t127 -440.5q0 -293 -127 -441.5t-420 -148.5zM645 119q213 0 301 113.5t88 330.5t-88 332t-301 115t-301 -115t-88 -332t88 -330.5t301 -113.5zM561 1569h174 l311 -320h-156l-245 219l-242 -219h-154zM348 1733h190l-352 -320h-148z" />
<glyph unicode="&#x1ed2;" horiz-adv-x="1708" d="M852 -25q-182 0 -323.5 46.5t-238.5 142.5t-148.5 244.5t-51.5 351.5q0 405 198.5 593.5t563.5 188.5q182 0 324.5 -46t241 -142.5t149.5 -243.5t51 -350t-51 -351.5t-149.5 -244.5t-241 -142.5t-324.5 -46.5zM852 125q311 0 457.5 160.5t146.5 472.5q0 309 -146.5 470 t-457.5 161q-309 0 -454.5 -162t-145.5 -469q0 -309 145.5 -471t454.5 -162zM766 1927h174l311 -320h-156l-245 219l-242 -219h-154zM966 2091h191l309 -320h-147z" />
<glyph unicode="&#x1ed3;" horiz-adv-x="1292" d="M645 -23q-293 0 -419 148.5t-126 441.5q0 146 30 256.5t95.5 184t169 111.5t250.5 38q293 0 420 -149.5t127 -440.5q0 -293 -127 -441.5t-420 -148.5zM645 119q213 0 301 113.5t88 330.5t-88 332t-301 115t-301 -115t-88 -332t88 -330.5t301 -113.5zM559 1569h174 l311 -320h-156l-245 219l-242 -219h-154zM759 1733h191l309 -320h-147z" />
<glyph unicode="&#x1ed4;" horiz-adv-x="1708" d="M852 -25q-182 0 -323.5 46.5t-238.5 142.5t-148.5 244.5t-51.5 351.5q0 405 198.5 593.5t563.5 188.5q182 0 324.5 -46t241 -142.5t149.5 -243.5t51 -350t-51 -351.5t-149.5 -244.5t-241 -142.5t-324.5 -46.5zM852 125q311 0 457.5 160.5t146.5 472.5q0 309 -146.5 470 t-457.5 161q-309 0 -454.5 -162t-145.5 -469q0 -309 145.5 -471t454.5 -162zM764 1927h174l311 -320h-155l-246 219l-242 -219h-153zM795 1980q-10 76 8 120t84 85q55 35 75.5 54.5t20.5 53.5q0 35 -26.5 56.5t-106.5 21.5q-49 0 -91 -10t-83 -31l-47 99q45 22 104.5 34.5 t122.5 12.5q72 0 120 -13.5t78 -36t42 -53t12 -65.5q0 -66 -31.5 -104t-89.5 -72q-26 -17 -42.5 -30t-25.5 -29.5t-11.5 -38t-0.5 -54.5h-112z" />
<glyph unicode="&#x1ed5;" horiz-adv-x="1292" d="M645 -23q-293 0 -419 148.5t-126 441.5q0 146 30 256.5t95.5 184t169 111.5t250.5 38q293 0 420 -149.5t127 -440.5q0 -293 -127 -441.5t-420 -148.5zM645 119q213 0 301 113.5t88 330.5t-88 332t-301 115t-301 -115t-88 -332t88 -330.5t301 -113.5zM553 1569h174 l311 -320h-155l-246 219l-242 -219h-153zM584 1622q-10 76 8 120t84 85q55 35 75.5 54.5t20.5 53.5q0 35 -26.5 56.5t-106.5 21.5q-49 0 -91 -10t-83 -31l-47 99q45 22 104.5 34.5t122.5 12.5q72 0 120 -13.5t78 -36t42 -53t12 -65.5q0 -66 -31.5 -104t-89.5 -72 q-26 -17 -42.5 -30t-25.5 -29.5t-11.5 -38t-0.5 -54.5h-112z" />
<glyph unicode="&#x1ed6;" horiz-adv-x="1708" d="M852 -25q-182 0 -323.5 46.5t-238.5 142.5t-148.5 244.5t-51.5 351.5q0 405 198.5 593.5t563.5 188.5q182 0 324.5 -46t241 -142.5t149.5 -243.5t51 -350t-51 -351.5t-149.5 -244.5t-241 -142.5t-324.5 -46.5zM852 125q311 0 457.5 160.5t146.5 472.5q0 309 -146.5 470 t-457.5 161q-309 0 -454.5 -162t-145.5 -469q0 -309 145.5 -471t454.5 -162zM764 1927h174l311 -320h-155l-246 219l-242 -219h-153zM469 2062q51 63 116.5 107t133.5 44q51 0 88 -15t67.5 -33.5t60.5 -34t69 -15.5q41 0 81 33t78 78l95 -76q-54 -66 -117.5 -116t-134.5 -50 q-47 0 -83 15.5t-68 35t-64.5 34.5t-69.5 15t-78 -26.5t-76 -71.5z" />
<glyph unicode="&#x1ed7;" horiz-adv-x="1292" d="M645 -23q-293 0 -419 148.5t-126 441.5q0 146 30 256.5t95.5 184t169 111.5t250.5 38q293 0 420 -149.5t127 -440.5q0 -293 -127 -441.5t-420 -148.5zM645 119q213 0 301 113.5t88 330.5t-88 332t-301 115t-301 -115t-88 -332t88 -330.5t301 -113.5zM555 1569h174 l311 -320h-155l-246 219l-242 -219h-153zM260 1704q51 63 116.5 107t133.5 44q51 0 88 -15t67.5 -33.5t60.5 -34t69 -15.5q41 0 81 33t78 78l95 -76q-54 -66 -117.5 -116t-134.5 -50q-47 0 -83 15.5t-68 35t-64.5 34.5t-69.5 15t-78 -26.5t-76 -71.5z" />
<glyph unicode="&#x1ed8;" horiz-adv-x="1708" d="M852 -25q-182 0 -323.5 46.5t-238.5 142.5t-148.5 244.5t-51.5 351.5q0 405 198.5 593.5t563.5 188.5q182 0 324.5 -46t241 -142.5t149.5 -243.5t51 -350t-51 -351.5t-149.5 -244.5t-241 -142.5t-324.5 -46.5zM852 125q311 0 457.5 160.5t146.5 472.5q0 309 -146.5 470 t-457.5 161q-309 0 -454.5 -162t-145.5 -469q0 -309 145.5 -471t454.5 -162zM764 1927h174l311 -320h-155l-246 219l-242 -219h-153zM774 -141h156v-219h-156v219z" />
<glyph unicode="&#x1ed9;" horiz-adv-x="1292" d="M645 -23q-293 0 -419 148.5t-126 441.5q0 146 30 256.5t95.5 184t169 111.5t250.5 38q293 0 420 -149.5t127 -440.5q0 -293 -127 -441.5t-420 -148.5zM645 119q213 0 301 113.5t88 330.5t-88 332t-301 115t-301 -115t-88 -332t88 -330.5t301 -113.5zM555 1569h174 l311 -320h-155l-246 219l-242 -219h-153zM567 -141h156v-219h-156v219z" />
<glyph unicode="&#x1eda;" horiz-adv-x="1708" d="M852 -25q-182 0 -323.5 46.5t-238.5 142.5t-148.5 244.5t-51.5 351.5q0 405 198.5 593.5t563.5 188.5q182 0 324 -46q69 -22 127 -56q41 1 69 13q31 13 49.5 31.5t26.5 40t8 40.5h-84v204h180v-184q0 -43 -14 -85t-45 -75.5t-80 -54.5l-10 -4l14 -13q99 -96 150 -243 t51 -350t-51 -351.5t-149.5 -244.5t-241 -142.5t-324.5 -46.5zM852 125q311 0 457.5 160.5t146.5 472.5q0 309 -146.5 470t-457.5 161q-309 0 -454.5 -162t-145.5 -469q0 -309 145.5 -471t454.5 -162zM1004 1927h190l-352 -320h-148z" />
<glyph unicode="&#x1edb;" horiz-adv-x="1305" d="M645 -23q-293 0 -419 148.5t-126 441.5q0 146 30 256.5t95.5 184t169 111.5t250.5 38q208 0 332 -76q32 3 55 12q31 13 49.5 32.5t26.5 41t8 39.5h-84v203h180v-182q0 -43 -14 -86t-45 -76t-80 -54q-4 -1 -9 -3l1 -1q127 -149 127 -440q0 -293 -127 -441.5t-420 -148.5z M645 119q213 0 301 113.5t88 330.5t-88 332t-301 115t-301 -115t-88 -332t88 -330.5t301 -113.5zM762 1569h190l-352 -320h-148z" />
<glyph unicode="&#x1edc;" horiz-adv-x="1708" d="M852 -25q-182 0 -323.5 46.5t-238.5 142.5t-148.5 244.5t-51.5 351.5q0 405 198.5 593.5t563.5 188.5q182 0 324 -46q69 -22 127 -56q41 1 69 13q31 13 49.5 31.5t26.5 40t8 40.5h-84v204h180v-184q0 -43 -14 -85t-45 -75.5t-80 -54.5l-10 -4l14 -13q99 -96 150 -243 t51 -350t-51 -351.5t-149.5 -244.5t-241 -142.5t-324.5 -46.5zM852 125q311 0 457.5 160.5t146.5 472.5q0 309 -146.5 470t-457.5 161q-309 0 -454.5 -162t-145.5 -469q0 -309 145.5 -471t454.5 -162zM510 1927h191l309 -320h-148z" />
<glyph unicode="&#x1edd;" horiz-adv-x="1305" d="M645 -23q-293 0 -419 148.5t-126 441.5q0 146 30 256.5t95.5 184t169 111.5t250.5 38q208 0 332 -76q32 3 55 12q31 13 49.5 32.5t26.5 41t8 39.5h-84v203h180v-182q0 -43 -14 -86t-45 -76t-80 -54q-4 -1 -9 -3l1 -1q127 -149 127 -440q0 -293 -127 -441.5t-420 -148.5z M645 119q213 0 301 113.5t88 330.5t-88 332t-301 115t-301 -115t-88 -332t88 -330.5t301 -113.5zM301 1569h191l309 -320h-148z" />
<glyph unicode="&#x1ede;" horiz-adv-x="1708" d="M852 -25q-182 0 -323.5 46.5t-238.5 142.5t-148.5 244.5t-51.5 351.5q0 405 198.5 593.5t563.5 188.5q182 0 324 -46q69 -22 127 -56q41 1 69 13q31 13 49.5 31.5t26.5 40t8 40.5h-84v204h180v-184q0 -43 -14 -85t-45 -75.5t-80 -54.5l-10 -4l14 -13q99 -96 150 -243 t51 -350t-51 -351.5t-149.5 -244.5t-241 -142.5t-324.5 -46.5zM852 125q311 0 457.5 160.5t146.5 472.5q0 309 -146.5 470t-457.5 161q-309 0 -454.5 -162t-145.5 -469q0 -309 145.5 -471t454.5 -162zM789 1610q-11 76 7.5 120t84.5 85q55 35 75.5 54.5t20.5 54.5 q0 34 -26.5 55.5t-106.5 21.5q-49 0 -91 -10t-83 -31l-47 99q45 22 104.5 34.5t122.5 12.5q72 0 120 -13.5t77.5 -36t42 -53t12.5 -65.5q0 -66 -31.5 -103.5t-89.5 -72.5q-26 -17 -42.5 -30t-26 -29.5t-11.5 -38t0 -54.5h-112z" />
<glyph unicode="&#x1edf;" horiz-adv-x="1305" d="M645 -23q-293 0 -419 148.5t-126 441.5q0 146 30 256.5t95.5 184t169 111.5t250.5 38q208 0 332 -76q32 3 55 12q31 13 49.5 32.5t26.5 41t8 39.5h-84v203h180v-182q0 -43 -14 -86t-45 -76t-80 -54q-4 -1 -9 -3l1 -1q127 -149 127 -440q0 -293 -127 -441.5t-420 -148.5z M645 119q213 0 301 113.5t88 330.5t-88 332t-301 115t-301 -115t-88 -332t88 -330.5t301 -113.5zM566 1224q-11 76 7.5 120t84.5 85q55 35 75.5 54.5t20.5 54.5q0 34 -26.5 55.5t-106.5 21.5q-49 0 -91 -10t-83 -31l-47 99q45 22 104.5 34.5t122.5 12.5q72 0 120 -13.5 t77.5 -36t42 -53t12.5 -65.5q0 -66 -31.5 -103.5t-89.5 -72.5q-26 -17 -42.5 -30t-26 -29.5t-11.5 -38t0 -54.5h-112z" />
<glyph unicode="&#x1ee0;" horiz-adv-x="1708" d="M852 -25q-182 0 -323.5 46.5t-238.5 142.5t-148.5 244.5t-51.5 351.5q0 405 198.5 593.5t563.5 188.5q182 0 324 -46q69 -22 127 -56q41 1 69 13q31 13 49.5 31.5t26.5 40t8 40.5h-84v204h180v-184q0 -43 -14 -85t-45 -75.5t-80 -54.5l-10 -4l14 -13q99 -96 150 -243 t51 -350t-51 -351.5t-149.5 -244.5t-241 -142.5t-324.5 -46.5zM852 125q311 0 457.5 160.5t146.5 472.5q0 309 -146.5 470t-457.5 161q-309 0 -454.5 -162t-145.5 -469q0 -309 145.5 -471t454.5 -162zM434 1689q51 64 116.5 108t133.5 44q51 0 88 -15.5t67.5 -34t60.5 -34 t68 -15.5q41 0 81 33t79 78l94 -76q-53 -65 -116.5 -115.5t-134.5 -50.5q-48 0 -83.5 15.5t-67.5 35t-64.5 35t-69.5 15.5t-78 -27t-76 -72z" />
<glyph unicode="&#x1ee1;" horiz-adv-x="1305" d="M645 -23q-293 0 -419 148.5t-126 441.5q0 146 30 256.5t95.5 184t169 111.5t250.5 38q208 0 332 -76q32 3 55 12q31 13 49.5 32.5t26.5 41t8 39.5h-84v203h180v-182q0 -43 -14 -86t-45 -76t-80 -54q-4 -1 -9 -3l1 -1q127 -149 127 -440q0 -293 -127 -441.5t-420 -148.5z M645 119q213 0 301 113.5t88 330.5t-88 332t-301 115t-301 -115t-88 -332t88 -330.5t301 -113.5zM194 1331q51 64 116.5 108t133.5 44q51 0 88 -15.5t67.5 -34t60.5 -34t68 -15.5q41 0 81 33t79 78l94 -76q-53 -65 -116.5 -115.5t-134.5 -50.5q-48 0 -83.5 15.5t-67.5 35 t-64.5 35t-69.5 15.5t-78 -27t-76 -72z" />
<glyph unicode="&#x1ee2;" horiz-adv-x="1708" d="M852 -25q-182 0 -323.5 46.5t-238.5 142.5t-148.5 244.5t-51.5 351.5q0 405 198.5 593.5t563.5 188.5q182 0 324 -46q69 -22 127 -56q41 1 69 13q31 13 49.5 31.5t26.5 40t8 40.5h-84v204h180v-184q0 -43 -14 -85t-45 -75.5t-80 -54.5l-10 -4l14 -13q99 -96 150 -243 t51 -350t-51 -351.5t-149.5 -244.5t-241 -142.5t-324.5 -46.5zM852 125q311 0 457.5 160.5t146.5 472.5q0 309 -146.5 470t-457.5 161q-309 0 -454.5 -162t-145.5 -469q0 -309 145.5 -471t454.5 -162zM774 -141h156v-219h-156v219z" />
<glyph unicode="&#x1ee3;" horiz-adv-x="1305" d="M645 -23q-293 0 -419 148.5t-126 441.5q0 146 30 256.5t95.5 184t169 111.5t250.5 38q208 0 332 -76q32 3 55 12q31 13 49.5 32.5t26.5 41t8 39.5h-84v203h180v-182q0 -43 -14 -86t-45 -76t-80 -54q-4 -1 -9 -3l1 -1q127 -149 127 -440q0 -293 -127 -441.5t-420 -148.5z M645 119q213 0 301 113.5t88 330.5t-88 332t-301 115t-301 -115t-88 -332t88 -330.5t301 -113.5zM567 -141h156v-219h-156v219z" />
<glyph unicode="&#x1ee4;" horiz-adv-x="1593" d="M795 -25q-203 0 -326 47.5t-189.5 126t-89 182t-22.5 216.5v971h162v-953q0 -96 18.5 -177t69.5 -139.5t142 -91t235 -32.5q145 0 237 31.5t145.5 90t73 139.5t19.5 179v953h155v-971q0 -113 -23.5 -216.5t-91 -182t-191.5 -126t-324 -47.5zM716 -141h156v-219h-156v219z " />
<glyph unicode="&#x1ee5;" horiz-adv-x="1257" d="M633 -20q-164 0 -260.5 33.5t-145.5 96t-63 152.5t-14 203v665h153v-669q0 -70 5 -132.5t36 -108.5t98.5 -72.5t190.5 -26.5t188.5 26.5t96 73.5t34.5 110.5t4 137.5v661h152v-659q0 -115 -13.5 -206t-61.5 -154.5t-142 -97t-258 -33.5zM549 -141h156v-219h-156v219z" />
<glyph unicode="&#x1ee6;" horiz-adv-x="1593" d="M795 -25q-203 0 -326 47.5t-189.5 126t-89 182t-22.5 216.5v971h162v-953q0 -96 18.5 -177t69.5 -139.5t142 -91t235 -32.5q145 0 237 31.5t145.5 90t73 139.5t19.5 179v953h155v-971q0 -113 -23.5 -216.5t-91 -182t-191.5 -126t-324 -47.5zM738 1569q-11 76 7.5 120 t84.5 85q55 35 75.5 54.5t20.5 54.5q0 34 -26.5 55.5t-106.5 21.5q-49 0 -91 -10t-83 -31l-47 99q45 22 104.5 34.5t122.5 12.5q72 0 120 -13.5t77.5 -36t42 -53t12.5 -65.5q0 -66 -31.5 -103.5t-89.5 -72.5q-26 -17 -42.5 -30t-26 -29.5t-11.5 -38t0 -54.5h-112z" />
<glyph unicode="&#x1ee7;" horiz-adv-x="1257" d="M633 -20q-164 0 -260.5 33.5t-145.5 96t-63 152.5t-14 203v665h153v-669q0 -70 5 -132.5t36 -108.5t98.5 -72.5t190.5 -26.5t188.5 26.5t96 73.5t34.5 110.5t4 137.5v661h152v-659q0 -115 -13.5 -206t-61.5 -154.5t-142 -97t-258 -33.5zM568 1224q-11 76 7.5 120t84.5 85 q55 35 75.5 54.5t20.5 54.5q0 34 -26.5 55.5t-106.5 21.5q-49 0 -91 -10t-83 -31l-47 99q45 22 104.5 34.5t122.5 12.5q72 0 120 -13.5t77.5 -36t42 -53t12.5 -65.5q0 -66 -31.5 -103.5t-89.5 -72.5q-26 -17 -42.5 -30t-26 -29.5t-11.5 -38t0 -54.5h-112z" />
<glyph unicode="&#x1ee8;" horiz-adv-x="1618" d="M795 -25q-203 0 -326 47.5t-189.5 126t-89 182t-22.5 216.5v971h162v-953q0 -96 18.5 -177t69.5 -139.5t142 -91t235 -32.5q145 0 237 31.5t145.5 90t73 139.5t19.5 179v953h121q47 0 77.5 13t49 31.5t26.5 41t8 41.5h-82v202h177v-182q0 -43 -13.5 -86t-44 -76 t-80.5 -53q-37 -15 -84 -19v-884q0 -113 -23.5 -216.5t-91 -182t-191.5 -126t-324 -47.5zM946 1927h190l-352 -320h-148z" />
<glyph unicode="&#x1ee9;" horiz-adv-x="1325" d="M633 -20q-164 0 -260.5 33.5t-145.5 96t-63 152.5t-14 203v665h153v-669q0 -70 5 -132.5t36 -108.5t98.5 -72.5t190.5 -26.5t188.5 26.5t96 73.5t34.5 110.5t4 137.5v661h130q40 1 67 13q31 14 49.5 32.5t25.5 40t7 39.5h-82v205h178v-182q0 -43 -13 -86t-44 -77t-80 -55 q-37 -15 -86 -19v-570q0 -115 -13.5 -206t-61.5 -154.5t-142 -97t-258 -33.5zM779 1569h190l-352 -320h-148z" />
<glyph unicode="&#x1eea;" horiz-adv-x="1618" d="M795 -25q-203 0 -326 47.5t-189.5 126t-89 182t-22.5 216.5v971h162v-953q0 -96 18.5 -177t69.5 -139.5t142 -91t235 -32.5q145 0 237 31.5t145.5 90t73 139.5t19.5 179v953h121q47 0 77.5 13t49 31.5t26.5 41t8 41.5h-82v202h177v-182q0 -43 -13.5 -86t-44 -76 t-80.5 -53q-37 -15 -84 -19v-884q0 -113 -23.5 -216.5t-91 -182t-191.5 -126t-324 -47.5zM452 1927h191l309 -320h-148z" />
<glyph unicode="&#x1eeb;" horiz-adv-x="1325" d="M633 -20q-164 0 -260.5 33.5t-145.5 96t-63 152.5t-14 203v665h153v-669q0 -70 5 -132.5t36 -108.5t98.5 -72.5t190.5 -26.5t188.5 26.5t96 73.5t34.5 110.5t4 137.5v661h130q40 1 67 13q31 14 49.5 32.5t25.5 40t7 39.5h-82v205h178v-182q0 -43 -13 -86t-44 -77t-80 -55 q-37 -15 -86 -19v-570q0 -115 -13.5 -206t-61.5 -154.5t-142 -97t-258 -33.5zM285 1569h191l309 -320h-148z" />
<glyph unicode="&#x1eec;" horiz-adv-x="1618" d="M795 -25q-203 0 -326 47.5t-189.5 126t-89 182t-22.5 216.5v971h162v-953q0 -96 18.5 -177t69.5 -139.5t142 -91t235 -32.5q145 0 237 31.5t145.5 90t73 139.5t19.5 179v953h121q47 0 77.5 13t49 31.5t26.5 41t8 41.5h-82v202h177v-182q0 -43 -13.5 -86t-44 -76 t-80.5 -53q-37 -15 -84 -19v-884q0 -113 -23.5 -216.5t-91 -182t-191.5 -126t-324 -47.5zM738 1569q-11 76 7.5 120t84.5 85q55 35 75.5 54.5t20.5 54.5q0 34 -26.5 55.5t-106.5 21.5q-49 0 -91 -10t-83 -31l-47 99q45 22 104.5 34.5t122.5 12.5q72 0 120 -13.5t77.5 -36 t42 -53t12.5 -65.5q0 -66 -31.5 -103.5t-89.5 -72.5q-26 -17 -42.5 -30t-26 -29.5t-11.5 -38t0 -54.5h-112z" />
<glyph unicode="&#x1eed;" horiz-adv-x="1325" d="M633 -20q-164 0 -260.5 33.5t-145.5 96t-63 152.5t-14 203v665h153v-669q0 -70 5 -132.5t36 -108.5t98.5 -72.5t190.5 -26.5t188.5 26.5t96 73.5t34.5 110.5t4 137.5v661h130q40 1 67 13q31 14 49.5 32.5t25.5 40t7 39.5h-82v205h178v-182q0 -43 -13 -86t-44 -77t-80 -55 q-37 -15 -86 -19v-570q0 -115 -13.5 -206t-61.5 -154.5t-142 -97t-258 -33.5zM570 1224q-11 76 7.5 120t84.5 85q55 35 75.5 54.5t20.5 54.5q0 34 -26.5 55.5t-106.5 21.5q-49 0 -91 -10t-83 -31l-47 99q45 22 104.5 34.5t122.5 12.5q72 0 120 -13.5t77.5 -36t42 -53 t12.5 -65.5q0 -66 -31.5 -103.5t-89.5 -72.5q-26 -17 -42.5 -30t-26 -29.5t-11.5 -38t0 -54.5h-112z" />
<glyph unicode="&#x1eee;" horiz-adv-x="1618" d="M795 -25q-203 0 -326 47.5t-189.5 126t-89 182t-22.5 216.5v971h162v-953q0 -96 18.5 -177t69.5 -139.5t142 -91t235 -32.5q145 0 237 31.5t145.5 90t73 139.5t19.5 179v953h121q47 0 77.5 13t49 31.5t26.5 41t8 41.5h-82v202h177v-182q0 -43 -13.5 -86t-44 -76 t-80.5 -53q-37 -15 -84 -19v-884q0 -113 -23.5 -216.5t-91 -182t-191.5 -126t-324 -47.5zM408 1689q51 64 116.5 108t133.5 44q51 0 88 -15.5t67.5 -34t60.5 -34t68 -15.5q41 0 81 33t79 78l94 -76q-53 -65 -116.5 -115.5t-134.5 -50.5q-48 0 -83.5 15.5t-67.5 35t-64.5 35 t-69.5 15.5t-78 -27t-76 -72z" />
<glyph unicode="&#x1eef;" horiz-adv-x="1325" d="M633 -20q-164 0 -260.5 33.5t-145.5 96t-63 152.5t-14 203v665h153v-669q0 -70 5 -132.5t36 -108.5t98.5 -72.5t190.5 -26.5t188.5 26.5t96 73.5t34.5 110.5t4 137.5v661h130q40 1 67 13q31 14 49.5 32.5t25.5 40t7 39.5h-82v205h178v-182q0 -43 -13 -86t-44 -77t-80 -55 q-37 -15 -86 -19v-570q0 -115 -13.5 -206t-61.5 -154.5t-142 -97t-258 -33.5zM221 1331q51 64 116.5 108t133.5 44q51 0 88 -15.5t67.5 -34t60.5 -34t68 -15.5q41 0 81 33t79 78l94 -76q-53 -65 -116.5 -115.5t-134.5 -50.5q-48 0 -83.5 15.5t-67.5 35t-64.5 35t-69.5 15.5 t-78 -27t-76 -72z" />
<glyph unicode="&#x1ef0;" horiz-adv-x="1618" d="M795 -25q-203 0 -326 47.5t-189.5 126t-89 182t-22.5 216.5v971h162v-953q0 -96 18.5 -177t69.5 -139.5t142 -91t235 -32.5q145 0 237 31.5t145.5 90t73 139.5t19.5 179v953h121q47 0 77.5 13t49 31.5t26.5 41t8 41.5h-82v202h177v-182q0 -43 -13.5 -86t-44 -76 t-80.5 -53q-37 -15 -84 -19v-884q0 -113 -23.5 -216.5t-91 -182t-191.5 -126t-324 -47.5zM716 -141h156v-219h-156v219z" />
<glyph unicode="&#x1ef1;" horiz-adv-x="1325" d="M633 -20q-164 0 -260.5 33.5t-145.5 96t-63 152.5t-14 203v665h153v-669q0 -70 5 -132.5t36 -108.5t98.5 -72.5t190.5 -26.5t188.5 26.5t96 73.5t34.5 110.5t4 137.5v661h130q40 1 67 13q31 14 49.5 32.5t25.5 40t7 39.5h-82v205h178v-182q0 -43 -13 -86t-44 -77t-80 -55 q-37 -15 -86 -19v-570q0 -115 -13.5 -206t-61.5 -154.5t-142 -97t-258 -33.5zM549 -141h156v-219h-156v219z" />
<glyph unicode="&#x1ef2;" horiz-adv-x="1434" d="M27 1518h176l516 -783l520 783h166l-608 -924v-594h-160v589zM379 1927h191l309 -320h-148z" />
</font>
</defs>
</svg>
